<svg viewBox="0 0 209.21 210.211" xmlns="http://www.w3.org/2000/svg" xmlns:xlink="http://www.w3.org/1999/xlink" width="209.209656" height="210.210693" fill="none" customFrame="#000000">
	<defs>
		<radialGradient id="paint_radial_18" cx="0" cy="0" r="1" gradientUnits="userSpaceOnUse" gradientTransform="matrix(73.4558,107.752,-152.797,104.163,2.78946,3.73708)">
			<stop stop-color="rgb(255,225.25,148.75)" offset="0" stop-opacity="1" />
			<stop stop-color="rgb(242.25,187.189,89.8344)" offset="0.177083328" stop-opacity="0.876811624" />
			<stop stop-color="rgb(191,122,0)" offset="0.359375" stop-opacity="0.75" />
			<stop stop-color="rgb(191,122,0)" offset="1" stop-opacity="0" />
			<stop stop-color="rgb(15,18,24)" offset="1" stop-opacity="0" />
		</radialGradient>
		<radialGradient id="paint_radial_19" cx="0" cy="0" r="1" gradientUnits="userSpaceOnUse" gradientTransform="matrix(-88.0103,-50.3763,50.1364,-87.5912,192.911,155.277)">
			<stop stop-color="rgb(255,225,149)" offset="0" stop-opacity="1" />
			<stop stop-color="rgb(242,187,90)" offset="0.166666672" stop-opacity="0.800000012" />
			<stop stop-color="rgb(191,122,0)" offset="0.328125" stop-opacity="0.75" />
			<stop stop-color="rgb(11,11,11)" offset="1" stop-opacity="0" />
		</radialGradient>
		<clipPath id="clipPath_10">
			<rect width="135.000000" height="135.000000" x="37.000000" y="38.000000" fill="rgb(255,255,255)" />
		</clipPath>
		<linearGradient id="paint_linear_70" x1="105.000626" x2="105.000626" y1="84.9993896" y2="151.000015" gradientUnits="userSpaceOnUse">
			<stop stop-color="rgb(255,186.294,64.8125)" offset="0" stop-opacity="1" />
			<stop stop-color="rgb(255,251,189)" offset="1" stop-opacity="1" />
		</linearGradient>
		<linearGradient id="paint_linear_71" x1="104.999741" x2="104.999741" y1="72.9998779" y2="89.0016632" gradientUnits="userSpaceOnUse">
			<stop stop-color="rgb(255,186.294,64.8125)" offset="0" stop-opacity="1" />
			<stop stop-color="rgb(255,251,189)" offset="1" stop-opacity="1" />
		</linearGradient>
		<linearGradient id="paint_linear_72" x1="104.99958" x2="104.99958" y1="61" y2="77.0003052" gradientUnits="userSpaceOnUse">
			<stop stop-color="rgb(255,186.294,64.8125)" offset="0" stop-opacity="1" />
			<stop stop-color="rgb(255,251,189)" offset="1" stop-opacity="1" />
		</linearGradient>
		<linearGradient id="paint_linear_73" x1="116.998947" x2="116.998947" y1="106.000732" y2="124.001831" gradientUnits="userSpaceOnUse">
			<stop stop-color="rgb(255,186.294,64.8125)" offset="0" stop-opacity="1" />
			<stop stop-color="rgb(255,251,189)" offset="1" stop-opacity="1" />
		</linearGradient>
		<linearGradient id="paint_linear_74" x1="104.999069" x2="104.999069" y1="113.000977" y2="131.001251" gradientUnits="userSpaceOnUse">
			<stop stop-color="rgb(255,186.294,64.8125)" offset="0" stop-opacity="1" />
			<stop stop-color="rgb(255,251,189)" offset="1" stop-opacity="1" />
		</linearGradient>
		<linearGradient id="paint_linear_75" x1="92.9991913" x2="92.9991913" y1="106.000732" y2="124.001831" gradientUnits="userSpaceOnUse">
			<stop stop-color="rgb(255,186.294,64.8125)" offset="0" stop-opacity="1" />
			<stop stop-color="rgb(255,251,189)" offset="1" stop-opacity="1" />
		</linearGradient>
		<linearGradient id="paint_linear_76" x1="105.000435" x2="105.000435" y1="99" y2="138.000656" gradientUnits="userSpaceOnUse">
			<stop stop-color="rgb(255,186.294,64.8125)" offset="0" stop-opacity="1" />
			<stop stop-color="rgb(255,251,189)" offset="1" stop-opacity="1" />
		</linearGradient>
	</defs>
	<rect id="Frame 4" width="209.209671" height="210.210678" x="0.000000" y="0.000000" />
	<path id="Polygon 6" d="M185.72 47.0558C191.585 50.4584 195.195 56.7263 195.195 63.5071L195.195 146.704C195.195 153.484 191.585 159.752 185.72 163.155L114.148 204.674C108.247 208.098 100.963 208.098 95.0612 204.674L23.4899 163.155C17.6245 159.752 14.0144 153.484 14.0144 146.704L14.0144 63.5071C14.0144 56.7263 17.6245 50.4584 23.4898 47.0558L95.0612 5.53636C100.963 2.11265 108.247 2.11265 114.148 5.53636L185.72 47.0558Z" fill="rgb(242.25,187.189,89.8344)" fill-opacity="0.100000001" fill-rule="evenodd" />
	<path id="Polygon 6" d="M188.982 47.1193C188.233 46.5336 187.443 45.9998 186.612 45.5179L115.041 3.99842C114.204 3.5131 113.342 3.08962 112.455 2.72798C111.646 2.39803 110.816 2.11955 109.964 1.89256C109.108 1.66423 108.244 1.4916 107.373 1.37468C106.458 1.25195 105.536 1.19059 104.605 1.19059C103.674 1.19059 102.751 1.25195 101.837 1.37468C100.966 1.4916 100.102 1.66423 99.2454 1.89256C98.3941 2.11957 97.5637 2.39806 96.7544 2.72804C95.8674 3.08967 95.0056 3.51313 94.1691 3.99842L22.5977 45.5179C21.7668 45.9999 20.9765 46.5338 20.2267 47.1196C19.5416 47.655 18.8903 48.2337 18.2729 48.8558C17.6524 49.481 17.076 50.14 16.5435 50.8328C15.9844 51.5603 15.4739 52.3251 15.0119 53.1272C14.55 53.9292 14.1447 54.7544 13.796 55.603C13.4638 56.4113 13.183 57.2408 12.9535 58.0914C12.7253 58.9373 12.5515 59.7908 12.4323 60.6519C12.3017 61.5946 12.2364 62.5463 12.2364 63.5071L12.2364 146.704C12.2364 147.665 12.3017 148.617 12.4324 149.56C12.5517 150.421 12.7254 151.274 12.9535 152.119C13.1831 152.97 13.4641 153.8 13.7965 154.609C14.1451 155.457 14.5502 156.282 15.0119 157.083C15.4739 157.886 15.9845 158.65 16.5436 159.378C17.076 160.071 17.6525 160.73 18.2729 161.355C18.8899 161.977 19.5406 162.555 20.2252 163.09C20.9754 163.676 21.7662 164.21 22.5977 164.693L94.1691 206.212C95.0061 206.698 95.8684 207.122 96.7559 207.483C97.5648 207.813 98.3946 208.091 99.2454 208.318C100.102 208.546 100.965 208.719 101.836 208.836C102.751 208.959 103.674 209.02 104.605 209.02C105.536 209.02 106.459 208.959 107.373 208.836C108.244 208.719 109.108 208.546 109.964 208.318C110.815 208.091 111.645 207.813 112.454 207.483C113.341 207.122 114.204 206.698 115.041 206.212L186.612 164.693C187.443 164.211 188.234 163.677 188.984 163.09C189.669 162.555 190.32 161.977 190.937 161.355C191.556 160.731 192.132 160.072 192.664 159.38C193.224 158.652 193.735 157.887 194.198 157.083C194.659 156.282 195.064 155.457 195.413 154.609C195.746 153.8 196.027 152.97 196.256 152.119C196.484 151.274 196.658 150.421 196.777 149.56C196.908 148.617 196.973 147.665 196.973 146.704L196.973 63.5071C196.973 62.5464 196.908 61.5948 196.777 60.6522C196.658 59.7911 196.484 58.9374 196.256 58.0913C196.026 57.2395 195.745 56.4089 195.412 55.5994C195.064 54.7522 194.659 53.9281 194.198 53.1272C193.735 52.3241 193.224 51.5584 192.664 50.8301C192.132 50.1382 191.556 49.4801 190.937 48.8558C190.319 48.2336 189.668 47.6547 188.982 47.1193ZM195.195 63.5071C195.195 56.7263 191.585 50.4584 185.72 47.0558L114.148 5.53636C108.247 2.11265 100.963 2.11265 95.0612 5.53636L23.4898 47.0558C17.6245 50.4584 14.0144 56.7263 14.0144 63.5071L14.0144 146.704C14.0144 153.484 17.6245 159.752 23.4899 163.155L95.0612 204.674C100.963 208.098 108.247 208.098 114.148 204.674L185.72 163.155C191.585 159.752 195.195 153.484 195.195 146.704L195.195 63.5071Z" fill="url(#paint_radial_18)" fill-rule="evenodd" />
	<path id="Polygon 6" d="M188.982 47.1193C188.233 46.5336 187.443 45.9998 186.612 45.5179L115.041 3.99842C114.204 3.5131 113.342 3.08962 112.455 2.72798C111.646 2.39803 110.816 2.11955 109.964 1.89256C109.108 1.66423 108.244 1.4916 107.373 1.37468C106.458 1.25195 105.536 1.19059 104.605 1.19059C103.674 1.19059 102.751 1.25195 101.837 1.37468C100.966 1.4916 100.102 1.66423 99.2454 1.89256C98.3941 2.11957 97.5637 2.39806 96.7544 2.72804C95.8674 3.08967 95.0056 3.51313 94.1691 3.99842L22.5977 45.5179C21.7668 45.9999 20.9765 46.5338 20.2267 47.1196C19.5416 47.655 18.8903 48.2337 18.2729 48.8558C17.6524 49.481 17.076 50.14 16.5435 50.8328C15.9844 51.5603 15.4739 52.3251 15.0119 53.1272C14.55 53.9292 14.1447 54.7544 13.796 55.603C13.4638 56.4113 13.183 57.2408 12.9535 58.0914C12.7253 58.9373 12.5515 59.7908 12.4323 60.6519C12.3017 61.5946 12.2364 62.5463 12.2364 63.5071L12.2364 146.704C12.2364 147.665 12.3017 148.617 12.4324 149.56C12.5517 150.421 12.7254 151.274 12.9535 152.119C13.1831 152.97 13.4641 153.8 13.7965 154.609C14.1451 155.457 14.5502 156.282 15.0119 157.083C15.4739 157.886 15.9845 158.65 16.5436 159.378C17.076 160.071 17.6525 160.73 18.2729 161.355C18.8899 161.977 19.5406 162.555 20.2252 163.09C20.9754 163.676 21.7662 164.21 22.5977 164.693L94.1691 206.212C95.0061 206.698 95.8684 207.122 96.7559 207.483C97.5648 207.813 98.3946 208.091 99.2454 208.318C100.102 208.546 100.965 208.719 101.836 208.836C102.751 208.959 103.674 209.02 104.605 209.02C105.536 209.02 106.459 208.959 107.373 208.836C108.244 208.719 109.108 208.546 109.964 208.318C110.815 208.091 111.645 207.813 112.454 207.483C113.341 207.122 114.204 206.698 115.041 206.212L186.612 164.693C187.443 164.211 188.234 163.677 188.984 163.09C189.669 162.555 190.32 161.977 190.937 161.355C191.556 160.731 192.132 160.072 192.664 159.38C193.224 158.652 193.735 157.887 194.198 157.083C194.659 156.282 195.064 155.457 195.413 154.609C195.746 153.8 196.027 152.97 196.256 152.119C196.484 151.274 196.658 150.421 196.777 149.56C196.908 148.617 196.973 147.665 196.973 146.704L196.973 63.5071C196.973 62.5464 196.908 61.5948 196.777 60.6522C196.658 59.7911 196.484 58.9374 196.256 58.0913C196.026 57.2395 195.745 56.4089 195.412 55.5994C195.064 54.7522 194.659 53.9281 194.198 53.1272C193.735 52.3241 193.224 51.5584 192.664 50.8301C192.132 50.1382 191.556 49.4801 190.937 48.8558C190.319 48.2336 189.668 47.6547 188.982 47.1193ZM195.195 63.5071C195.195 56.7263 191.585 50.4584 185.72 47.0558L114.148 5.53636C108.247 2.11265 100.963 2.11265 95.0612 5.53636L23.4898 47.0558C17.6245 50.4584 14.0144 56.7263 14.0144 63.5071L14.0144 146.704C14.0144 153.484 17.6245 159.752 23.4899 163.155L95.0612 204.674C100.963 208.098 108.247 208.098 114.148 204.674L185.72 163.155C191.585 159.752 195.195 153.484 195.195 146.704L195.195 63.5071Z" fill="url(#paint_radial_19)" fill-rule="evenodd" />
	<g id="Frame 25" clip-path="url(#clipPath_10)" customFrame="url(#clipPath_10)">
		<rect id="Frame 25" width="135.000000" height="135.000000" x="37.000000" y="38.000000" />
		<g id="Group">
			<path id="Vector" d="M70.0242 84.9995C69.147 84.9928 68.3682 85.5586 68.1023 86.3943L66.1021 92.3942C66.0345 92.5985 66.0003 92.8121 66.001 93.027L66.001 139.071C66.001 141.651 66.9023 144.243 68.5637 146.289C70.2612 148.38 72.8307 151 76.4581 151L133.543 151C137.171 151 139.74 148.38 141.438 146.289C143.099 144.243 144 141.651 144 139.07L144 93.0264L144 93.027C144 92.8121 143.966 92.5985 143.898 92.3942L141.898 86.3943C141.731 85.8907 141.37 85.4742 140.895 85.2372C140.42 84.9994 139.871 84.9606 139.367 85.128C138.863 85.2961 138.448 85.657 138.21 86.1318C137.973 86.6066 137.934 87.1563 138.101 87.6599L140 93.3511L140 139.069C140 140.675 139.369 142.491 138.332 143.768C136.941 145.481 134.998 146.998 133.542 146.998L76.4572 146.998C75.0028 146.998 73.0589 145.481 71.6679 143.768C70.6313 142.491 70.0005 140.675 70.0005 139.069L70.0005 93.3511L71.8989 87.6599C72.1118 87.0505 72.0174 86.3755 71.6458 85.8472C71.2734 85.3196 70.6694 85.0042 70.0239 84.9995L70.0242 84.9995Z" fill="url(#paint_linear_70)" fill-opacity="0.876811624" fill-rule="evenodd" />
			<path id="Vector" d="M70.0002 72.9999C69.2429 72.9999 68.5498 73.4284 68.2109 74.1054L64.2111 82.1056C63.8261 82.8757 63.9774 83.8058 64.5861 84.4145L68.5859 88.4143C69.1216 88.95 69.9138 89.1375 70.6329 88.8984L82 85.1095L93.3672 88.8984C93.7776 89.0357 94.2223 89.0357 94.6328 88.8984L106 85.1095L117.367 88.8984C117.778 89.0357 118.222 89.0357 118.633 88.8984L129.937 85.1291L139.257 88.8597C140.001 89.1557 140.848 88.9802 141.414 88.4144L145.413 84.4146C146.022 83.8059 146.173 82.8758 145.788 82.1057L141.789 74.1055C141.45 73.4279 140.757 73 139.999 73L70.0002 72.9999ZM71.2344 76.9996L138.765 76.9996L141.566 82.6051L139.519 84.6562L130.741 81.1447C130.302 80.9699 129.815 80.9565 129.366 81.1065L117.999 84.8947L106.632 81.1059C106.222 80.9686 105.777 80.9686 105.366 81.1059L93.9993 84.8947L82.6321 81.1059C82.2217 80.9686 81.777 80.9686 81.3665 81.1059L70.5385 84.7152L68.4332 82.6058L71.2337 77.0004L71.2344 76.9996Z" fill="url(#paint_linear_71)" fill-opacity="0.876811624" fill-rule="evenodd" />
			<path id="Vector" d="M70.0002 61C67.2647 61 65 63.2647 65 66.0002L65 72.0001C65 74.7356 67.2647 77.0003 70.0002 77.0003L139.999 77.0003C142.734 77.0003 144.999 74.7356 144.999 72.0001L144.999 66.0002C144.999 63.2647 142.734 61 139.999 61L70.0002 61ZM70.0002 64.9997L139.999 64.9997C140.588 64.9997 140.999 65.4109 140.999 65.9995L140.999 71.9994C140.999 72.5881 140.588 72.9992 139.999 72.9992L70.0002 72.9992C69.4116 72.9992 69.0005 72.5881 69.0005 71.9994L69.0005 65.9995C69.0005 65.4109 69.4116 64.9997 70.0002 64.9997Z" fill="url(#paint_linear_72)" fill-opacity="0.876811624" fill-rule="nonzero" />
			<path id="Vector" d="M127 115.049C127.008 114.68 126.917 114.316 126.734 113.996L122.73 107.007C122.375 106.385 121.717 106.001 121.006 106.001L112.998 106.001C112.284 106 111.625 106.384 111.269 107.007L107.266 113.996L107.265 113.996C106.909 114.618 106.909 115.385 107.265 116.006L111.269 122.996L111.269 122.997C111.625 123.619 112.284 124.003 112.998 124.002L121.006 124.002C121.717 124.001 122.374 123.618 122.73 122.997L126.734 116.007L126.734 116.006C126.901 115.715 126.992 115.386 127 115.049ZM122.707 115.001L119.852 119.984L114.147 119.984L111.293 115.001L114.147 110.017L119.852 110.017L122.707 115.001Z" fill="url(#paint_linear_73)" fill-opacity="0.876811624" fill-rule="nonzero" />
			<path id="Vector" d="M115 122.048C115.008 121.679 114.917 121.316 114.734 120.996L110.73 114.006C110.375 113.385 109.717 113.002 109.006 113.001L100.998 113.001C100.284 113 99.6256 113.383 99.2693 114.006L95.2657 120.996L95.265 120.996C94.9087 121.618 94.9087 122.385 95.265 123.007L99.2687 129.996L99.2693 129.996C99.6256 130.619 100.285 131.002 100.998 131.001L109.006 131.001C109.717 131.001 110.375 130.618 110.73 129.996L114.734 123.007C114.901 122.715 114.992 122.385 115 122.048ZM110.707 122L107.852 126.984L102.148 126.984L99.293 122L102.148 117.017L107.852 117.017L110.707 122Z" fill="url(#paint_linear_74)" fill-opacity="0.876811624" fill-rule="nonzero" />
			<path id="Vector" d="M103 115.049C103.009 114.68 102.917 114.316 102.734 113.996L98.7304 107.007C98.3748 106.385 97.7172 106.001 97.006 106.001L88.9978 106.001C88.2846 106 87.6257 106.384 87.2695 107.007L83.2658 113.996L83.2651 113.996C82.9089 114.618 82.9089 115.385 83.2651 116.006L87.2688 122.996L87.2695 122.997C87.6257 123.619 88.2846 124.003 88.9978 124.002L97.006 124.002C97.7171 124.001 98.3747 123.618 98.7304 122.997L102.734 116.007L102.734 116.006C102.901 115.715 102.993 115.386 103 115.049ZM98.7068 115.001L95.8522 119.984L90.1477 119.984L87.2931 115.001L90.1477 110.017L95.8522 110.017L98.7068 115.001Z" fill="url(#paint_linear_75)" fill-opacity="0.876811624" fill-rule="nonzero" />
			<path id="Vector" d="M81.0007 99C78.2652 99 76.0005 101.265 76.0005 104L76.0005 133C76.0005 135.736 78.2652 138.001 81.0007 138.001L129 138.001C131.736 138.001 134 135.736 134 133L134 104C134 101.265 131.736 99 129 99L81.0007 99ZM81.0007 103L129 103C129.589 103 130 103.411 130 103.999L130 133C130 133.588 129.589 134 129 134L81.0007 134C80.4121 134 80.0009 133.588 80.0009 133L80.0009 103.999C80.0009 103.411 80.4121 103 81.0007 103Z" fill="url(#paint_linear_76)" fill-opacity="0.876811624" fill-rule="nonzero" />
		</g>
	</g>
</svg>
