<svg viewBox="0 0 209.21 210.211" xmlns="http://www.w3.org/2000/svg" xmlns:xlink="http://www.w3.org/1999/xlink" width="209.209656" height="210.210693" fill="none" customFrame="#000000">
	<defs>
		<radialGradient id="paint_radial_8" cx="0" cy="0" r="1" gradientUnits="userSpaceOnUse" gradientTransform="matrix(73.4558,107.752,-152.797,104.163,2.78946,3.73708)">
			<stop stop-color="rgb(255,225.25,148.75)" offset="0" stop-opacity="1" />
			<stop stop-color="rgb(242.25,187.189,89.8344)" offset="0.177083328" stop-opacity="0.876811624" />
			<stop stop-color="rgb(191,122,0)" offset="0.359375" stop-opacity="0.75" />
			<stop stop-color="rgb(191,122,0)" offset="1" stop-opacity="0" />
			<stop stop-color="rgb(15,18,24)" offset="1" stop-opacity="0" />
		</radialGradient>
		<radialGradient id="paint_radial_9" cx="0" cy="0" r="1" gradientUnits="userSpaceOnUse" gradientTransform="matrix(-88.0103,-50.3763,50.1364,-87.5912,192.911,155.277)">
			<stop stop-color="rgb(255,225,149)" offset="0" stop-opacity="1" />
			<stop stop-color="rgb(242,187,90)" offset="0.166666672" stop-opacity="0.800000012" />
			<stop stop-color="rgb(191,122,0)" offset="0.328125" stop-opacity="0.75" />
			<stop stop-color="rgb(11,11,11)" offset="1" stop-opacity="0" />
		</radialGradient>
		<clipPath id="clipPath_6">
			<rect width="135.000000" height="135.000000" x="37.604858" y="37.258789" fill="rgb(255,255,255)" />
		</clipPath>
		<linearGradient id="paint_linear_54" x1="87.7938004" x2="87.7938004" y1="86.0048828" y2="143.754669" gradientUnits="userSpaceOnUse">
			<stop stop-color="rgb(255,186.294,64.8125)" offset="0" stop-opacity="1" />
			<stop stop-color="rgb(255,251,189)" offset="1" stop-opacity="1" />
		</linearGradient>
		<linearGradient id="paint_linear_55" x1="90.6806564" x2="90.6806564" y1="135.093262" y2="137.981064" gradientUnits="userSpaceOnUse">
			<stop stop-color="rgb(255,186.294,64.8125)" offset="0" stop-opacity="1" />
			<stop stop-color="rgb(255,251,189)" offset="1" stop-opacity="1" />
		</linearGradient>
		<linearGradient id="paint_linear_56" x1="96.455925" x2="96.455925" y1="135.093262" y2="137.981064" gradientUnits="userSpaceOnUse">
			<stop stop-color="rgb(255,186.294,64.8125)" offset="0" stop-opacity="1" />
			<stop stop-color="rgb(255,251,189)" offset="1" stop-opacity="1" />
		</linearGradient>
		<linearGradient id="paint_linear_57" x1="87.7946396" x2="87.7946396" y1="96.1105957" y2="132.205338" gradientUnits="userSpaceOnUse">
			<stop stop-color="rgb(255,186.294,64.8125)" offset="0" stop-opacity="1" />
			<stop stop-color="rgb(255,251,189)" offset="1" stop-opacity="1" />
		</linearGradient>
		<linearGradient id="paint_linear_58" x1="129.663177" x2="129.663177" y1="68.6791992" y2="71.5664215" gradientUnits="userSpaceOnUse">
			<stop stop-color="rgb(255,186.294,64.8125)" offset="0" stop-opacity="1" />
			<stop stop-color="rgb(255,251,189)" offset="1" stop-opacity="1" />
		</linearGradient>
		<linearGradient id="paint_linear_59" x1="129.663177" x2="129.663177" y1="120.654785" y2="126.886856" gradientUnits="userSpaceOnUse">
			<stop stop-color="rgb(255,186.294,64.8125)" offset="0" stop-opacity="1" />
			<stop stop-color="rgb(255,251,189)" offset="1" stop-opacity="1" />
		</linearGradient>
		<linearGradient id="paint_linear_60" x1="105.118378" x2="105.118378" y1="60.0148926" y2="149.529007" gradientUnits="userSpaceOnUse">
			<stop stop-color="rgb(255,186.294,64.8125)" offset="0" stop-opacity="1" />
			<stop stop-color="rgb(255,251,189)" offset="1" stop-opacity="1" />
		</linearGradient>
	</defs>
	<rect id="Frame 8" width="209.209671" height="210.210678" x="0.000000" y="0.000000" />
	<path id="Polygon 6" d="M185.72 47.0558C191.585 50.4584 195.195 56.7263 195.195 63.5071L195.195 146.704C195.195 153.484 191.585 159.752 185.72 163.155L114.148 204.674C108.247 208.098 100.963 208.098 95.0612 204.674L23.4899 163.155C17.6245 159.752 14.0144 153.484 14.0144 146.704L14.0144 63.5071C14.0144 56.7263 17.6245 50.4584 23.4898 47.0558L95.0612 5.53636C100.963 2.11265 108.247 2.11265 114.148 5.53636L185.72 47.0558Z" fill="rgb(242.25,187.189,89.8344)" fill-opacity="0.100000001" fill-rule="evenodd" />
	<path id="Polygon 6" d="M188.982 47.1193C188.233 46.5336 187.443 45.9998 186.612 45.5179L115.041 3.99842C114.204 3.5131 113.342 3.08962 112.455 2.72798C111.646 2.39803 110.816 2.11955 109.964 1.89256C109.108 1.66423 108.244 1.4916 107.373 1.37468C106.458 1.25195 105.536 1.19059 104.605 1.19059C103.674 1.19059 102.751 1.25195 101.837 1.37468C100.966 1.4916 100.102 1.66423 99.2454 1.89256C98.3941 2.11957 97.5637 2.39806 96.7544 2.72804C95.8674 3.08967 95.0056 3.51313 94.1691 3.99842L22.5977 45.5179C21.7668 45.9999 20.9765 46.5338 20.2267 47.1196C19.5416 47.655 18.8903 48.2337 18.2729 48.8558C17.6524 49.481 17.076 50.14 16.5435 50.8328C15.9844 51.5603 15.4739 52.3251 15.0119 53.1272C14.55 53.9292 14.1447 54.7544 13.796 55.603C13.4638 56.4113 13.183 57.2408 12.9535 58.0914C12.7253 58.9373 12.5515 59.7908 12.4323 60.6519C12.3017 61.5946 12.2364 62.5463 12.2364 63.5071L12.2364 146.704C12.2364 147.665 12.3017 148.617 12.4324 149.56C12.5517 150.421 12.7254 151.274 12.9535 152.119C13.1831 152.97 13.4641 153.8 13.7965 154.609C14.1451 155.457 14.5502 156.282 15.0119 157.083C15.4739 157.886 15.9845 158.65 16.5436 159.378C17.076 160.071 17.6525 160.73 18.2729 161.355C18.8899 161.977 19.5406 162.555 20.2252 163.09C20.9754 163.676 21.7662 164.21 22.5977 164.693L94.1691 206.212C95.0061 206.698 95.8684 207.122 96.7559 207.483C97.5648 207.813 98.3946 208.091 99.2454 208.318C100.102 208.546 100.965 208.719 101.836 208.836C102.751 208.959 103.674 209.02 104.605 209.02C105.536 209.02 106.459 208.959 107.373 208.836C108.244 208.719 109.108 208.546 109.964 208.318C110.815 208.091 111.645 207.813 112.454 207.483C113.341 207.122 114.204 206.698 115.041 206.212L186.612 164.693C187.443 164.211 188.234 163.677 188.984 163.09C189.669 162.555 190.32 161.977 190.937 161.355C191.556 160.731 192.132 160.072 192.664 159.38C193.224 158.652 193.735 157.887 194.198 157.083C194.659 156.282 195.064 155.457 195.413 154.609C195.746 153.8 196.027 152.97 196.256 152.119C196.484 151.274 196.658 150.421 196.777 149.56C196.908 148.617 196.973 147.665 196.973 146.704L196.973 63.5071C196.973 62.5464 196.908 61.5948 196.777 60.6522C196.658 59.7911 196.484 58.9374 196.256 58.0913C196.026 57.2395 195.745 56.4089 195.412 55.5994C195.064 54.7522 194.659 53.9281 194.198 53.1272C193.735 52.3241 193.224 51.5584 192.664 50.8301C192.132 50.1382 191.556 49.4801 190.937 48.8558C190.319 48.2336 189.668 47.6547 188.982 47.1193ZM195.195 63.5071C195.195 56.7263 191.585 50.4584 185.72 47.0558L114.148 5.53636C108.247 2.11265 100.963 2.11265 95.0612 5.53636L23.4898 47.0558C17.6245 50.4584 14.0144 56.7263 14.0144 63.5071L14.0144 146.704C14.0144 153.484 17.6245 159.752 23.4899 163.155L95.0612 204.674C100.963 208.098 108.247 208.098 114.148 204.674L185.72 163.155C191.585 159.752 195.195 153.484 195.195 146.704L195.195 63.5071Z" fill="url(#paint_radial_8)" fill-rule="evenodd" />
	<path id="Polygon 6" d="M188.982 47.1193C188.233 46.5336 187.443 45.9998 186.612 45.5179L115.041 3.99842C114.204 3.5131 113.342 3.08962 112.455 2.72798C111.646 2.39803 110.816 2.11955 109.964 1.89256C109.108 1.66423 108.244 1.4916 107.373 1.37468C106.458 1.25195 105.536 1.19059 104.605 1.19059C103.674 1.19059 102.751 1.25195 101.837 1.37468C100.966 1.4916 100.102 1.66423 99.2454 1.89256C98.3941 2.11957 97.5637 2.39806 96.7544 2.72804C95.8674 3.08967 95.0056 3.51313 94.1691 3.99842L22.5977 45.5179C21.7668 45.9999 20.9765 46.5338 20.2267 47.1196C19.5416 47.655 18.8903 48.2337 18.2729 48.8558C17.6524 49.481 17.076 50.14 16.5435 50.8328C15.9844 51.5603 15.4739 52.3251 15.0119 53.1272C14.55 53.9292 14.1447 54.7544 13.796 55.603C13.4638 56.4113 13.183 57.2408 12.9535 58.0914C12.7253 58.9373 12.5515 59.7908 12.4323 60.6519C12.3017 61.5946 12.2364 62.5463 12.2364 63.5071L12.2364 146.704C12.2364 147.665 12.3017 148.617 12.4324 149.56C12.5517 150.421 12.7254 151.274 12.9535 152.119C13.1831 152.97 13.4641 153.8 13.7965 154.609C14.1451 155.457 14.5502 156.282 15.0119 157.083C15.4739 157.886 15.9845 158.65 16.5436 159.378C17.076 160.071 17.6525 160.73 18.2729 161.355C18.8899 161.977 19.5406 162.555 20.2252 163.09C20.9754 163.676 21.7662 164.21 22.5977 164.693L94.1691 206.212C95.0061 206.698 95.8684 207.122 96.7559 207.483C97.5648 207.813 98.3946 208.091 99.2454 208.318C100.102 208.546 100.965 208.719 101.836 208.836C102.751 208.959 103.674 209.02 104.605 209.02C105.536 209.02 106.459 208.959 107.373 208.836C108.244 208.719 109.108 208.546 109.964 208.318C110.815 208.091 111.645 207.813 112.454 207.483C113.341 207.122 114.204 206.698 115.041 206.212L186.612 164.693C187.443 164.211 188.234 163.677 188.984 163.09C189.669 162.555 190.32 161.977 190.937 161.355C191.556 160.731 192.132 160.072 192.664 159.38C193.224 158.652 193.735 157.887 194.198 157.083C194.659 156.282 195.064 155.457 195.413 154.609C195.746 153.8 196.027 152.97 196.256 152.119C196.484 151.274 196.658 150.421 196.777 149.56C196.908 148.617 196.973 147.665 196.973 146.704L196.973 63.5071C196.973 62.5464 196.908 61.5948 196.777 60.6522C196.658 59.7911 196.484 58.9374 196.256 58.0913C196.026 57.2395 195.745 56.4089 195.412 55.5994C195.064 54.7522 194.659 53.9281 194.198 53.1272C193.735 52.3241 193.224 51.5584 192.664 50.8301C192.132 50.1382 191.556 49.4801 190.937 48.8558C190.319 48.2336 189.668 47.6547 188.982 47.1193ZM195.195 63.5071C195.195 56.7263 191.585 50.4584 185.72 47.0558L114.148 5.53636C108.247 2.11265 100.963 2.11265 95.0612 5.53636L23.4898 47.0558C17.6245 50.4584 14.0144 56.7263 14.0144 63.5071L14.0144 146.704C14.0144 153.484 17.6245 159.752 23.4899 163.155L95.0612 204.674C100.963 208.098 108.247 208.098 114.148 204.674L185.72 163.155C191.585 159.752 195.195 153.484 195.195 146.704L195.195 63.5071Z" fill="url(#paint_radial_9)" fill-rule="evenodd" />
	<g id="Frame 22" clip-path="url(#clipPath_6)" customFrame="url(#clipPath_6)">
		<rect id="Frame 22" width="135.000000" height="135.000000" x="37.604858" y="37.258789" />
		<g id="Group">
			<path id="Vector" d="M102.613 92.1646L99.5438 87.3417C99.0106 86.5044 98.1002 86.0049 97.1075 86.0049L78.4805 86.0049C77.4877 86.0049 76.5773 86.505 76.0441 87.3424L72.9752 92.1653C68.502 99.1942 66.1374 107.314 66.1374 115.645C66.1374 122.941 67.9838 130.184 71.4779 136.588L74.5661 142.25C75.0719 143.178 76.0435 143.755 77.1005 143.755L98.4865 143.755C99.5436 143.755 100.515 143.178 101.021 142.25L104.11 136.588C107.603 130.183 109.45 122.941 109.45 115.645C109.45 107.313 107.086 99.1937 102.612 92.1637L102.613 92.1646ZM101.575 135.207L98.4874 140.868L77.0998 140.868L74.0116 135.206C70.7491 129.224 69.0245 122.46 69.0245 115.646C69.0245 107.864 71.233 100.28 75.4109 93.7145L78.4798 88.8916L97.1084 88.8916L100.177 93.7145C104.355 100.28 106.564 107.864 106.564 115.646C106.563 122.46 104.838 129.224 101.575 135.208L101.575 135.207Z" fill="url(#paint_linear_54)" fill-opacity="0.876811624" fill-rule="nonzero" />
			<path id="Vector" d="M89.2368 135.093L92.1245 135.093L92.1245 137.981L89.2368 137.981L89.2368 135.093Z" fill="url(#paint_linear_55)" fill-opacity="0.876811624" fill-rule="nonzero" />
			<path id="Vector" d="M95.012 135.093L97.8998 135.093L97.8998 137.981L95.012 137.981L95.012 135.093Z" fill="url(#paint_linear_56)" fill-opacity="0.876811624" fill-rule="nonzero" />
			<path id="Vector" d="M93.9107 103.33C94.5988 102.56 95.0134 101.545 95.0134 100.442C95.0134 98.0539 93.0703 96.1106 90.6818 96.1106C89.5735 96.1106 88.5613 96.5296 87.794 97.217C87.0273 96.5296 86.0151 96.1106 84.9062 96.1106C82.518 96.1106 80.5747 98.0537 80.5747 100.442C80.5747 101.546 80.988 102.561 81.6749 103.33L71.913 103.33L71.913 106.098C71.913 110.981 74.8539 115.275 79.321 117.059C79.9098 120.247 81.8485 123.103 84.6727 124.797L86.3511 125.804L86.3511 132.205L89.2389 132.205L89.2389 125.804L90.9166 124.797C93.7408 123.103 95.6796 120.247 96.2683 117.059C100.735 115.275 103.676 110.98 103.676 106.098L103.676 103.33L93.9107 103.33ZM93.5698 115.011C93.5698 115.959 93.4074 116.889 93.1052 117.767L82.4842 117.767C82.182 116.89 82.0196 115.96 82.0196 115.011C82.0196 114.967 82.0215 114.923 82.0221 114.879L93.5674 114.879C93.568 114.924 93.5698 114.967 93.5698 115.011ZM82.5715 111.992C82.7981 111.395 83.0916 110.821 83.4513 110.281L84.2361 109.104L91.3537 109.104L92.1385 110.281C92.4982 110.821 92.7923 111.395 93.0183 111.992L82.5715 111.992ZM87.7946 103.33C89.3869 103.33 90.6824 104.626 90.6824 106.218L84.9073 106.218C84.9067 104.625 86.2025 103.33 87.7946 103.33ZM90.6818 98.9984C91.4779 98.9984 92.1254 99.6459 92.1254 100.442C92.1254 100.979 91.8307 101.453 91.388 101.701C90.7667 101.206 90.0418 100.835 89.25 100.628C89.2425 100.567 89.2382 100.505 89.2382 100.442C89.2382 99.6459 89.8857 98.9984 90.6818 98.9984ZM84.9067 98.9984C85.7028 98.9984 86.3503 99.6459 86.3503 100.442C86.3503 100.504 86.3459 100.567 86.3378 100.628C85.5467 100.834 84.8217 101.206 84.1998 101.701C83.7578 101.454 83.4631 100.98 83.4631 100.442C83.4631 99.6459 84.1106 98.9984 84.9067 98.9984ZM74.8013 106.217L82.0194 106.217L82.0194 107.224L81.0484 108.68C80.0213 110.22 79.3913 111.968 79.1971 113.792C76.539 112.239 74.8432 109.4 74.8013 106.217ZM89.4305 122.322L87.7946 123.303L86.1588 122.322C85.4039 121.869 84.7364 121.303 84.1663 120.656L91.4236 120.656C90.8536 121.302 90.1855 121.868 89.4305 122.322ZM96.392 113.793C96.1972 111.969 95.5678 110.221 94.5407 108.68L93.5697 107.224L93.5697 106.218L100.788 106.218C100.746 109.401 99.0495 112.239 96.392 113.793Z" fill="url(#paint_linear_57)" fill-opacity="0.876811624" fill-rule="nonzero" />
			<path id="Vector" d="M131.107 70.1228C131.107 70.9202 130.46 71.5664 129.663 71.5664C128.865 71.5664 128.219 70.9202 128.219 70.1228C128.219 69.3254 128.865 68.6792 129.663 68.6792C130.46 68.6792 131.107 69.3255 131.107 70.1228Z" fill="url(#paint_linear_58)" fill-opacity="0.876811624" fill-rule="nonzero" />
			<path id="Vector" d="M127.232 125.295C127.582 124.246 128.559 123.543 129.663 123.543C130.768 123.543 131.745 124.247 132.094 125.295L132.625 126.887L135.364 125.973L134.833 124.381C134.091 122.152 132.013 120.655 129.663 120.655C127.314 120.655 125.236 122.152 124.493 124.381L123.962 125.973L126.702 126.887L127.232 125.295Z" fill="url(#paint_linear_59)" fill-opacity="0.876811624" fill-rule="nonzero" />
			<path id="Vector" d="M145.544 140.867C144.748 140.867 144.101 140.219 144.101 139.423C144.101 137.418 142.73 135.727 140.877 135.236C141.097 134.355 141.213 133.44 141.213 132.508L141.213 132.205C141.213 127.211 140.185 122.366 138.157 117.803L135.46 111.735L138.116 74.548C138.255 72.603 138.326 70.628 138.326 68.6779C138.326 63.9012 134.44 60.015 129.663 60.015C124.886 60.015 121 63.9012 121 68.6779C121 70.6279 121.07 72.603 121.21 74.5486L123.866 111.735L121.169 117.803C119.141 122.365 118.113 127.211 118.113 132.204L118.113 132.461C118.113 133.36 118.219 134.242 118.424 135.093L111.05 135.093C113.792 128.959 115.225 122.284 115.225 115.542C115.225 105.356 112.059 95.6183 106.068 87.3798L103.675 84.0891L103.675 80.2279C105.267 80.2279 106.563 78.9322 106.563 77.3401L106.562 62.9027C106.562 61.3105 105.267 60.0149 103.675 60.0149L71.9113 60.0149C70.3191 60.0149 69.0235 61.3105 69.0235 62.9027L69.0235 77.3407C69.0235 78.9329 70.3192 80.2285 71.9113 80.2285L71.9113 84.0904L69.5186 87.3804C63.5275 95.6169 60.3611 105.355 60.3611 115.541C60.3611 123.859 62.5427 132.074 66.6694 139.296L71.27 147.347C72.0393 148.693 73.4804 149.529 75.0307 149.529L100.555 149.529C102.106 149.529 103.547 148.693 104.316 147.347L107.39 141.966C108.178 143.048 109.455 143.754 110.893 143.754L113.781 143.754C114.577 143.754 115.225 144.401 115.225 145.197C115.225 147.586 117.168 149.529 119.556 149.529L145.544 149.529C147.932 149.529 149.876 147.586 149.876 145.197C149.875 142.809 147.932 140.866 145.543 140.866L145.544 140.867ZM121 132.204C121 127.617 121.945 123.166 123.807 118.975L126.797 112.248L124.089 74.3435C123.955 72.4659 123.887 70.5602 123.887 68.6788C123.887 65.4943 126.478 62.9037 129.662 62.9037C132.847 62.9037 135.437 65.4943 135.437 68.6788C135.437 70.5607 135.369 72.4664 135.235 74.3435L132.527 112.25L135.517 118.976C137.38 123.168 138.325 127.619 138.325 132.206L138.325 132.509C138.325 135.288 136.947 137.856 134.682 139.406C133.198 138.487 131.467 137.981 129.662 137.981C127.869 137.981 126.149 138.481 124.67 139.389C122.388 137.834 121 135.255 121 132.462L121 132.204ZM103.674 77.3412L71.9109 77.3412L71.9109 74.4541L103.676 74.4541L103.676 77.3419C103.676 77.3413 103.676 77.3413 103.674 77.3413L103.674 77.3412ZM83.8754 71.5661C84.4055 69.8559 85.9822 68.6783 87.791 68.6783C89.5999 68.6783 91.1772 69.8553 91.7067 71.5661L83.8754 71.5661ZM103.674 62.9038L103.675 71.5668L94.6951 71.5668L94.5752 71.0872C93.7954 67.9683 91.0062 65.791 87.7923 65.791C84.5784 65.791 81.7892 67.9683 81.01 71.0866L80.8901 71.5661L71.9105 71.5661L71.9105 62.9038L103.674 62.9038ZM101.808 145.916C101.551 146.365 101.071 146.643 100.554 146.643L75.0295 146.643C74.5125 146.643 74.0323 146.364 73.7757 145.916L69.1752 137.865C65.2969 131.078 63.2477 123.359 63.2477 115.544C63.2477 105.972 66.2236 96.8223 71.8532 89.0809L74.7979 85.031L74.7979 80.2306L100.786 80.2306L100.786 85.0316L103.731 89.0809C109.36 96.821 112.335 105.972 112.335 115.544C112.335 123.36 110.286 131.079 106.407 137.866L101.808 145.916ZM145.543 146.643L119.556 146.643C118.759 146.643 118.112 145.996 118.112 145.199C118.112 142.811 116.169 140.868 113.78 140.868L110.893 140.868C110.096 140.868 109.449 140.22 109.449 139.424C109.449 138.628 110.096 137.981 110.893 137.981L119.556 137.981C120.274 139.26 121.241 140.396 122.415 141.319C122.169 141.607 121.939 141.909 121.727 142.227L121.241 142.955L123.644 144.556L124.129 143.829C125.365 141.975 127.434 140.868 129.661 140.868C131.89 140.868 133.958 141.975 135.194 143.829L135.679 144.556L138.082 142.955L137.597 142.227C137.39 141.917 137.166 141.624 136.928 141.343C138.105 140.415 139.074 139.27 139.791 137.982C140.577 137.995 141.212 138.636 141.212 139.425C141.212 141.813 143.155 143.757 145.543 143.757C146.339 143.757 146.987 144.404 146.987 145.2C146.987 145.996 146.339 146.643 145.543 146.643L145.543 146.643Z" fill="url(#paint_linear_60)" fill-opacity="0.876811624" fill-rule="nonzero" />
		</g>
	</g>
</svg>
