<svg viewBox="0 0 42 42" xmlns="http://www.w3.org/2000/svg" xmlns:xlink="http://www.w3.org/1999/xlink" width="42.000000" height="42.000000" fill="none">
	<defs>
		<linearGradient id="paint_linear_150" x1="20.6281128" x2="20.6281128" y1="7.72167969" y2="34.2997398" gradientUnits="userSpaceOnUse">
			<stop stop-color="rgb(255,186.294,64.8125)" offset="0" stop-opacity="1" />
			<stop stop-color="rgb(255,251,189)" offset="1" stop-opacity="1" />
		</linearGradient>
	</defs>
	<rect id="material-symbols:arrow-back-rounded" width="42.000000" height="42.000000" x="0.000000" y="0.000000" fill="rgb(255,255,255)" fill-opacity="0" />
	<path id="Vector" d="M19.0312 33.7747L7.48125 22.2247C7.30625 22.0497 7.182 21.8602 7.1085 21.656C7.035 21.4518 6.99883 21.2331 7 20.9997C7 20.7664 7.03675 20.5477 7.11025 20.3435C7.18375 20.1393 7.30741 19.9497 7.48125 19.7747L19.0312 8.22474C19.3521 7.90391 19.7534 7.73649 20.2352 7.72249C20.7171 7.70849 21.1324 7.87591 21.4812 8.22474C21.8312 8.54557 22.0138 8.94691 22.029 9.42874C22.0442 9.91057 21.8762 10.3259 21.525 10.6747L12.95 19.2497L32.5062 19.2497C33.0021 19.2497 33.418 19.4177 33.754 19.7537C34.09 20.0897 34.2574 20.5051 34.2562 20.9997C34.2562 21.4956 34.0888 21.9115 33.754 22.2475C33.4192 22.5835 33.0033 22.7509 32.5062 22.7497L12.95 22.7497L21.525 31.3247C21.8458 31.6456 22.0138 32.0539 22.029 32.5497C22.0442 33.0456 21.8762 33.4539 21.525 33.7747C21.2042 34.1247 20.7958 34.2997 20.3 34.2997C19.8042 34.2997 19.3812 34.1247 19.0312 33.7747Z" fill="url(#paint_linear_150)" fill-opacity="0.876811624" fill-rule="nonzero" />
</svg>
