<svg viewBox="0 0 42 42" xmlns="http://www.w3.org/2000/svg" xmlns:xlink="http://www.w3.org/1999/xlink" width="42.000000" height="42.000000" fill="none">
	<defs>
		<linearGradient id="paint_linear_151" x1="13.6281424" x2="13.6281424" y1="-8.13718453e-16" y2="26.5780602" gradientUnits="userSpaceOnUse">
			<stop stop-color="rgb(255,186.294,64.8125)" offset="0" stop-opacity="1" />
			<stop stop-color="rgb(255,251,189)" offset="1" stop-opacity="1" />
		</linearGradient>
	</defs>
	<rect id="material-symbols:arrow-back-rounded" width="42.000000" height="42.000000" x="0.000000" y="0.000000" fill="rgb(255,255,255)" fill-opacity="0" transform="matrix(-1,0,0,1,42,0)" />
	<path id="Vector" d="M12.0313 26.0531L0.481277 14.5031C0.306278 14.3281 0.182027 14.1385 0.108527 13.9343C0.035027 13.7301 -0.00113932 13.5114 2.7344e-05 13.2781C2.7344e-05 13.0447 0.0367777 12.826 0.110278 12.6218C0.183778 12.4176 0.307444 12.2281 0.481277 12.0531L12.0313 0.50306C12.3521 0.182226 12.7534 0.0148103 13.2353 0.000810292C13.7171 -0.0131897 14.1324 0.154226 14.4813 0.50306C14.8313 0.823893 15.0139 1.22523 15.029 1.70706C15.0442 2.18889 14.8762 2.60423 14.525 2.95306L5.95003 11.5281L25.5063 11.5281C26.0021 11.5281 26.418 11.6961 26.754 12.0321C27.09 12.3681 27.2574 12.7834 27.2563 13.2781C27.2563 13.7739 27.0889 14.1898 26.754 14.5258C26.4192 14.8618 26.0033 15.0292 25.5063 15.0281L5.95003 15.0281L14.525 23.6031C14.8459 23.9239 15.0139 24.3322 15.029 24.8281C15.0442 25.3239 14.8762 25.7322 14.525 26.0531C14.2042 26.4031 13.7959 26.5781 13.3 26.5781C12.8042 26.5781 12.3813 26.4031 12.0313 26.0531Z" fill="url(#paint_linear_151)" fill-opacity="0.876811624" fill-rule="nonzero" transform="matrix(-1,0,0,1,35,7.72168)" />
</svg>
