<svg viewBox="0 0 44.6125 51" xmlns="http://www.w3.org/2000/svg" xmlns:xlink="http://www.w3.org/1999/xlink" width="44.612457" height="51.000000" fill="none" customFrame="#000000">
	<defs>
		<radialGradient id="paint_radial_36" cx="0" cy="0" r="1" gradientUnits="userSpaceOnUse" gradientTransform="matrix(17.8214,26.1422,-37.0707,25.2715,-2.29196,0.906662)">
			<stop stop-color="rgb(255,225.25,148.75)" offset="0" stop-opacity="1" />
			<stop stop-color="rgb(242.25,187.189,89.8344)" offset="0.177083328" stop-opacity="0.876811624" />
			<stop stop-color="rgb(191,122,0)" offset="0.359375" stop-opacity="0.75" />
			<stop stop-color="rgb(191,122,0)" offset="1" stop-opacity="0" />
			<stop stop-color="rgb(15,18,24)" offset="1" stop-opacity="0" />
		</radialGradient>
		<radialGradient id="paint_radial_37" cx="0" cy="0" r="1" gradientUnits="userSpaceOnUse" gradientTransform="matrix(-25.2441,-14.9855,14.9142,-25.1239,122.327,37.0112)">
			<stop stop-color="rgb(255,225,149)" offset="0" stop-opacity="1" />
			<stop stop-color="rgb(242,187,90)" offset="0.166666672" stop-opacity="0.800000012" />
			<stop stop-color="rgb(191,122,0)" offset="0.328125" stop-opacity="0.75" />
			<stop stop-color="rgb(11,11,11)" offset="1" stop-opacity="0" />
		</radialGradient>
		<clipPath id="clipPath_25">
			<rect width="24.137781" height="24.137781" x="10.086395" y="13.276367" fill="rgb(255,255,255)" />
		</clipPath>
		<linearGradient id="paint_linear_156" x1="22.1552773" x2="22.1552773" y1="15.2880859" y2="35.4029007" gradientUnits="userSpaceOnUse">
			<stop stop-color="rgb(255,186.294,64.8125)" offset="0" stop-opacity="1" />
			<stop stop-color="rgb(255,251,189)" offset="1" stop-opacity="1" />
		</linearGradient>
	</defs>
	<rect id="17" width="43.749729" height="51.000000" x="0.431366" y="0.000000" />
	<path id="Polygon 19" d="M24.7307 1.35916L41.8986 11.4133C43.3124 12.2412 44.1811 13.7567 44.1811 15.395L44.1811 35.6049C44.1811 37.2433 43.3124 38.7588 41.8986 39.5867L24.7307 49.6408C23.2964 50.4808 21.5212 50.4845 20.0834 49.6504L2.73024 39.5836C1.30724 38.7581 0.431366 37.2374 0.431366 35.5923L0.431366 15.4077C0.431366 13.7626 1.30724 12.2419 2.73024 11.4164L20.0834 1.34958C21.5212 0.51553 23.2964 0.519189 24.7307 1.35916Z" fill="rgb(242.25,187.189,89.8344)" fill-opacity="0.100000001" fill-rule="nonzero" />
	<path id="Polygon 19" d="M44.5652 36.2955C44.5967 36.0675 44.6125 35.8373 44.6125 35.6049L44.6125 15.395C44.6125 15.1626 44.5967 14.9324 44.5652 14.7043C44.5365 14.4965 44.4947 14.2905 44.4399 14.0863C44.3847 13.8809 44.3172 13.6807 44.2374 13.4855C44.1534 13.28 44.0556 13.0801 43.9443 12.8858C43.8333 12.6921 43.7106 12.5074 43.5763 12.3316C43.4478 12.1634 43.3086 12.0033 43.1588 11.8514C43.01 11.7005 42.8529 11.5601 42.6877 11.43C42.5071 11.2879 42.3168 11.1583 42.1166 11.0411L24.9487 0.986931C24.7453 0.867794 24.5356 0.763779 24.3197 0.674885C24.123 0.593887 23.9211 0.525443 23.7141 0.469554C23.5058 0.413324 23.2956 0.370699 23.0836 0.341676C22.8608 0.311193 22.6361 0.295717 22.4093 0.295249C22.1824 0.294782 21.9575 0.309335 21.7347 0.33891C21.5225 0.367058 21.3122 0.408812 21.1037 0.464173C20.8964 0.519227 20.6942 0.586865 20.4971 0.667088C20.2809 0.755073 20.0709 0.858196 19.867 0.976457L2.51379 11.0433C2.31214 11.1602 2.12033 11.2898 1.93838 11.432C1.77222 11.5619 1.61428 11.7022 1.46455 11.8531C1.31395 12.0048 1.17403 12.1648 1.04481 12.3329C0.909234 12.5094 0.785425 12.6949 0.673383 12.8894C0.561356 13.0839 0.463052 13.284 0.378471 13.4898C0.297834 13.686 0.22967 13.8873 0.17398 14.0938C0.118615 14.299 0.0764649 14.5061 0.0475281 14.7149C0.0158441 14.9437 2.08616e-06 15.1746 2.08616e-06 15.4077L2.08616e-06 35.5923C2.11596e-06 35.8254 0.0158404 36.0563 0.0475171 36.285C0.0764542 36.4939 0.118608 36.701 0.17398 36.9062C0.229648 37.1126 0.297781 37.3138 0.378377 37.51C0.462979 37.7158 0.561314 37.916 0.673383 38.1106C0.785504 38.3053 0.909409 38.4909 1.0451 38.6674C1.17424 38.8355 1.31406 38.9953 1.46455 39.1469C1.61411 39.2976 1.77186 39.4378 1.93782 39.5675C2.11994 39.7099 2.31193 39.8396 2.51379 39.9567L19.867 50.0235C20.0709 50.1418 20.281 50.245 20.4972 50.333C20.6943 50.4132 20.8964 50.4808 21.1037 50.5358C21.312 50.5911 21.522 50.6328 21.7339 50.661C21.957 50.6906 22.1821 50.7052 22.4093 50.7048C22.636 50.7043 22.8607 50.6888 23.0833 50.6584C23.2954 50.6293 23.5057 50.5867 23.7141 50.5304C23.9214 50.4745 24.1235 50.4059 24.3204 50.3248C24.5361 50.236 24.7455 50.1321 24.9487 50.0131L42.1166 39.9589C42.3166 39.8418 42.5068 39.7123 42.6872 39.5704C42.8526 39.4402 43.0098 39.2996 43.1588 39.1486C43.3083 38.997 43.4472 38.8373 43.5755 38.6694C43.7101 38.4933 43.833 38.3082 43.9443 38.1142C44.0557 37.9199 44.1534 37.7199 44.2374 37.5144C44.3172 37.3192 44.3847 37.119 44.4399 36.9137C44.4947 36.7095 44.5365 36.5034 44.5652 36.2955ZM41.8986 11.4133L24.7307 1.35916C23.2964 0.519189 21.5212 0.51553 20.0834 1.34958L2.73024 11.4164C1.30724 12.2419 0.431366 13.7626 0.431366 15.4077L0.431366 35.5923C0.431366 37.2374 1.30724 38.7581 2.73024 39.5836L20.0834 49.6504C21.5212 50.4845 23.2964 50.4808 24.7307 49.6408L41.8986 39.5867C43.3124 38.7588 44.1811 37.2433 44.1811 35.6049L44.1811 15.395C44.1811 13.7567 43.3124 12.2412 41.8986 11.4133Z" fill="url(#paint_radial_36)" fill-rule="evenodd" />
	<path id="Polygon 19" d="M44.5652 36.2955C44.5967 36.0675 44.6125 35.8373 44.6125 35.6049L44.6125 15.395C44.6125 15.1626 44.5967 14.9324 44.5652 14.7043C44.5365 14.4965 44.4947 14.2905 44.4399 14.0863C44.3847 13.8809 44.3172 13.6807 44.2374 13.4855C44.1534 13.28 44.0556 13.0801 43.9443 12.8858C43.8333 12.6921 43.7106 12.5074 43.5763 12.3316C43.4478 12.1634 43.3086 12.0033 43.1588 11.8514C43.01 11.7005 42.8529 11.5601 42.6877 11.43C42.5071 11.2879 42.3168 11.1583 42.1166 11.0411L24.9487 0.986931C24.7453 0.867794 24.5356 0.763779 24.3197 0.674885C24.123 0.593887 23.9211 0.525443 23.7141 0.469554C23.5058 0.413324 23.2956 0.370699 23.0836 0.341676C22.8608 0.311193 22.6361 0.295717 22.4093 0.295249C22.1824 0.294782 21.9575 0.309335 21.7347 0.33891C21.5225 0.367058 21.3122 0.408812 21.1037 0.464173C20.8964 0.519227 20.6942 0.586865 20.4971 0.667088C20.2809 0.755073 20.0709 0.858196 19.867 0.976457L2.51379 11.0433C2.31214 11.1602 2.12033 11.2898 1.93838 11.432C1.77222 11.5619 1.61428 11.7022 1.46455 11.8531C1.31395 12.0048 1.17403 12.1648 1.04481 12.3329C0.909234 12.5094 0.785425 12.6949 0.673383 12.8894C0.561356 13.0839 0.463052 13.284 0.378471 13.4898C0.297834 13.686 0.22967 13.8873 0.17398 14.0938C0.118615 14.299 0.0764649 14.5061 0.0475281 14.7149C0.0158441 14.9437 2.08616e-06 15.1746 2.08616e-06 15.4077L2.08616e-06 35.5923C2.11596e-06 35.8254 0.0158404 36.0563 0.0475171 36.285C0.0764542 36.4939 0.118608 36.701 0.17398 36.9062C0.229648 37.1126 0.297781 37.3138 0.378377 37.51C0.462979 37.7158 0.561314 37.916 0.673383 38.1106C0.785504 38.3053 0.909409 38.4909 1.0451 38.6674C1.17424 38.8355 1.31406 38.9953 1.46455 39.1469C1.61411 39.2976 1.77186 39.4378 1.93782 39.5675C2.11994 39.7099 2.31193 39.8396 2.51379 39.9567L19.867 50.0235C20.0709 50.1418 20.281 50.245 20.4972 50.333C20.6943 50.4132 20.8964 50.4808 21.1037 50.5358C21.312 50.5911 21.522 50.6328 21.7339 50.661C21.957 50.6906 22.1821 50.7052 22.4093 50.7048C22.636 50.7043 22.8607 50.6888 23.0833 50.6584C23.2954 50.6293 23.5057 50.5867 23.7141 50.5304C23.9214 50.4745 24.1235 50.4059 24.3204 50.3248C24.5361 50.236 24.7455 50.1321 24.9487 50.0131L42.1166 39.9589C42.3166 39.8418 42.5068 39.7123 42.6872 39.5704C42.8526 39.4402 43.0098 39.2996 43.1588 39.1486C43.3083 38.997 43.4472 38.8373 43.5755 38.6694C43.7101 38.4933 43.833 38.3082 43.9443 38.1142C44.0557 37.9199 44.1534 37.7199 44.2374 37.5144C44.3172 37.3192 44.3847 37.119 44.4399 36.9137C44.4947 36.7095 44.5365 36.5034 44.5652 36.2955ZM41.8986 11.4133L24.7307 1.35916C23.2964 0.519189 21.5212 0.51553 20.0834 1.34958L2.73024 11.4164C1.30724 12.2419 0.431366 13.7626 0.431366 15.4077L0.431366 35.5923C0.431366 37.2374 1.30724 38.7581 2.73024 39.5836L20.0834 49.6504C21.5212 50.4845 23.2964 50.4808 24.7307 49.6408L41.8986 39.5867C43.3124 38.7588 44.1811 37.2433 44.1811 35.6049L44.1811 15.395C44.1811 13.7567 43.3124 12.2412 41.8986 11.4133Z" fill="url(#paint_radial_37)" fill-rule="evenodd" />
	<g id="akar-icons:linkedin-v2-fill" clip-path="url(#clipPath_25)" customFrame="url(#clipPath_25)">
		<rect id="akar-icons:linkedin-v2-fill" width="24.137781" height="24.137781" x="10.086395" y="13.276367" fill="rgb(255,255,255)" fill-opacity="0" />
		<path id="Vector" d="M19.5695 22.2971L23.3048 22.2971L23.3048 24.1577C23.8429 23.0876 25.2228 22.1261 27.2956 22.1261C31.2693 22.1261 32.2127 24.2563 32.2127 28.1646L32.2127 35.4029L28.1897 35.4029L28.1897 29.0547C28.1897 26.829 27.6517 25.5738 26.2818 25.5738C24.382 25.5738 23.5925 26.9265 23.5925 29.0537L23.5925 35.4029L19.5695 35.4029L19.5695 22.2971ZM12.6711 35.2319L16.6941 35.2319L16.6941 22.1261L12.6711 22.1261L12.6711 35.2319ZM17.2704 17.8527C17.2705 18.1899 17.2037 18.5238 17.0737 18.8349C16.9436 19.146 16.7531 19.4282 16.5131 19.6651C16.0267 20.1485 15.3683 20.419 14.6826 20.4174C13.9981 20.4169 13.3413 20.147 12.8542 19.6661C12.615 19.4284 12.4251 19.1459 12.2953 18.8348C12.1656 18.5236 12.0985 18.1899 12.0979 17.8527C12.0979 17.1718 12.3694 16.5201 12.8552 16.0394C13.3419 15.5578 13.999 15.2878 14.6836 15.2881C15.3695 15.2881 16.0273 15.5586 16.5131 16.0394C16.9978 16.5201 17.2704 17.1718 17.2704 17.8527Z" fill="url(#paint_linear_156)" fill-opacity="0.876811624" fill-rule="evenodd" />
	</g>
</svg>
