<svg viewBox="0 0 209.21 210.211" xmlns="http://www.w3.org/2000/svg" xmlns:xlink="http://www.w3.org/1999/xlink" width="209.209656" height="210.210693" fill="none" customFrame="#000000">
	<defs>
		<radialGradient id="paint_radial_4" cx="0" cy="0" r="1" gradientUnits="userSpaceOnUse" gradientTransform="matrix(73.4558,107.752,-152.797,104.163,2.78946,3.73708)">
			<stop stop-color="rgb(255,225.25,148.75)" offset="0" stop-opacity="1" />
			<stop stop-color="rgb(242.25,187.189,89.8344)" offset="0.177083328" stop-opacity="0.876811624" />
			<stop stop-color="rgb(191,122,0)" offset="0.359375" stop-opacity="0.75" />
			<stop stop-color="rgb(191,122,0)" offset="1" stop-opacity="0" />
			<stop stop-color="rgb(15,18,24)" offset="1" stop-opacity="0" />
		</radialGradient>
		<radialGradient id="paint_radial_5" cx="0" cy="0" r="1" gradientUnits="userSpaceOnUse" gradientTransform="matrix(-88.0103,-50.3763,50.1364,-87.5912,192.911,155.277)">
			<stop stop-color="rgb(255,225,149)" offset="0" stop-opacity="1" />
			<stop stop-color="rgb(242,187,90)" offset="0.166666672" stop-opacity="0.800000012" />
			<stop stop-color="rgb(191,122,0)" offset="0.328125" stop-opacity="0.75" />
			<stop stop-color="rgb(11,11,11)" offset="1" stop-opacity="0" />
		</radialGradient>
		<clipPath id="clipPath_4">
			<rect width="135.000000" height="135.000000" x="37.069885" y="38.000000" fill="rgb(255,255,255)" />
		</clipPath>
		<linearGradient id="paint_linear_25" x1="108.147308" x2="108.147308" y1="66.3212891" y2="91.4972763" gradientUnits="userSpaceOnUse">
			<stop stop-color="rgb(255,186.294,64.8125)" offset="0" stop-opacity="1" />
			<stop stop-color="rgb(255,251,189)" offset="1" stop-opacity="1" />
		</linearGradient>
		<linearGradient id="paint_linear_26" x1="112.945602" x2="112.945602" y1="80.3078613" y2="83.1051865" gradientUnits="userSpaceOnUse">
			<stop stop-color="rgb(255,186.294,64.8125)" offset="0" stop-opacity="1" />
			<stop stop-color="rgb(255,251,189)" offset="1" stop-opacity="1" />
		</linearGradient>
		<linearGradient id="paint_linear_27" x1="127.316399" x2="127.316399" y1="105.173584" y2="147.745193" gradientUnits="userSpaceOnUse">
			<stop stop-color="rgb(255,186.294,64.8125)" offset="0" stop-opacity="1" />
			<stop stop-color="rgb(255,251,189)" offset="1" stop-opacity="1" />
		</linearGradient>
		<linearGradient id="paint_linear_28" x1="81.7919769" x2="81.7919769" y1="105.173096" y2="147.748322" gradientUnits="userSpaceOnUse">
			<stop stop-color="rgb(255,186.294,64.8125)" offset="0" stop-opacity="1" />
			<stop stop-color="rgb(255,251,189)" offset="1" stop-opacity="1" />
		</linearGradient>
		<linearGradient id="paint_linear_29" x1="63.9924736" x2="63.9924736" y1="63.5239258" y2="66.3212509" gradientUnits="userSpaceOnUse">
			<stop stop-color="rgb(255,186.294,64.8125)" offset="0" stop-opacity="1" />
			<stop stop-color="rgb(255,251,189)" offset="1" stop-opacity="1" />
		</linearGradient>
		<linearGradient id="paint_linear_30" x1="69.5870819" x2="69.5870819" y1="70.5170898" y2="73.314415" gradientUnits="userSpaceOnUse">
			<stop stop-color="rgb(255,186.294,64.8125)" offset="0" stop-opacity="1" />
			<stop stop-color="rgb(255,251,189)" offset="1" stop-opacity="1" />
		</linearGradient>
		<linearGradient id="paint_linear_31" x1="66.7897797" x2="66.7897797" y1="92.895752" y2="95.6930771" gradientUnits="userSpaceOnUse">
			<stop stop-color="rgb(255,186.294,64.8125)" offset="0" stop-opacity="1" />
			<stop stop-color="rgb(255,251,189)" offset="1" stop-opacity="1" />
		</linearGradient>
		<linearGradient id="paint_linear_32" x1="70.9857635" x2="70.9857635" y1="83.1051025" y2="85.9024277" gradientUnits="userSpaceOnUse">
			<stop stop-color="rgb(255,186.294,64.8125)" offset="0" stop-opacity="1" />
			<stop stop-color="rgb(255,251,189)" offset="1" stop-opacity="1" />
		</linearGradient>
		<linearGradient id="paint_linear_33" x1="82.1750946" x2="82.1750946" y1="69.1185303" y2="71.9158554" gradientUnits="userSpaceOnUse">
			<stop stop-color="rgb(255,186.294,64.8125)" offset="0" stop-opacity="1" />
			<stop stop-color="rgb(255,251,189)" offset="1" stop-opacity="1" />
		</linearGradient>
		<linearGradient id="paint_linear_34" x1="87.7696991" x2="87.7696991" y1="76.1118164" y2="78.9091415" gradientUnits="userSpaceOnUse">
			<stop stop-color="rgb(255,186.294,64.8125)" offset="0" stop-opacity="1" />
			<stop stop-color="rgb(255,251,189)" offset="1" stop-opacity="1" />
		</linearGradient>
		<linearGradient id="paint_linear_35" x1="136.722946" x2="136.722946" y1="70.5170898" y2="73.314415" gradientUnits="userSpaceOnUse">
			<stop stop-color="rgb(255,186.294,64.8125)" offset="0" stop-opacity="1" />
			<stop stop-color="rgb(255,251,189)" offset="1" stop-opacity="1" />
		</linearGradient>
		<linearGradient id="paint_linear_36" x1="128.330917" x2="128.330917" y1="63.5239258" y2="66.3212509" gradientUnits="userSpaceOnUse">
			<stop stop-color="rgb(255,186.294,64.8125)" offset="0" stop-opacity="1" />
			<stop stop-color="rgb(255,251,189)" offset="1" stop-opacity="1" />
		</linearGradient>
		<linearGradient id="paint_linear_37" x1="142.317551" x2="142.317551" y1="83.1051025" y2="85.9024277" gradientUnits="userSpaceOnUse">
			<stop stop-color="rgb(255,186.294,64.8125)" offset="0" stop-opacity="1" />
			<stop stop-color="rgb(255,251,189)" offset="1" stop-opacity="1" />
		</linearGradient>
		<linearGradient id="paint_linear_38" x1="145.114914" x2="145.114914" y1="102.686279" y2="105.483604" gradientUnits="userSpaceOnUse">
			<stop stop-color="rgb(255,186.294,64.8125)" offset="0" stop-opacity="1" />
			<stop stop-color="rgb(255,251,189)" offset="1" stop-opacity="1" />
		</linearGradient>
		<linearGradient id="paint_linear_39" x1="80.9816284" x2="80.9816284" y1="84.5036621" y2="102.686356" gradientUnits="userSpaceOnUse">
			<stop stop-color="rgb(255,186.294,64.8125)" offset="0" stop-opacity="1" />
			<stop stop-color="rgb(255,251,189)" offset="1" stop-opacity="1" />
		</linearGradient>
		<linearGradient id="paint_linear_40" x1="130.923508" x2="130.923508" y1="84.5039062" y2="102.6866" gradientUnits="userSpaceOnUse">
			<stop stop-color="rgb(255,186.294,64.8125)" offset="0" stop-opacity="1" />
			<stop stop-color="rgb(255,251,189)" offset="1" stop-opacity="1" />
		</linearGradient>
	</defs>
	<rect id="Frame 5" width="209.209671" height="210.210678" x="0.000000" y="0.000000" />
	<path id="Polygon 6" d="M185.72 47.0558C191.585 50.4584 195.195 56.7263 195.195 63.5071L195.195 146.704C195.195 153.484 191.585 159.752 185.72 163.155L114.148 204.674C108.247 208.098 100.963 208.098 95.0612 204.674L23.4899 163.155C17.6245 159.752 14.0144 153.484 14.0144 146.704L14.0144 63.5071C14.0144 56.7263 17.6245 50.4584 23.4898 47.0558L95.0612 5.53636C100.963 2.11265 108.247 2.11265 114.148 5.53636L185.72 47.0558Z" fill="rgb(242.25,187.189,89.8344)" fill-opacity="0.100000001" fill-rule="evenodd" />
	<path id="Polygon 6" d="M188.982 47.1193C188.233 46.5336 187.443 45.9998 186.612 45.5179L115.041 3.99842C114.204 3.5131 113.342 3.08962 112.455 2.72798C111.646 2.39803 110.816 2.11955 109.964 1.89256C109.108 1.66423 108.244 1.4916 107.373 1.37468C106.458 1.25195 105.536 1.19059 104.605 1.19059C103.674 1.19059 102.751 1.25195 101.837 1.37468C100.966 1.4916 100.102 1.66423 99.2454 1.89256C98.3941 2.11957 97.5637 2.39806 96.7544 2.72804C95.8674 3.08967 95.0056 3.51313 94.1691 3.99842L22.5977 45.5179C21.7668 45.9999 20.9765 46.5338 20.2267 47.1196C19.5416 47.655 18.8903 48.2337 18.2729 48.8558C17.6524 49.481 17.076 50.14 16.5435 50.8328C15.9844 51.5603 15.4739 52.3251 15.0119 53.1272C14.55 53.9292 14.1447 54.7544 13.796 55.603C13.4638 56.4113 13.183 57.2408 12.9535 58.0914C12.7253 58.9373 12.5515 59.7908 12.4323 60.6519C12.3017 61.5946 12.2364 62.5463 12.2364 63.5071L12.2364 146.704C12.2364 147.665 12.3017 148.617 12.4324 149.56C12.5517 150.421 12.7254 151.274 12.9535 152.119C13.1831 152.97 13.4641 153.8 13.7965 154.609C14.1451 155.457 14.5502 156.282 15.0119 157.083C15.4739 157.886 15.9845 158.65 16.5436 159.378C17.076 160.071 17.6525 160.73 18.2729 161.355C18.8899 161.977 19.5406 162.555 20.2252 163.09C20.9754 163.676 21.7662 164.21 22.5977 164.693L94.1691 206.212C95.0061 206.698 95.8684 207.122 96.7559 207.483C97.5648 207.813 98.3946 208.091 99.2454 208.318C100.102 208.546 100.965 208.719 101.836 208.836C102.751 208.959 103.674 209.02 104.605 209.02C105.536 209.02 106.459 208.959 107.373 208.836C108.244 208.719 109.108 208.546 109.964 208.318C110.815 208.091 111.645 207.813 112.454 207.483C113.341 207.122 114.204 206.698 115.041 206.212L186.612 164.693C187.443 164.211 188.234 163.677 188.984 163.09C189.669 162.555 190.32 161.977 190.937 161.355C191.556 160.731 192.132 160.072 192.664 159.38C193.224 158.652 193.735 157.887 194.198 157.083C194.659 156.282 195.064 155.457 195.413 154.609C195.746 153.8 196.027 152.97 196.256 152.119C196.484 151.274 196.658 150.421 196.777 149.56C196.908 148.617 196.973 147.665 196.973 146.704L196.973 63.5071C196.973 62.5464 196.908 61.5948 196.777 60.6522C196.658 59.7911 196.484 58.9374 196.256 58.0913C196.026 57.2395 195.745 56.4089 195.412 55.5994C195.064 54.7522 194.659 53.9281 194.198 53.1272C193.735 52.3241 193.224 51.5584 192.664 50.8301C192.132 50.1382 191.556 49.4801 190.937 48.8558C190.319 48.2336 189.668 47.6547 188.982 47.1193ZM195.195 63.5071C195.195 56.7263 191.585 50.4584 185.72 47.0558L114.148 5.53636C108.247 2.11265 100.963 2.11265 95.0612 5.53636L23.4898 47.0558C17.6245 50.4584 14.0144 56.7263 14.0144 63.5071L14.0144 146.704C14.0144 153.484 17.6245 159.752 23.4899 163.155L95.0612 204.674C100.963 208.098 108.247 208.098 114.148 204.674L185.72 163.155C191.585 159.752 195.195 153.484 195.195 146.704L195.195 63.5071Z" fill="url(#paint_radial_4)" fill-rule="evenodd" />
	<path id="Polygon 6" d="M188.982 47.1193C188.233 46.5336 187.443 45.9998 186.612 45.5179L115.041 3.99842C114.204 3.5131 113.342 3.08962 112.455 2.72798C111.646 2.39803 110.816 2.11955 109.964 1.89256C109.108 1.66423 108.244 1.4916 107.373 1.37468C106.458 1.25195 105.536 1.19059 104.605 1.19059C103.674 1.19059 102.751 1.25195 101.837 1.37468C100.966 1.4916 100.102 1.66423 99.2454 1.89256C98.3941 2.11957 97.5637 2.39806 96.7544 2.72804C95.8674 3.08967 95.0056 3.51313 94.1691 3.99842L22.5977 45.5179C21.7668 45.9999 20.9765 46.5338 20.2267 47.1196C19.5416 47.655 18.8903 48.2337 18.2729 48.8558C17.6524 49.481 17.076 50.14 16.5435 50.8328C15.9844 51.5603 15.4739 52.3251 15.0119 53.1272C14.55 53.9292 14.1447 54.7544 13.796 55.603C13.4638 56.4113 13.183 57.2408 12.9535 58.0914C12.7253 58.9373 12.5515 59.7908 12.4323 60.6519C12.3017 61.5946 12.2364 62.5463 12.2364 63.5071L12.2364 146.704C12.2364 147.665 12.3017 148.617 12.4324 149.56C12.5517 150.421 12.7254 151.274 12.9535 152.119C13.1831 152.97 13.4641 153.8 13.7965 154.609C14.1451 155.457 14.5502 156.282 15.0119 157.083C15.4739 157.886 15.9845 158.65 16.5436 159.378C17.076 160.071 17.6525 160.73 18.2729 161.355C18.8899 161.977 19.5406 162.555 20.2252 163.09C20.9754 163.676 21.7662 164.21 22.5977 164.693L94.1691 206.212C95.0061 206.698 95.8684 207.122 96.7559 207.483C97.5648 207.813 98.3946 208.091 99.2454 208.318C100.102 208.546 100.965 208.719 101.836 208.836C102.751 208.959 103.674 209.02 104.605 209.02C105.536 209.02 106.459 208.959 107.373 208.836C108.244 208.719 109.108 208.546 109.964 208.318C110.815 208.091 111.645 207.813 112.454 207.483C113.341 207.122 114.204 206.698 115.041 206.212L186.612 164.693C187.443 164.211 188.234 163.677 188.984 163.09C189.669 162.555 190.32 161.977 190.937 161.355C191.556 160.731 192.132 160.072 192.664 159.38C193.224 158.652 193.735 157.887 194.198 157.083C194.659 156.282 195.064 155.457 195.413 154.609C195.746 153.8 196.027 152.97 196.256 152.119C196.484 151.274 196.658 150.421 196.777 149.56C196.908 148.617 196.973 147.665 196.973 146.704L196.973 63.5071C196.973 62.5464 196.908 61.5948 196.777 60.6522C196.658 59.7911 196.484 58.9374 196.256 58.0913C196.026 57.2395 195.745 56.4089 195.412 55.5994C195.064 54.7522 194.659 53.9281 194.198 53.1272C193.735 52.3241 193.224 51.5584 192.664 50.8301C192.132 50.1382 191.556 49.4801 190.937 48.8558C190.319 48.2336 189.668 47.6547 188.982 47.1193ZM195.195 63.5071C195.195 56.7263 191.585 50.4584 185.72 47.0558L114.148 5.53636C108.247 2.11265 100.963 2.11265 95.0612 5.53636L23.4898 47.0558C17.6245 50.4584 14.0144 56.7263 14.0144 63.5071L14.0144 146.704C14.0144 153.484 17.6245 159.752 23.4899 163.155L95.0612 204.674C100.963 208.098 108.247 208.098 114.148 204.674L185.72 163.155C191.585 159.752 195.195 153.484 195.195 146.704L195.195 63.5071Z" fill="url(#paint_radial_5)" fill-rule="evenodd" />
	<g id="Frame 20" clip-path="url(#clipPath_4)" customFrame="url(#clipPath_4)">
		<rect id="Frame 20" width="135.000000" height="135.000000" x="37.069885" y="38.000000" />
		<g id="Group">
			<path id="Vector" d="M103.155 91.4971L111.547 91.4971C116.175 91.4971 119.939 87.7332 119.939 83.1051C119.939 80.9846 119.142 79.0503 117.841 77.5723C118.802 76.9179 120.041 76.3135 121.541 76.0968C122.321 75.982 123.127 75.9838 123.942 76.0981L124.329 73.3289C123.248 73.1766 122.171 73.1778 121.139 73.3289C119.599 73.5512 118.277 74.0769 117.189 74.6857C117.438 73.9908 117.781 73.3526 118.236 72.7907C119.405 71.329 120.935 70.7028 121.743 70.4592L120.935 67.7805C119.567 68.1932 117.612 69.0936 116.055 71.0393C115.105 72.2169 114.492 73.5962 114.183 75.1429C113.504 74.9175 112.786 74.782 112.044 74.7389L112.696 72.792C112.86 72.2868 112.946 71.7605 112.946 71.2304C112.946 68.5241 110.737 66.3213 108.022 66.3213C106.646 66.3213 105.404 66.8945 104.512 67.8111C103.619 66.8945 102.377 66.3213 101.001 66.3213C98.2869 66.3213 96.0772 68.5241 96.0772 71.2304C96.0772 71.7605 96.1628 72.2862 96.332 72.7926L97.6607 76.7776C96.2246 78.0264 95.2198 79.7511 94.8902 81.7079L91.9655 81.7079L91.9655 84.5052L94.889 84.5052C95.5589 88.4664 99.005 91.4973 103.155 91.4973L103.155 91.4971ZM111.547 77.5105C114.632 77.5105 117.142 80.0199 117.142 83.1051C117.142 86.1903 114.632 88.6998 111.547 88.6998L109.284 88.6998C108.816 86.4245 108.649 84.1147 108.83 81.8169C108.944 80.3777 109.195 78.9577 109.576 77.5105L111.547 77.5105ZM105.91 71.2302C105.91 70.0651 106.857 69.1185 108.022 69.1185C109.194 69.1185 110.148 70.0651 110.148 71.2302C110.148 71.4613 110.112 71.6892 110.039 71.9058L109.099 74.7131L105.91 74.7131L105.91 71.2302ZM103.9 77.5105L106.692 77.5105C106.369 78.8754 106.15 80.2266 106.04 81.5971C105.853 83.9692 105.994 86.35 106.428 88.6998L103.6 88.6998C103.133 86.4394 102.968 84.1317 103.151 81.8182C103.266 80.3789 103.517 78.9596 103.9 77.5105ZM101.001 69.1185C102.165 69.1185 103.112 70.0651 103.112 71.2302L103.112 74.7157C102.055 74.7213 101.045 74.928 100.113 75.292L98.9863 71.9071C98.912 71.6873 98.8758 71.4594 98.8758 71.2302C98.8752 70.0651 99.8287 69.1185 101.001 69.1185ZM100.913 77.9874C100.649 79.1975 100.458 80.4045 100.361 81.5971C100.191 83.7675 100.285 85.9342 100.625 88.0684C98.8147 87.1399 97.5602 85.2754 97.5602 83.1049C97.5602 80.8183 98.942 78.8529 100.913 77.9874Z" fill="url(#paint_linear_25)" fill-opacity="0.876811624" fill-rule="nonzero" />
			<path id="Vector" d="M111.547 80.3079L114.344 80.3079L114.344 83.1052L111.547 83.1052L111.547 80.3079Z" fill="url(#paint_linear_26)" fill-opacity="0.876811624" fill-rule="nonzero" />
			<path id="Vector" d="M146.514 122.197C146.514 120.803 145.822 119.505 144.665 118.724C143.508 117.944 142.045 117.792 140.764 118.312L137.829 119.484L141.209 117.233C142.338 116.478 143.033 115.218 143.07 113.861C143.108 112.502 142.484 111.201 141.393 110.378L136.575 106.775C135.484 105.95 134.053 105.709 132.758 106.133C131.453 106.559 130.437 107.598 130.041 108.915L128.331 114.601L128.331 109.358C128.331 107.998 127.697 106.763 126.593 105.966C125.501 105.178 124.091 104.963 122.814 105.387L117.889 107.023C116.555 107.468 115.54 108.546 115.173 109.908C114.805 111.267 115.139 112.707 116.065 113.761L120.279 118.574C120.263 118.595 120.247 118.615 120.232 118.638L115.855 115.357C114.711 114.499 113.221 114.283 111.874 114.785C110.532 115.285 109.548 116.418 109.245 117.809L108.224 122.38C107.925 123.709 108.272 125.056 109.179 126.076C109.978 126.978 111.126 127.486 112.311 127.486C112.453 127.486 112.593 127.48 112.736 127.464L116.415 127.096L113.653 128.018C112.323 128.46 111.306 129.531 110.936 130.879C110.563 132.229 110.889 133.67 111.802 134.728L114.865 138.312C115.668 139.248 116.837 139.779 118.054 139.779C118.194 139.779 118.333 139.772 118.473 139.758C119.838 139.62 121.053 138.822 121.723 137.619L123.518 134.388L122.603 137.444C122.199 138.783 122.488 140.228 123.379 141.31C124.182 142.287 125.37 142.842 126.614 142.842C126.753 142.842 126.89 142.835 127.029 142.82L132.978 142.232C134.342 142.093 135.515 141.335 136.199 140.153C136.882 138.97 136.953 137.573 136.39 136.318L134.016 131.092C138.109 135.876 140.977 141.567 142.352 147.745L145.084 147.137C143.743 141.113 141.077 135.521 137.309 130.698L140.883 131.996C141.352 132.17 141.84 132.254 142.325 132.254C143.169 132.254 144.004 131.999 144.714 131.504C145.841 130.721 146.514 129.433 146.514 128.058L146.514 122.197ZM118.163 111.917C117.851 111.563 117.745 111.097 117.87 110.637C117.994 110.177 118.322 109.826 118.771 109.676L123.695 108.04C124.123 107.896 124.583 107.965 124.954 108.234C125.323 108.499 125.533 108.909 125.533 109.358L125.533 115.4C124.362 115.598 123.273 116.032 122.319 116.663L118.163 111.917ZM112.451 124.681C112.009 124.726 111.57 124.56 111.268 124.219C110.967 123.88 110.851 123.434 110.951 122.992L111.973 118.412C112.075 117.942 112.395 117.575 112.847 117.408C113.306 117.24 113.787 117.309 114.174 117.596L118.922 121.156C118.675 121.949 118.54 122.792 118.54 123.666C118.54 123.802 118.553 123.935 118.561 124.069L112.451 124.681ZM119.276 136.258C119.048 136.667 118.653 136.928 118.19 136.975C117.745 137.015 117.289 136.846 116.987 136.492L113.923 132.907C113.611 132.546 113.504 132.078 113.631 131.624C113.757 131.169 114.085 130.822 114.535 130.673L120.274 128.755C120.856 129.516 121.562 130.175 122.367 130.699L119.276 136.258ZM121.337 123.666C121.337 120.581 123.846 118.072 126.932 118.072C130.017 118.072 132.526 120.581 132.526 123.666C132.526 126.751 130.017 129.261 126.932 129.261C123.846 129.261 121.337 126.751 121.337 123.666ZM133.774 138.755C133.546 139.151 133.151 139.404 132.696 139.45L126.751 140.038C126.287 140.082 125.84 139.9 125.537 139.534C125.236 139.169 125.143 138.702 125.279 138.251L127.134 132.049C128.501 132.016 129.789 131.663 130.921 131.049L133.839 137.471C134.025 137.891 134.003 138.358 133.774 138.755ZM133.773 118.822C132.996 117.728 131.967 116.83 130.768 116.211L132.719 109.718C132.853 109.274 133.182 108.935 133.623 108.791C134.054 108.65 134.516 108.725 134.892 109.009L139.711 112.613C140.082 112.892 140.284 113.318 140.272 113.781C140.258 114.241 140.032 114.652 139.653 114.905L133.773 118.822ZM143.716 128.058C143.716 128.523 143.496 128.944 143.114 129.211C142.737 129.474 142.275 129.533 141.844 129.373L134.717 126.783C135.104 125.817 135.324 124.768 135.324 123.666C135.324 123.609 135.317 123.555 135.315 123.501L141.807 120.906C142.242 120.73 142.711 120.782 143.1 121.044C143.492 121.306 143.716 121.727 143.716 122.197L143.716 128.058Z" fill="url(#paint_linear_27)" fill-opacity="0.876811624" fill-rule="nonzero" />
			<path id="Vector" d="M64.394 131.507C65.1058 132.002 65.9407 132.258 66.7842 132.258C67.2681 132.258 67.7533 132.174 68.2178 132.002L71.8026 130.698C68.0331 135.522 65.3674 141.114 64.0244 147.14L66.7562 147.748C68.1268 141.59 70.9827 135.917 75.0863 131.11L72.7167 136.325C72.156 137.576 72.226 138.97 72.9097 140.154C73.5921 141.336 74.7673 142.094 76.1348 142.234L82.0791 142.821C82.219 142.835 82.3564 142.842 82.4944 142.842C83.7407 142.842 84.9265 142.287 85.7294 141.311C86.6204 140.228 86.9101 138.783 86.5068 137.448L85.592 134.39L87.3866 137.621C88.0566 138.821 89.2723 139.619 90.636 139.756C90.7758 139.77 90.9145 139.777 91.0543 139.777C92.2713 139.777 93.4402 139.246 94.2444 138.309L97.3047 134.732C98.2207 133.669 98.5466 132.227 98.1732 130.879C97.8011 129.531 96.7858 128.461 95.4571 128.018L92.6935 127.096L96.3693 127.463C96.5117 127.479 96.6534 127.486 96.7958 127.486C97.9847 127.486 99.1317 126.977 99.9303 126.076C100.837 125.056 101.183 123.708 100.886 122.382L99.866 117.815C99.5594 116.418 98.5766 115.285 97.2334 114.784C95.8891 114.282 94.4011 114.496 93.2529 115.357L88.8797 118.638C88.864 118.616 88.8472 118.594 88.8322 118.573L93.045 113.761C93.9722 112.707 94.305 111.266 93.9385 109.907C93.5707 108.546 92.5567 107.468 91.2211 107.023L86.2976 105.386C85.0232 104.963 83.6108 105.178 82.5169 105.965C81.4105 106.765 80.7767 108 80.7767 109.359L80.7767 114.603L79.0677 108.916C78.6719 107.599 77.6553 106.56 76.3516 106.135C75.0522 105.711 73.6243 105.952 72.5402 106.773L67.7092 110.384C66.6239 111.204 65.9983 112.505 66.0376 113.864C66.0751 115.221 66.7707 116.481 67.9021 117.239L71.2782 119.487L68.3511 118.317C67.0617 117.794 65.5987 117.946 64.4448 118.727C63.2853 119.506 62.5941 120.804 62.5941 122.198L62.5941 128.059C62.5941 129.434 63.2665 130.722 64.3943 131.508L64.394 131.507ZM83.5693 139.534C83.2671 139.902 82.8225 140.082 82.3554 140.038L76.4155 139.45C75.9566 139.402 75.5626 139.149 75.334 138.753C75.1049 138.357 75.0812 137.889 75.2666 137.475L78.187 131.047C79.3184 131.66 80.6066 132.015 81.9735 132.047L83.8311 138.252C83.9641 138.702 83.8704 139.169 83.5694 139.534L83.5693 139.534ZM94.9296 117.595C95.3186 117.304 95.7969 117.237 96.2571 117.405C96.7092 117.574 97.0289 117.939 97.1325 118.416L98.1534 122.993C98.2527 123.432 98.1366 123.878 97.8362 124.216C97.534 124.556 97.1088 124.728 96.6486 124.678L90.545 124.067C90.5531 123.934 90.5668 123.801 90.5668 123.666C90.5668 122.792 90.4313 121.948 90.1822 121.155L94.9296 117.595ZM88.8322 128.754L94.5724 130.672C95.0213 130.821 95.3516 131.168 95.4759 131.622C95.602 132.078 95.4952 132.547 95.1805 132.911L92.1202 136.49C91.8155 136.845 91.3591 137.02 90.9158 136.975C90.4531 136.929 90.0572 136.667 89.8305 136.262L86.741 130.698C87.5459 130.174 88.2509 129.513 88.8322 128.754ZM83.5736 109.358C83.5736 108.909 83.7834 108.5 84.1512 108.235C84.5202 107.968 84.9822 107.898 85.4112 108.041L90.3347 109.677C90.7836 109.827 91.112 110.177 91.2369 110.638C91.3612 111.097 91.255 111.564 90.9416 111.919L86.7875 116.664C85.8334 116.034 84.7438 115.599 83.5731 115.401L83.5736 109.358ZM82.1749 118.072C85.2601 118.072 87.7696 120.581 87.7696 123.666C87.7696 126.752 85.2601 129.261 82.1749 129.261C79.0897 129.261 76.5803 126.752 76.5803 123.666C76.5803 120.581 79.0897 118.072 82.1749 118.072ZM69.4553 114.909C69.0731 114.652 68.8452 114.24 68.8327 113.782C68.8202 113.319 69.0244 112.892 69.3878 112.617L74.22 109.004C74.5865 108.726 75.0492 108.65 75.4813 108.792C75.9221 108.936 76.2518 109.274 76.3848 109.719L78.3361 116.212C77.1372 116.831 76.1081 117.731 75.3314 118.823L69.4553 114.909ZM65.391 122.198C65.391 121.728 65.6145 121.307 66.0066 121.044C66.3938 120.782 66.8671 120.732 67.306 120.91L73.7917 123.502C73.7898 123.556 73.7829 123.61 73.7829 123.666C73.7829 124.77 74.0027 125.821 74.3911 126.787L67.2554 129.375C66.8258 129.535 66.3675 129.472 65.9922 129.212C65.6107 128.945 65.3909 128.526 65.3909 128.059L65.391 122.198Z" fill="url(#paint_linear_28)" fill-opacity="0.876811624" fill-rule="nonzero" />
			<path id="Vector" d="M62.5938 63.5239L65.3911 63.5239L65.3911 66.3213L62.5938 66.3213L62.5938 63.5239Z" fill="url(#paint_linear_29)" fill-opacity="0.876811624" fill-rule="nonzero" />
			<path id="Vector" d="M68.1884 70.5171L70.9857 70.5171L70.9857 73.3144L68.1884 73.3144L68.1884 70.5171Z" fill="url(#paint_linear_30)" fill-opacity="0.876811624" fill-rule="nonzero" />
			<path id="Vector" d="M65.3911 92.8958L68.1884 92.8958L68.1884 95.6931L65.3911 95.6931L65.3911 92.8958Z" fill="url(#paint_linear_31)" fill-opacity="0.876811624" fill-rule="nonzero" />
			<path id="Vector" d="M69.5871 83.1051L72.3844 83.1051L72.3844 85.9024L69.5871 85.9024L69.5871 83.1051Z" fill="url(#paint_linear_32)" fill-opacity="0.876811624" fill-rule="nonzero" />
			<path id="Vector" d="M80.7764 69.1185L83.5738 69.1185L83.5738 71.9159L80.7764 71.9159L80.7764 69.1185Z" fill="url(#paint_linear_33)" fill-opacity="0.876811624" fill-rule="nonzero" />
			<path id="Vector" d="M86.371 76.1118L89.1684 76.1118L89.1684 78.9091L86.371 78.9091L86.371 76.1118Z" fill="url(#paint_linear_34)" fill-opacity="0.876811624" fill-rule="nonzero" />
			<path id="Vector" d="M135.324 70.5171L138.122 70.5171L138.122 73.3144L135.324 73.3144L135.324 70.5171Z" fill="url(#paint_linear_35)" fill-opacity="0.876811624" fill-rule="nonzero" />
			<path id="Vector" d="M126.932 63.5239L129.73 63.5239L129.73 66.3213L126.932 66.3213L126.932 63.5239Z" fill="url(#paint_linear_36)" fill-opacity="0.876811624" fill-rule="nonzero" />
			<path id="Vector" d="M140.919 83.1051L143.716 83.1051L143.716 85.9024L140.919 85.9024L140.919 83.1051Z" fill="url(#paint_linear_37)" fill-opacity="0.876811624" fill-rule="nonzero" />
			<path id="Vector" d="M143.716 102.686L146.514 102.686L146.514 105.484L143.716 105.484L143.716 102.686Z" fill="url(#paint_linear_38)" fill-opacity="0.876811624" fill-rule="nonzero" />
			<path id="Vector" d="M79.3777 102.686C79.7355 102.686 80.0939 102.549 80.3668 102.277L84.5628 98.0808L82.5853 96.1033L80.7765 97.9115L80.7765 94.2943C80.7765 90.438 83.9135 87.301 87.7698 87.301L87.7698 84.5037C82.3724 84.5037 77.9791 88.8958 77.9791 94.2943L77.9791 97.9115L76.171 96.1033L74.1935 98.0808L78.3895 102.277C78.6617 102.549 79.0201 102.686 79.3779 102.686L79.3777 102.686Z" fill="url(#paint_linear_39)" fill-opacity="0.876811624" fill-rule="nonzero" />
			<path id="Vector" d="M124.135 87.3012C127.991 87.3012 131.128 90.4382 131.128 94.2945L131.128 97.9117L129.32 96.1035L127.343 98.081L131.539 102.277C131.811 102.549 132.169 102.687 132.527 102.687C132.885 102.687 133.243 102.549 133.516 102.277L137.712 98.081L135.735 96.1035L133.926 97.9117L133.926 94.2945C133.926 88.896 129.533 84.5039 124.135 84.5039L124.135 87.3012Z" fill="url(#paint_linear_40)" fill-opacity="0.876811624" fill-rule="nonzero" />
		</g>
	</g>
</svg>
