<svg viewBox="0 0 24 24" xmlns="http://www.w3.org/2000/svg" xmlns:xlink="http://www.w3.org/1999/xlink" width="24.000000" height="24.000000" fill="none">
	<defs>
		<clipPath id="clipPath_21">
			<rect width="24.000000" height="24.000000" x="0.000000" y="0.000000" fill="rgb(255,255,255)" />
		</clipPath>
		<linearGradient id="paint_linear_152" x1="11.9999886" x2="11.9999886" y1="3" y2="21" gradientUnits="userSpaceOnUse">
			<stop stop-color="rgb(255,186.294,64.8125)" offset="0" stop-opacity="1" />
			<stop stop-color="rgb(255,251,189)" offset="1" stop-opacity="1" />
		</linearGradient>
	</defs>
	<rect id="notification" width="24.000000" height="24.000000" x="0.000000" y="0.000000" />
	<g id="fluent:alert-16-regular" clip-path="url(#clipPath_21)" customFrame="url(#clipPath_21)">
		<rect id="fluent:alert-16-regular" width="24.000000" height="24.000000" x="0.000000" y="0.000000" fill="rgb(255,255,255)" fill-opacity="0" />
		<path id="Vector" d="M12 3C10.2098 3 8.49289 3.71116 7.22702 4.97703C5.96115 6.2429 5.24999 7.95979 5.24999 9.75L5.24999 13.3515L3.80399 16.9725C3.7587 17.0862 3.74193 17.2093 3.75515 17.331C3.76836 17.4527 3.81116 17.5693 3.87981 17.6706C3.94846 17.772 4.04087 17.855 4.14897 17.9124C4.25707 17.9698 4.37758 17.9999 4.49999 18L8.99999 18C8.99999 19.662 10.338 21 12 21C13.662 21 15 19.662 15 18L19.5 18C19.6224 17.9999 19.7429 17.9698 19.851 17.9124C19.9591 17.855 20.0515 17.772 20.1202 17.6706C20.1888 17.5693 20.2316 17.4527 20.2448 17.331C20.258 17.2093 20.2413 17.0862 20.196 16.9725L18.75 13.35L18.75 9.75C18.75 7.95979 18.0388 6.2429 16.773 4.97703C15.5071 3.71116 13.7902 3 12 3ZM13.5 18C13.5 18.834 12.834 19.5 12 19.5C11.166 19.5 10.5 18.834 10.5 18L13.5 18ZM6.74999 9.75C6.74999 8.35761 7.30311 7.02226 8.28768 6.03769C9.27224 5.05312 10.6076 4.5 12 4.5C13.3924 4.5 14.7277 5.05312 15.7123 6.03769C16.6969 7.02226 17.25 8.35761 17.25 9.75L17.25 13.497C17.2502 13.5921 17.2686 13.6863 17.304 13.7745L18.393 16.5L5.60699 16.5L6.69599 13.7745C6.73142 13.6863 6.74974 13.5921 6.74999 13.497L6.74999 9.75Z" fill="url(#paint_linear_152)" fill-opacity="0.876811624" fill-rule="nonzero" />
	</g>
</svg>
