<svg viewBox="0 0 209.21 210.211" xmlns="http://www.w3.org/2000/svg" xmlns:xlink="http://www.w3.org/1999/xlink" width="209.209656" height="210.210693" fill="none" customFrame="#000000">
	<defs>
		<radialGradient id="paint_radial_6" cx="0" cy="0" r="1" gradientUnits="userSpaceOnUse" gradientTransform="matrix(73.4558,107.752,-152.797,104.163,2.78946,3.73708)">
			<stop stop-color="rgb(255,225.25,148.75)" offset="0" stop-opacity="1" />
			<stop stop-color="rgb(242.25,187.189,89.8344)" offset="0.177083328" stop-opacity="0.876811624" />
			<stop stop-color="rgb(191,122,0)" offset="0.359375" stop-opacity="0.75" />
			<stop stop-color="rgb(191,122,0)" offset="1" stop-opacity="0" />
			<stop stop-color="rgb(15,18,24)" offset="1" stop-opacity="0" />
		</radialGradient>
		<radialGradient id="paint_radial_7" cx="0" cy="0" r="1" gradientUnits="userSpaceOnUse" gradientTransform="matrix(-88.0103,-50.3763,50.1364,-87.5912,192.911,155.277)">
			<stop stop-color="rgb(255,225,149)" offset="0" stop-opacity="1" />
			<stop stop-color="rgb(242,187,90)" offset="0.166666672" stop-opacity="0.800000012" />
			<stop stop-color="rgb(191,122,0)" offset="0.328125" stop-opacity="0.75" />
			<stop stop-color="rgb(11,11,11)" offset="1" stop-opacity="0" />
		</radialGradient>
		<clipPath id="clipPath_5">
			<rect width="135.000000" height="135.000000" x="37.139771" y="38.000000" fill="rgb(255,255,255)" />
		</clipPath>
		<linearGradient id="paint_linear_41" x1="85.0175171" x2="85.0175171" y1="111.079346" y2="147.44458" gradientUnits="userSpaceOnUse">
			<stop stop-color="rgb(255,186.294,64.8125)" offset="0" stop-opacity="1" />
			<stop stop-color="rgb(255,251,189)" offset="1" stop-opacity="1" />
		</linearGradient>
		<linearGradient id="paint_linear_42" x1="78.0509262" x2="78.0509262" y1="85.9031982" y2="90.0994873" gradientUnits="userSpaceOnUse">
			<stop stop-color="rgb(255,186.294,64.8125)" offset="0" stop-opacity="1" />
			<stop stop-color="rgb(255,251,189)" offset="1" stop-opacity="1" />
		</linearGradient>
		<linearGradient id="paint_linear_43" x1="78.0363464" x2="78.0363464" y1="92.8967285" y2="101.288773" gradientUnits="userSpaceOnUse">
			<stop stop-color="rgb(255,186.294,64.8125)" offset="0" stop-opacity="1" />
			<stop stop-color="rgb(255,251,189)" offset="1" stop-opacity="1" />
		</linearGradient>
		<linearGradient id="paint_linear_44" x1="92.037674" x2="92.037674" y1="85.9031982" y2="90.0994873" gradientUnits="userSpaceOnUse">
			<stop stop-color="rgb(255,186.294,64.8125)" offset="0" stop-opacity="1" />
			<stop stop-color="rgb(255,251,189)" offset="1" stop-opacity="1" />
		</linearGradient>
		<linearGradient id="paint_linear_45" x1="92.0424652" x2="92.0424652" y1="92.8967285" y2="101.288727" gradientUnits="userSpaceOnUse">
			<stop stop-color="rgb(255,186.294,64.8125)" offset="0" stop-opacity="1" />
			<stop stop-color="rgb(255,251,189)" offset="1" stop-opacity="1" />
		</linearGradient>
		<linearGradient id="paint_linear_46" x1="85.0430145" x2="85.0430145" y1="63.5239258" y2="108.280655" gradientUnits="userSpaceOnUse">
			<stop stop-color="rgb(255,186.294,64.8125)" offset="0" stop-opacity="1" />
			<stop stop-color="rgb(255,251,189)" offset="1" stop-opacity="1" />
		</linearGradient>
		<linearGradient id="paint_linear_47" x1="128.375946" x2="128.375946" y1="83.1051025" y2="97.0938034" gradientUnits="userSpaceOnUse">
			<stop stop-color="rgb(255,186.294,64.8125)" offset="0" stop-opacity="1" />
			<stop stop-color="rgb(255,251,189)" offset="1" stop-opacity="1" />
		</linearGradient>
		<linearGradient id="paint_linear_48" x1="126.977249" x2="126.977249" y1="111.079346" y2="139.052597" gradientUnits="userSpaceOnUse">
			<stop stop-color="rgb(255,186.294,64.8125)" offset="0" stop-opacity="1" />
			<stop stop-color="rgb(255,251,189)" offset="1" stop-opacity="1" />
		</linearGradient>
		<linearGradient id="paint_linear_49" x1="117.18663" x2="117.18663" y1="99.8901367" y2="102.687462" gradientUnits="userSpaceOnUse">
			<stop stop-color="rgb(255,186.294,64.8125)" offset="0" stop-opacity="1" />
			<stop stop-color="rgb(255,251,189)" offset="1" stop-opacity="1" />
		</linearGradient>
		<linearGradient id="paint_linear_50" x1="122.781235" x2="122.781235" y1="105.484863" y2="108.282188" gradientUnits="userSpaceOnUse">
			<stop stop-color="rgb(255,186.294,64.8125)" offset="0" stop-opacity="1" />
			<stop stop-color="rgb(255,251,189)" offset="1" stop-opacity="1" />
		</linearGradient>
		<linearGradient id="paint_linear_51" x1="124.179916" x2="124.179916" y1="99.8901367" y2="102.687462" gradientUnits="userSpaceOnUse">
			<stop stop-color="rgb(255,186.294,64.8125)" offset="0" stop-opacity="1" />
			<stop stop-color="rgb(255,251,189)" offset="1" stop-opacity="1" />
		</linearGradient>
		<linearGradient id="paint_linear_52" x1="129.774582" x2="129.774582" y1="105.484863" y2="108.282188" gradientUnits="userSpaceOnUse">
			<stop stop-color="rgb(255,186.294,64.8125)" offset="0" stop-opacity="1" />
			<stop stop-color="rgb(255,251,189)" offset="1" stop-opacity="1" />
		</linearGradient>
		<linearGradient id="paint_linear_53" x1="126.977135" x2="126.977135" y1="119.471436" y2="133.458069" gradientUnits="userSpaceOnUse">
			<stop stop-color="rgb(255,186.294,64.8125)" offset="0" stop-opacity="1" />
			<stop stop-color="rgb(255,251,189)" offset="1" stop-opacity="1" />
		</linearGradient>
	</defs>
	<rect id="Frame 6" width="209.209671" height="210.210678" x="0.000000" y="0.000000" />
	<path id="Polygon 6" d="M185.72 47.0558C191.585 50.4584 195.195 56.7263 195.195 63.5071L195.195 146.704C195.195 153.484 191.585 159.752 185.72 163.155L114.148 204.674C108.247 208.098 100.963 208.098 95.0612 204.674L23.4899 163.155C17.6245 159.752 14.0144 153.484 14.0144 146.704L14.0144 63.5071C14.0144 56.7263 17.6245 50.4584 23.4898 47.0558L95.0612 5.53636C100.963 2.11265 108.247 2.11265 114.148 5.53636L185.72 47.0558Z" fill="rgb(242.25,187.189,89.8344)" fill-opacity="0.100000001" fill-rule="evenodd" />
	<path id="Polygon 6" d="M188.982 47.1193C188.233 46.5336 187.443 45.9998 186.612 45.5179L115.041 3.99842C114.204 3.5131 113.342 3.08962 112.455 2.72798C111.646 2.39803 110.816 2.11955 109.964 1.89256C109.108 1.66423 108.244 1.4916 107.373 1.37468C106.458 1.25195 105.536 1.19059 104.605 1.19059C103.674 1.19059 102.751 1.25195 101.837 1.37468C100.966 1.4916 100.102 1.66423 99.2454 1.89256C98.3941 2.11957 97.5637 2.39806 96.7544 2.72804C95.8674 3.08967 95.0056 3.51313 94.1691 3.99842L22.5977 45.5179C21.7668 45.9999 20.9765 46.5338 20.2267 47.1196C19.5416 47.655 18.8903 48.2337 18.2729 48.8558C17.6524 49.481 17.076 50.14 16.5435 50.8328C15.9844 51.5603 15.4739 52.3251 15.0119 53.1272C14.55 53.9292 14.1447 54.7544 13.796 55.603C13.4638 56.4113 13.183 57.2408 12.9535 58.0914C12.7253 58.9373 12.5515 59.7908 12.4323 60.6519C12.3017 61.5946 12.2364 62.5463 12.2364 63.5071L12.2364 146.704C12.2364 147.665 12.3017 148.617 12.4324 149.56C12.5517 150.421 12.7254 151.274 12.9535 152.119C13.1831 152.97 13.4641 153.8 13.7965 154.609C14.1451 155.457 14.5502 156.282 15.0119 157.083C15.4739 157.886 15.9845 158.65 16.5436 159.378C17.076 160.071 17.6525 160.73 18.2729 161.355C18.8899 161.977 19.5406 162.555 20.2252 163.09C20.9754 163.676 21.7662 164.21 22.5977 164.693L94.1691 206.212C95.0061 206.698 95.8684 207.122 96.7559 207.483C97.5648 207.813 98.3946 208.091 99.2454 208.318C100.102 208.546 100.965 208.719 101.836 208.836C102.751 208.959 103.674 209.02 104.605 209.02C105.536 209.02 106.459 208.959 107.373 208.836C108.244 208.719 109.108 208.546 109.964 208.318C110.815 208.091 111.645 207.813 112.454 207.483C113.341 207.122 114.204 206.698 115.041 206.212L186.612 164.693C187.443 164.211 188.234 163.677 188.984 163.09C189.669 162.555 190.32 161.977 190.937 161.355C191.556 160.731 192.132 160.072 192.664 159.38C193.224 158.652 193.735 157.887 194.198 157.083C194.659 156.282 195.064 155.457 195.413 154.609C195.746 153.8 196.027 152.97 196.256 152.119C196.484 151.274 196.658 150.421 196.777 149.56C196.908 148.617 196.973 147.665 196.973 146.704L196.973 63.5071C196.973 62.5464 196.908 61.5948 196.777 60.6522C196.658 59.7911 196.484 58.9374 196.256 58.0913C196.026 57.2395 195.745 56.4089 195.412 55.5994C195.064 54.7522 194.659 53.9281 194.198 53.1272C193.735 52.3241 193.224 51.5584 192.664 50.8301C192.132 50.1382 191.556 49.4801 190.937 48.8558C190.319 48.2336 189.668 47.6547 188.982 47.1193ZM195.195 63.5071C195.195 56.7263 191.585 50.4584 185.72 47.0558L114.148 5.53636C108.247 2.11265 100.963 2.11265 95.0612 5.53636L23.4898 47.0558C17.6245 50.4584 14.0144 56.7263 14.0144 63.5071L14.0144 146.704C14.0144 153.484 17.6245 159.752 23.4899 163.155L95.0612 204.674C100.963 208.098 108.247 208.098 114.148 204.674L185.72 163.155C191.585 159.752 195.195 153.484 195.195 146.704L195.195 63.5071Z" fill="url(#paint_radial_6)" fill-rule="evenodd" />
	<path id="Polygon 6" d="M188.982 47.1193C188.233 46.5336 187.443 45.9998 186.612 45.5179L115.041 3.99842C114.204 3.5131 113.342 3.08962 112.455 2.72798C111.646 2.39803 110.816 2.11955 109.964 1.89256C109.108 1.66423 108.244 1.4916 107.373 1.37468C106.458 1.25195 105.536 1.19059 104.605 1.19059C103.674 1.19059 102.751 1.25195 101.837 1.37468C100.966 1.4916 100.102 1.66423 99.2454 1.89256C98.3941 2.11957 97.5637 2.39806 96.7544 2.72804C95.8674 3.08967 95.0056 3.51313 94.1691 3.99842L22.5977 45.5179C21.7668 45.9999 20.9765 46.5338 20.2267 47.1196C19.5416 47.655 18.8903 48.2337 18.2729 48.8558C17.6524 49.481 17.076 50.14 16.5435 50.8328C15.9844 51.5603 15.4739 52.3251 15.0119 53.1272C14.55 53.9292 14.1447 54.7544 13.796 55.603C13.4638 56.4113 13.183 57.2408 12.9535 58.0914C12.7253 58.9373 12.5515 59.7908 12.4323 60.6519C12.3017 61.5946 12.2364 62.5463 12.2364 63.5071L12.2364 146.704C12.2364 147.665 12.3017 148.617 12.4324 149.56C12.5517 150.421 12.7254 151.274 12.9535 152.119C13.1831 152.97 13.4641 153.8 13.7965 154.609C14.1451 155.457 14.5502 156.282 15.0119 157.083C15.4739 157.886 15.9845 158.65 16.5436 159.378C17.076 160.071 17.6525 160.73 18.2729 161.355C18.8899 161.977 19.5406 162.555 20.2252 163.09C20.9754 163.676 21.7662 164.21 22.5977 164.693L94.1691 206.212C95.0061 206.698 95.8684 207.122 96.7559 207.483C97.5648 207.813 98.3946 208.091 99.2454 208.318C100.102 208.546 100.965 208.719 101.836 208.836C102.751 208.959 103.674 209.02 104.605 209.02C105.536 209.02 106.459 208.959 107.373 208.836C108.244 208.719 109.108 208.546 109.964 208.318C110.815 208.091 111.645 207.813 112.454 207.483C113.341 207.122 114.204 206.698 115.041 206.212L186.612 164.693C187.443 164.211 188.234 163.677 188.984 163.09C189.669 162.555 190.32 161.977 190.937 161.355C191.556 160.731 192.132 160.072 192.664 159.38C193.224 158.652 193.735 157.887 194.198 157.083C194.659 156.282 195.064 155.457 195.413 154.609C195.746 153.8 196.027 152.97 196.256 152.119C196.484 151.274 196.658 150.421 196.777 149.56C196.908 148.617 196.973 147.665 196.973 146.704L196.973 63.5071C196.973 62.5464 196.908 61.5948 196.777 60.6522C196.658 59.7911 196.484 58.9374 196.256 58.0913C196.026 57.2395 195.745 56.4089 195.412 55.5994C195.064 54.7522 194.659 53.9281 194.198 53.1272C193.735 52.3241 193.224 51.5584 192.664 50.8301C192.132 50.1382 191.556 49.4801 190.937 48.8558C190.319 48.2336 189.668 47.6547 188.982 47.1193ZM195.195 63.5071C195.195 56.7263 191.585 50.4584 185.72 47.0558L114.148 5.53636C108.247 2.11265 100.963 2.11265 95.0612 5.53636L23.4898 47.0558C17.6245 50.4584 14.0144 56.7263 14.0144 63.5071L14.0144 146.704C14.0144 153.484 17.6245 159.752 23.4899 163.155L95.0612 204.674C100.963 208.098 108.247 208.098 114.148 204.674L185.72 163.155C191.585 159.752 195.195 153.484 195.195 146.704L195.195 63.5071Z" fill="url(#paint_radial_7)" fill-rule="evenodd" />
	<g id="Frame 21" clip-path="url(#clipPath_5)" customFrame="url(#clipPath_5)">
		<rect id="Frame 21" width="135.000000" height="135.000000" x="37.139771" y="38.000000" />
		<g id="Group">
			<path id="Vector" d="M62.6637 120.87L62.6637 146.046C62.6637 146.417 62.8111 146.773 63.0733 147.035C63.3356 147.297 63.6915 147.445 64.0624 147.445L105.973 147.445C106.344 147.445 106.699 147.297 106.962 147.035C107.224 146.773 107.371 146.417 107.371 146.046L107.371 120.87C107.368 118.274 106.335 115.785 104.5 113.95C102.665 112.115 100.176 111.083 97.5807 111.079L72.4543 111.079C69.8587 111.082 67.3704 112.115 65.5347 113.95C63.6997 115.785 62.6669 118.274 62.6637 120.87ZM73.853 144.647L73.853 122.269L96.2316 122.269L96.2316 144.647L73.853 144.647ZM72.4543 113.877L97.5807 113.877C99.4346 113.879 101.212 114.617 102.523 115.927C103.834 117.238 104.571 119.016 104.574 120.87L104.574 144.647L99.0292 144.647L99.0292 122.269C99.0292 121.527 98.7345 120.815 98.21 120.291C97.6855 119.766 96.9737 119.471 96.2319 119.471L73.8533 119.471C73.1115 119.471 72.4003 119.766 71.8752 120.291C71.3507 120.815 71.056 121.527 71.056 122.269L71.056 144.647L65.4613 144.647L65.4613 120.87C65.4638 119.016 66.2013 117.238 67.5125 115.927C68.8231 114.617 70.6007 113.879 72.4547 113.877L72.4543 113.877Z" fill="url(#paint_linear_41)" fill-opacity="0.876811624" fill-rule="nonzero" />
			<path id="Vector" d="M78.1519 90.0994C79.613 90.0594 80.9811 89.3764 81.8909 88.2324C82.4042 87.6548 82.353 86.7707 81.776 86.2575C81.1991 85.7436 80.3149 85.7948 79.8011 86.3717C79.4152 86.9037 78.8177 87.2434 78.1633 87.3021C77.4484 87.2184 76.7859 86.8875 76.2888 86.3661C75.7718 85.7991 74.8945 85.7548 74.3225 86.2668C73.7512 86.7788 73.6987 87.6555 74.2051 88.2325C75.2223 89.352 76.6415 90.0232 78.1519 90.0994Z" fill="url(#paint_linear_42)" fill-opacity="0.876811624" fill-rule="nonzero" />
			<path id="Vector" d="M78.0241 92.8968C76.5249 92.8968 75.1399 93.6967 74.3901 94.9948C73.6408 96.2929 73.6408 97.8927 74.3901 99.1908C75.14 100.489 76.5248 101.289 78.0241 101.289L78.0728 101.289C79.5719 101.28 80.9526 100.472 81.6943 99.1695C82.4367 97.867 82.4273 96.2673 81.6699 94.9735C80.9131 93.6798 79.5233 92.888 78.0241 92.8968ZM78.0728 98.4915L78.0241 98.4915C77.2423 98.4777 76.6179 97.8371 76.6248 97.0553C76.6316 96.2742 77.2666 95.6442 78.0484 95.6442C78.8301 95.6442 79.4658 96.2742 79.472 97.0553C79.4789 97.8371 78.8545 98.4777 78.0728 98.4915Z" fill="url(#paint_linear_43)" fill-opacity="0.876811624" fill-rule="nonzero" />
			<path id="Vector" d="M92.1386 90.0994C93.5997 90.0594 94.9678 89.3764 95.8776 88.2324C96.3909 87.6548 96.3397 86.7707 95.7627 86.2575C95.1858 85.7436 94.3016 85.7948 93.7878 86.3717C93.4019 86.9037 92.8044 87.2434 92.15 87.3021L92.1375 87.3021C91.4238 87.2265 90.7626 86.8937 90.2756 86.3661C89.7586 85.7991 88.8813 85.7548 88.3093 86.2668C87.738 86.7788 87.6856 87.6555 88.1919 88.2325C89.2091 89.352 90.6282 90.0232 92.1386 90.0994Z" fill="url(#paint_linear_44)" fill-opacity="0.876811624" fill-rule="nonzero" />
			<path id="Vector" d="M92.0363 92.8967C90.5371 92.8967 89.1521 93.6966 88.4029 94.9947C87.653 96.2929 87.653 97.8926 88.4029 99.1907C89.1522 100.489 90.5372 101.289 92.0363 101.289L92.06 101.289C93.5592 101.284 94.9422 100.481 95.6884 99.1807C96.4339 97.88 96.4295 96.2802 95.6765 94.9847C94.9229 93.6884 93.5353 92.8923 92.0363 92.8967ZM92.06 98.4914L92.0363 98.4914C91.2595 98.4852 90.6339 97.8514 90.637 97.074C90.6401 96.2972 91.2714 95.6691 92.0481 95.6691C92.8255 95.6691 93.4562 96.2972 93.4593 97.074C93.463 97.8514 92.8374 98.4851 92.06 98.4914Z" fill="url(#paint_linear_45)" fill-opacity="0.876811624" fill-rule="nonzero" />
			<path id="Vector" d="M67.9233 82.406L68.2593 83.3445L68.2586 106.882C68.2586 107.253 68.406 107.609 68.6683 107.871C68.9305 108.133 69.2864 108.281 69.6573 108.281L100.428 108.281C100.799 108.281 101.155 108.133 101.417 107.871C101.679 107.609 101.827 107.253 101.827 106.882L101.827 83.3477L102.159 82.4092L102.159 82.4086C103.03 79.9628 102.893 77.271 101.778 74.9258C100.665 72.5806 98.664 70.7741 96.2182 69.9038L94.3269 69.2307C94.3687 68.0024 94.1789 66.7773 93.7674 65.6197L93.3478 64.4546C93.0893 63.7265 92.2894 63.3469 91.562 63.6054L85.0358 65.9268L78.5126 63.6054C78.1629 63.4805 77.7782 63.4999 77.4429 63.6591C77.1076 63.8177 76.8498 64.1036 76.7249 64.4527L76.3053 65.6191L76.3053 65.6197C75.8957 66.778 75.7059 68.0024 75.7458 69.2306L73.8564 69.9031L73.8564 69.9037C71.4144 70.7785 69.4187 72.5855 68.3067 74.929C67.1946 77.2725 67.0566 79.961 67.9233 82.4062L67.9233 82.406ZM71.056 105.485L71.056 84.094L85.0426 79.1162L99.0293 84.094L99.0293 105.485L71.056 105.485ZM93.3867 73.1045C93.5515 72.7511 93.6964 72.3889 93.8187 72.0193L95.2817 72.5394C97.0026 73.152 98.415 74.4133 99.218 76.0541C100.02 77.6945 100.15 79.5839 99.577 81.3186L89.0621 77.5772C90.9553 76.6012 92.4751 75.0294 93.3867 73.1045ZM78.8992 66.7113L80.8698 67.4106L78.5845 68.2242C78.6332 67.7097 78.7388 67.2027 78.8992 66.7113ZM91.1849 66.7113C91.7575 68.4459 91.6283 70.3353 90.8259 71.9757C90.0229 73.6167 88.6106 74.8779 86.8897 75.4904L70.5069 81.3186C69.9368 79.5834 70.068 77.6945 70.8716 76.0542C71.6752 74.4138 73.0875 73.1526 74.8078 72.5395L91.1849 66.7113Z" fill="url(#paint_linear_46)" fill-opacity="0.876811624" fill-rule="nonzero" />
			<path id="Vector" d="M145.16 85.9035L129.724 85.9035C129.576 85.1036 129.148 84.3824 128.516 83.8697C127.885 83.3571 127.091 83.0867 126.278 83.1061C125.528 83.103 124.795 83.3315 124.18 83.7605C123.554 83.3583 122.826 83.1448 122.082 83.1448C121.338 83.1448 120.61 83.3583 119.984 83.7605C119.369 83.3315 118.636 83.103 117.886 83.1061C117.215 83.0967 116.556 83.2797 115.986 83.6331C115.416 83.9865 114.959 84.496 114.669 85.1004C114.35 85.0136 114.021 84.9699 113.69 84.9706C112.794 84.9418 111.923 85.269 111.268 85.8809C110.612 86.4928 110.226 87.3389 110.193 88.235L110.193 91.9639C110.226 92.8599 110.612 93.7059 111.268 94.318C111.923 94.9299 112.794 95.2571 113.69 95.2284C114.021 95.229 114.35 95.1853 114.669 95.0985C114.959 95.7029 115.416 96.2124 115.986 96.5658C116.556 96.9192 117.215 97.1022 117.886 97.0928C118.636 97.096 119.369 96.8674 119.984 96.4384C120.61 96.8406 121.338 97.0541 122.082 97.0541C122.826 97.0541 123.554 96.8406 124.18 96.4384C124.795 96.8674 125.528 97.0959 126.278 97.0928C127.091 97.1122 127.885 96.8418 128.516 96.3292C129.148 95.8166 129.576 95.0954 129.724 94.2955L145.16 94.2955C145.531 94.2955 145.887 94.1481 146.149 93.8858C146.411 93.6236 146.559 93.2677 146.559 92.8968L146.559 87.3021C146.559 86.9313 146.411 86.5753 146.149 86.3131C145.887 86.0508 145.531 85.9035 145.16 85.9035ZM126.977 93.8296C126.977 94.0494 126.678 94.2954 126.278 94.2954C125.878 94.2954 125.579 94.0494 125.579 93.8296C125.579 93.0573 124.952 92.431 124.18 92.431C123.408 92.431 122.781 93.0573 122.781 93.8296C122.781 94.0494 122.482 94.2954 122.082 94.2954C121.682 94.2954 121.383 94.0494 121.383 93.8296C121.383 93.0573 120.756 92.431 119.984 92.431C119.212 92.431 118.585 93.0573 118.585 93.8296C118.585 94.0494 118.286 94.2954 117.886 94.2954C117.486 94.2954 117.187 94.0494 117.187 93.8296L117.187 91.9639C117.187 91.1915 116.56 90.5652 115.788 90.5652C115.016 90.5652 114.389 91.1915 114.389 91.9639C114.389 92.1849 114.09 92.431 113.69 92.431C113.29 92.431 112.991 92.1849 112.991 91.9639L112.991 88.235C112.991 88.0139 113.29 87.7679 113.69 87.7679C114.09 87.7679 114.389 88.0139 114.389 88.235C114.389 89.0074 115.016 89.6336 115.788 89.6336C116.56 89.6336 117.187 89.0074 117.187 88.235L117.187 86.3692C117.187 86.1495 117.486 85.9034 117.886 85.9034C118.286 85.9034 118.585 86.1495 118.585 86.3692C118.585 87.1416 119.212 87.7679 119.984 87.7679C120.756 87.7679 121.383 87.1416 121.383 86.3692C121.383 86.1495 121.682 85.9034 122.082 85.9034C122.482 85.9034 122.781 86.1495 122.781 86.3692C122.781 87.1416 123.408 87.7679 124.18 87.7679C124.952 87.7679 125.579 87.1416 125.579 86.3692C125.579 86.1495 125.878 85.9034 126.278 85.9034C126.678 85.9034 126.977 86.1495 126.977 86.3692L126.977 93.8296ZM143.761 91.4981L129.775 91.4981L129.775 88.7008L143.761 88.7008L143.761 91.4981Z" fill="url(#paint_linear_47)" fill-opacity="0.876811624" fill-rule="nonzero" />
			<path id="Vector" d="M110.193 113.877L110.193 129.262C110.196 131.858 111.229 134.347 113.064 136.182C114.899 138.017 117.388 139.049 119.984 139.053L133.971 139.053C136.566 139.049 139.055 138.017 140.89 136.182C142.726 134.347 143.758 131.858 143.761 129.262L143.761 113.877C143.761 113.135 143.466 112.423 142.942 111.899C142.417 111.374 141.706 111.079 140.964 111.079L112.991 111.079C112.249 111.079 111.537 111.374 111.013 111.899C110.488 112.423 110.193 113.135 110.193 113.877ZM140.964 129.262C140.961 131.116 140.224 132.894 138.913 134.205C137.602 135.515 135.824 136.253 133.971 136.255L119.984 136.255C118.13 136.253 116.352 135.515 115.041 134.205C113.731 132.894 112.993 131.116 112.991 129.262L112.991 113.877L140.964 113.877L140.964 129.262Z" fill="url(#paint_linear_48)" fill-opacity="0.876811624" fill-rule="nonzero" />
			<path id="Vector" d="M115.788 99.8901L118.585 99.8901L118.585 102.687L115.788 102.687L115.788 99.8901Z" fill="url(#paint_linear_49)" fill-opacity="0.876811624" fill-rule="nonzero" />
			<path id="Vector" d="M121.383 105.485L124.18 105.485L124.18 108.282L121.383 108.282L121.383 105.485Z" fill="url(#paint_linear_50)" fill-opacity="0.876811624" fill-rule="nonzero" />
			<path id="Vector" d="M122.781 99.8901L125.579 99.8901L125.579 102.687L122.781 102.687L122.781 99.8901Z" fill="url(#paint_linear_51)" fill-opacity="0.876811624" fill-rule="nonzero" />
			<path id="Vector" d="M128.376 105.485L131.173 105.485L131.173 108.282L128.376 108.282L128.376 105.485Z" fill="url(#paint_linear_52)" fill-opacity="0.876811624" fill-rule="nonzero" />
			<path id="Vector" d="M118.585 132.059L121.383 132.059C121.705 132.056 122.026 131.997 122.328 131.883C123.117 132.874 124.312 133.454 125.579 133.458L131.173 133.458C132.038 133.454 132.88 133.184 133.585 132.683C134.29 132.182 134.824 131.476 135.112 130.661L136.768 130.661C137.54 130.661 138.166 130.035 138.166 129.262C138.166 128.49 137.54 127.863 136.768 127.863L135.112 127.863C134.689 126.679 133.756 125.747 132.572 125.323L132.572 123.667C132.572 122.168 131.772 120.783 130.474 120.034C129.176 119.284 127.576 119.284 126.278 120.034C124.98 120.783 124.18 122.168 124.18 123.667L124.18 125.323C124.109 125.348 124.04 125.363 123.964 125.391C123.752 124.881 123.394 124.445 122.934 124.138C122.475 123.832 121.935 123.667 121.383 123.667L121.271 123.667C120.758 120.396 118.473 119.471 117.187 119.471C116.437 119.474 115.827 120.076 115.815 120.825C115.801 121.586 116.389 122.222 117.147 122.269C117.332 122.28 118.09 122.424 118.423 123.684C117.712 123.725 117.044 124.036 116.555 124.553C116.065 125.069 115.791 125.753 115.788 126.465L115.788 129.262C115.788 130.004 116.083 130.716 116.607 131.24C117.131 131.765 117.843 132.059 118.585 132.059ZM124.18 129.262C124.18 128.49 124.806 127.863 125.579 127.863L126.977 127.863L126.977 130.661L125.579 130.661C124.806 130.661 124.18 130.034 124.18 129.262ZM131.173 130.661L129.775 130.661L129.775 127.863L131.173 127.863C131.946 127.863 132.572 128.49 132.572 129.262C132.572 130.034 131.946 130.661 131.173 130.661ZM126.977 123.667C126.977 122.895 127.603 122.269 128.376 122.269C129.148 122.269 129.775 122.895 129.775 123.667L129.775 125.066L126.977 125.066L126.977 123.667ZM121.383 129.248L121.383 129.262L118.585 129.262L118.585 126.465L121.383 126.465L121.383 129.248Z" fill="url(#paint_linear_53)" fill-opacity="0.876811624" fill-rule="nonzero" />
		</g>
	</g>
</svg>
