<svg viewBox="0 0 209.21 210.211" xmlns="http://www.w3.org/2000/svg" xmlns:xlink="http://www.w3.org/1999/xlink" width="209.209717" height="210.210693" fill="none" customFrame="#000000">
	<defs>
		<radialGradient id="paint_radial_14" cx="0" cy="0" r="1" gradientUnits="userSpaceOnUse" gradientTransform="matrix(73.4558,107.752,-152.797,104.163,2.78946,3.73708)">
			<stop stop-color="rgb(255,225.25,148.75)" offset="0" stop-opacity="1" />
			<stop stop-color="rgb(242.25,187.189,89.8344)" offset="0.177083328" stop-opacity="0.876811624" />
			<stop stop-color="rgb(191,122,0)" offset="0.359375" stop-opacity="0.75" />
			<stop stop-color="rgb(191,122,0)" offset="1" stop-opacity="0" />
			<stop stop-color="rgb(15,18,24)" offset="1" stop-opacity="0" />
		</radialGradient>
		<radialGradient id="paint_radial_15" cx="0" cy="0" r="1" gradientUnits="userSpaceOnUse" gradientTransform="matrix(-88.0103,-50.3763,50.1364,-87.5912,192.911,155.277)">
			<stop stop-color="rgb(255,225,149)" offset="0" stop-opacity="1" />
			<stop stop-color="rgb(242,187,90)" offset="0.166666672" stop-opacity="0.800000012" />
			<stop stop-color="rgb(191,122,0)" offset="0.328125" stop-opacity="0.75" />
			<stop stop-color="rgb(11,11,11)" offset="1" stop-opacity="0" />
		</radialGradient>
		<clipPath id="clipPath_8">
			<rect width="135.000000" height="135.000000" x="36.674683" y="37.258789" fill="rgb(255,255,255)" />
		</clipPath>
		<linearGradient id="paint_linear_67" x1="104.296783" x2="104.296783" y1="65.550293" y2="125.338387" gradientUnits="userSpaceOnUse">
			<stop stop-color="rgb(255,186.294,64.8125)" offset="0" stop-opacity="1" />
			<stop stop-color="rgb(255,251,189)" offset="1" stop-opacity="1" />
		</linearGradient>
		<linearGradient id="paint_linear_68" x1="108.782387" x2="108.782387" y1="112.209229" y2="144.19577" gradientUnits="userSpaceOnUse">
			<stop stop-color="rgb(255,186.294,64.8125)" offset="0" stop-opacity="1" />
			<stop stop-color="rgb(255,251,189)" offset="1" stop-opacity="1" />
		</linearGradient>
	</defs>
	<rect id="Frame 9" width="209.209671" height="210.210678" x="0.000000" y="0.000000" />
	<path id="Polygon 6" d="M185.72 47.0558C191.585 50.4584 195.195 56.7263 195.195 63.5071L195.195 146.704C195.195 153.484 191.585 159.752 185.72 163.155L114.148 204.674C108.247 208.098 100.963 208.098 95.0612 204.674L23.4899 163.155C17.6245 159.752 14.0144 153.484 14.0144 146.704L14.0144 63.5071C14.0144 56.7263 17.6245 50.4584 23.4898 47.0558L95.0612 5.53636C100.963 2.11265 108.247 2.11265 114.148 5.53636L185.72 47.0558Z" fill="rgb(242.25,187.189,89.8344)" fill-opacity="0.100000001" fill-rule="evenodd" />
	<path id="Polygon 6" d="M188.982 47.1193C188.233 46.5336 187.443 45.9998 186.612 45.5179L115.041 3.99842C114.204 3.5131 113.342 3.08962 112.455 2.72798C111.646 2.39803 110.816 2.11955 109.964 1.89256C109.108 1.66423 108.244 1.4916 107.373 1.37468C106.458 1.25195 105.536 1.19059 104.605 1.19059C103.674 1.19059 102.751 1.25195 101.837 1.37468C100.966 1.4916 100.102 1.66423 99.2454 1.89256C98.3941 2.11957 97.5637 2.39806 96.7544 2.72804C95.8674 3.08967 95.0056 3.51313 94.1691 3.99842L22.5977 45.5179C21.7668 45.9999 20.9765 46.5338 20.2267 47.1196C19.5416 47.655 18.8903 48.2337 18.2729 48.8558C17.6524 49.481 17.076 50.14 16.5435 50.8328C15.9844 51.5603 15.4739 52.3251 15.0119 53.1272C14.55 53.9292 14.1447 54.7544 13.796 55.603C13.4638 56.4113 13.183 57.2408 12.9535 58.0914C12.7253 58.9373 12.5515 59.7908 12.4323 60.6519C12.3017 61.5946 12.2364 62.5463 12.2364 63.5071L12.2364 146.704C12.2364 147.665 12.3017 148.617 12.4324 149.56C12.5517 150.421 12.7254 151.274 12.9535 152.119C13.1831 152.97 13.4641 153.8 13.7965 154.609C14.1451 155.457 14.5502 156.282 15.0119 157.083C15.4739 157.886 15.9845 158.65 16.5436 159.378C17.076 160.071 17.6525 160.73 18.2729 161.355C18.8899 161.977 19.5406 162.555 20.2252 163.09C20.9754 163.676 21.7662 164.21 22.5977 164.693L94.1691 206.212C95.0061 206.698 95.8684 207.122 96.7559 207.483C97.5648 207.813 98.3946 208.091 99.2454 208.318C100.102 208.546 100.965 208.719 101.836 208.836C102.751 208.959 103.674 209.02 104.605 209.02C105.536 209.02 106.459 208.959 107.373 208.836C108.244 208.719 109.108 208.546 109.964 208.318C110.815 208.091 111.645 207.813 112.454 207.483C113.341 207.122 114.204 206.698 115.041 206.212L186.612 164.693C187.443 164.211 188.234 163.677 188.984 163.09C189.669 162.555 190.32 161.977 190.937 161.355C191.556 160.731 192.132 160.072 192.664 159.38C193.224 158.652 193.735 157.887 194.198 157.083C194.659 156.282 195.064 155.457 195.413 154.609C195.746 153.8 196.027 152.97 196.256 152.119C196.484 151.274 196.658 150.421 196.777 149.56C196.908 148.617 196.973 147.665 196.973 146.704L196.973 63.5071C196.973 62.5464 196.908 61.5948 196.777 60.6522C196.658 59.7911 196.484 58.9374 196.256 58.0913C196.026 57.2395 195.745 56.4089 195.412 55.5994C195.064 54.7522 194.659 53.9281 194.198 53.1272C193.735 52.3241 193.224 51.5584 192.664 50.8301C192.132 50.1382 191.556 49.4801 190.937 48.8558C190.319 48.2336 189.668 47.6547 188.982 47.1193ZM195.195 63.5071C195.195 56.7263 191.585 50.4584 185.72 47.0558L114.148 5.53636C108.247 2.11265 100.963 2.11265 95.0612 5.53636L23.4898 47.0558C17.6245 50.4584 14.0144 56.7263 14.0144 63.5071L14.0144 146.704C14.0144 153.484 17.6245 159.752 23.4899 163.155L95.0612 204.674C100.963 208.098 108.247 208.098 114.148 204.674L185.72 163.155C191.585 159.752 195.195 153.484 195.195 146.704L195.195 63.5071Z" fill="url(#paint_radial_14)" fill-rule="evenodd" />
	<path id="Polygon 6" d="M188.982 47.1193C188.233 46.5336 187.443 45.9998 186.612 45.5179L115.041 3.99842C114.204 3.5131 113.342 3.08962 112.455 2.72798C111.646 2.39803 110.816 2.11955 109.964 1.89256C109.108 1.66423 108.244 1.4916 107.373 1.37468C106.458 1.25195 105.536 1.19059 104.605 1.19059C103.674 1.19059 102.751 1.25195 101.837 1.37468C100.966 1.4916 100.102 1.66423 99.2454 1.89256C98.3941 2.11957 97.5637 2.39806 96.7544 2.72804C95.8674 3.08967 95.0056 3.51313 94.1691 3.99842L22.5977 45.5179C21.7668 45.9999 20.9765 46.5338 20.2267 47.1196C19.5416 47.655 18.8903 48.2337 18.2729 48.8558C17.6524 49.481 17.076 50.14 16.5435 50.8328C15.9844 51.5603 15.4739 52.3251 15.0119 53.1272C14.55 53.9292 14.1447 54.7544 13.796 55.603C13.4638 56.4113 13.183 57.2408 12.9535 58.0914C12.7253 58.9373 12.5515 59.7908 12.4323 60.6519C12.3017 61.5946 12.2364 62.5463 12.2364 63.5071L12.2364 146.704C12.2364 147.665 12.3017 148.617 12.4324 149.56C12.5517 150.421 12.7254 151.274 12.9535 152.119C13.1831 152.97 13.4641 153.8 13.7965 154.609C14.1451 155.457 14.5502 156.282 15.0119 157.083C15.4739 157.886 15.9845 158.65 16.5436 159.378C17.076 160.071 17.6525 160.73 18.2729 161.355C18.8899 161.977 19.5406 162.555 20.2252 163.09C20.9754 163.676 21.7662 164.21 22.5977 164.693L94.1691 206.212C95.0061 206.698 95.8684 207.122 96.7559 207.483C97.5648 207.813 98.3946 208.091 99.2454 208.318C100.102 208.546 100.965 208.719 101.836 208.836C102.751 208.959 103.674 209.02 104.605 209.02C105.536 209.02 106.459 208.959 107.373 208.836C108.244 208.719 109.108 208.546 109.964 208.318C110.815 208.091 111.645 207.813 112.454 207.483C113.341 207.122 114.204 206.698 115.041 206.212L186.612 164.693C187.443 164.211 188.234 163.677 188.984 163.09C189.669 162.555 190.32 161.977 190.937 161.355C191.556 160.731 192.132 160.072 192.664 159.38C193.224 158.652 193.735 157.887 194.198 157.083C194.659 156.282 195.064 155.457 195.413 154.609C195.746 153.8 196.027 152.97 196.256 152.119C196.484 151.274 196.658 150.421 196.777 149.56C196.908 148.617 196.973 147.665 196.973 146.704L196.973 63.5071C196.973 62.5464 196.908 61.5948 196.777 60.6522C196.658 59.7911 196.484 58.9374 196.256 58.0913C196.026 57.2395 195.745 56.4089 195.412 55.5994C195.064 54.7522 194.659 53.9281 194.198 53.1272C193.735 52.3241 193.224 51.5584 192.664 50.8301C192.132 50.1382 191.556 49.4801 190.937 48.8558C190.319 48.2336 189.668 47.6547 188.982 47.1193ZM195.195 63.5071C195.195 56.7263 191.585 50.4584 185.72 47.0558L114.148 5.53636C108.247 2.11265 100.963 2.11265 95.0612 5.53636L23.4898 47.0558C17.6245 50.4584 14.0144 56.7263 14.0144 63.5071L14.0144 146.704C14.0144 153.484 17.6245 159.752 23.4899 163.155L95.0612 204.674C100.963 208.098 108.247 208.098 114.148 204.674L185.72 163.155C191.585 159.752 195.195 153.484 195.195 146.704L195.195 63.5071Z" fill="url(#paint_radial_15)" fill-rule="evenodd" />
	<g id="Frame 23" clip-path="url(#clipPath_8)" customFrame="url(#clipPath_8)">
		<rect id="Frame 23" width="135.000000" height="135.000000" x="36.674683" y="37.258789" />
		<g id="Group">
			<path id="Vector" d="M142.751 83.6348L132.384 67.8849C129.844 64.0505 123.626 65.0182 122.888 70.2077C122.767 70.0865 121.86 68.2358 119.441 67.7399C116.187 67.0506 112.885 69.6149 113.236 73.3771C108.348 70.6434 103.474 76.3768 106.353 80.7681L106.498 80.986C101.707 79.5099 98.0663 84.8692 100.631 88.7885L101.599 90.2402L98.3928 92.3569C97.3282 93.0587 97.0379 94.4861 97.7272 95.5382L97.8359 95.6956C67.0509 116.573 65.8409 115.352 65.0784 119.078C64.1468 123.662 69.2151 126.989 73.0258 124.473L103.545 104.38C105.735 106.715 106.425 105.312 110.041 103.074C110.658 103.799 111.444 106.183 114.299 106.763C115.339 106.981 116.38 106.872 117.347 106.461C117.662 112.389 116.476 114.904 118.847 117.275C122.017 120.481 127.533 118.194 127.533 113.682C127.75 108.118 126.976 106.593 128.391 105.179C130.218 103.352 133.423 104.622 133.423 107.272C133.496 107.816 133 110.151 134.911 112.038C138.056 115.219 143.597 113.017 143.597 108.445C143.343 86.2116 144.214 85.8359 142.75 83.6348L142.751 83.6348ZM72.3606 123.456C69.4696 125.404 65.5259 122.839 66.2639 119.331C66.8689 116.44 66.917 117.989 98.5019 96.6983L102.881 103.364L72.3606 123.456ZM114.541 105.577C111.698 104.984 112.182 103.46 101.646 88.1217C99.7709 85.2913 102.13 81.3114 105.783 82.025C108.626 82.6176 108.203 84.2386 118.678 99.4803C120.577 102.407 118.085 106.278 114.541 105.577ZM128.887 100.399C128.464 102.565 126.335 103.944 124.182 103.496C121.327 102.903 122.053 101.706 109.315 83.0642C107.997 80.6933 106.303 79.5681 106.787 77.0886C107.513 73.5926 112.085 72.734 114.045 75.7093C128.15 97.8465 129.48 97.5318 128.887 100.399ZM136.581 95.3312C135.867 98.8029 131.295 99.6982 129.323 96.7223L115.049 75.0327C113.101 72.0693 115.762 68.1498 119.186 68.9241C121.642 69.4324 122.029 71.4642 123.686 73.6052L123.686 73.6171C135.734 92.6213 137.161 92.5126 136.581 95.3307L136.581 95.3312ZM135.056 88.69L124.69 72.9401C123.42 71.017 124.134 68.5368 125.827 67.4241C127.678 66.2021 130.158 66.7104 131.367 68.5493C141.867 84.892 142.387 84.396 142.387 86.4761C142.206 90.7821 137.064 91.7498 135.056 88.6897L135.056 88.69Z" fill="url(#paint_linear_67)" fill-opacity="0.876811624" fill-rule="nonzero" />
			<path id="Vector" d="M131.466 127.896C126.857 120.131 127.147 119.913 126.506 119.913L117.99 119.913C113.587 112.51 113.853 112.231 113.199 112.231C104.26 112.34 104.139 111.965 103.813 112.534L99.5549 119.913C90.9182 120.021 90.8576 119.659 90.5429 120.215C86.1153 128.102 85.7769 127.933 86.1034 128.501L90.5429 136.194C90.6515 136.376 90.8451 136.496 91.063 136.496L99.5549 136.496C103.898 143.815 103.68 144.178 104.333 144.178C113.296 144.057 113.381 144.444 113.72 143.876L117.99 136.496C126.687 136.375 126.687 136.751 127.026 136.194C131.393 128.404 131.792 128.453 131.466 127.896ZM104.683 113.441L112.849 113.441L116.937 120.517L112.86 127.594L104.708 127.594L100.619 120.493L104.683 113.441ZM126.154 135.287L117.989 135.287L113.9 128.198L117.989 121.122L126.154 121.122L130.242 128.198L126.154 135.287Z" fill="url(#paint_linear_68)" fill-opacity="0.876811624" fill-rule="nonzero" />
		</g>
	</g>
</svg>
