<svg viewBox="0 0 141 61.2502" xmlns="http://www.w3.org/2000/svg" xmlns:xlink="http://www.w3.org/1999/xlink" width="141.000061" height="61.250244" fill="none" customFrame="#000000">
	<defs>
		<clipPath id="clipPath_18">
			<rect width="49.000000" height="61.250000" x="0.000000" y="0.000000" fill="rgb(255,255,255)" />
		</clipPath>
		<linearGradient id="paint_linear_126" x1="24.499609" x2="24.499609" y1="17.9799805" y2="61.2503014" gradientUnits="userSpaceOnUse">
			<stop stop-color="rgb(255,186.294,64.8125)" offset="0" stop-opacity="1" />
			<stop stop-color="rgb(255,251,189)" offset="1" stop-opacity="1" />
		</linearGradient>
		<linearGradient id="paint_linear_127" x1="7.70258951" x2="7.70258951" y1="5.99316406" y2="20.3770809" gradientUnits="userSpaceOnUse">
			<stop stop-color="rgb(255,186.294,64.8125)" offset="0" stop-opacity="1" />
			<stop stop-color="rgb(255,251,189)" offset="1" stop-opacity="1" />
		</linearGradient>
		<linearGradient id="paint_linear_128" x1="34.3003578" x2="34.3003578" y1="5.99316406" y2="20.3769989" gradientUnits="userSpaceOnUse">
			<stop stop-color="rgb(255,186.294,64.8125)" offset="0" stop-opacity="1" />
			<stop stop-color="rgb(255,251,189)" offset="1" stop-opacity="1" />
		</linearGradient>
		<linearGradient id="paint_linear_129" x1="24.4981613" x2="24.4981613" y1="51.5419922" y2="61.131176" gradientUnits="userSpaceOnUse">
			<stop stop-color="rgb(255,186.294,64.8125)" offset="0" stop-opacity="1" />
			<stop stop-color="rgb(255,251,189)" offset="1" stop-opacity="1" />
		</linearGradient>
		<linearGradient id="paint_linear_130" x1="24.4988766" x2="24.4988766" y1="-8.07346595e-16" y2="26.3699398" gradientUnits="userSpaceOnUse">
			<stop stop-color="rgb(255,186.294,64.8125)" offset="0" stop-opacity="1" />
			<stop stop-color="rgb(255,251,189)" offset="1" stop-opacity="1" />
		</linearGradient>
		<linearGradient id="paint_linear_131" x1="29.2603378" x2="29.2603378" y1="29.5561523" y2="41.3654022" gradientUnits="userSpaceOnUse">
			<stop stop-color="rgb(255,186.294,64.8125)" offset="0" stop-opacity="1" />
			<stop stop-color="rgb(255,251,189)" offset="1" stop-opacity="1" />
		</linearGradient>
		<linearGradient id="paint_linear_132" x1="24.4993496" x2="24.4993496" y1="36.6159668" y2="48.4252167" gradientUnits="userSpaceOnUse">
			<stop stop-color="rgb(255,186.294,64.8125)" offset="0" stop-opacity="1" />
			<stop stop-color="rgb(255,251,189)" offset="1" stop-opacity="1" />
		</linearGradient>
		<linearGradient id="paint_linear_133" x1="19.7376938" x2="19.7376938" y1="29.5561523" y2="41.3654022" gradientUnits="userSpaceOnUse">
			<stop stop-color="rgb(255,186.294,64.8125)" offset="0" stop-opacity="1" />
			<stop stop-color="rgb(255,251,189)" offset="1" stop-opacity="1" />
		</linearGradient>
		<clipPath id="clipPath_19">
			<rect width="39.000000" height="48.750000" x="59.000000" y="12.500000" fill="rgb(255,255,255)" />
		</clipPath>
		<linearGradient id="paint_linear_134" x1="78.4997025" x2="78.4997025" y1="26.8105469" y2="61.2501907" gradientUnits="userSpaceOnUse">
			<stop stop-color="rgb(255,186.294,64.8125)" offset="0" stop-opacity="1" />
			<stop stop-color="rgb(255,251,189)" offset="1" stop-opacity="1" />
		</linearGradient>
		<linearGradient id="paint_linear_135" x1="65.1306305" x2="65.1306305" y1="17.2700195" y2="28.7184429" gradientUnits="userSpaceOnUse">
			<stop stop-color="rgb(255,186.294,64.8125)" offset="0" stop-opacity="1" />
			<stop stop-color="rgb(255,251,189)" offset="1" stop-opacity="1" />
		</linearGradient>
		<linearGradient id="paint_linear_136" x1="86.300293" x2="86.300293" y1="17.2700195" y2="28.7183781" gradientUnits="userSpaceOnUse">
			<stop stop-color="rgb(255,186.294,64.8125)" offset="0" stop-opacity="1" />
			<stop stop-color="rgb(255,251,189)" offset="1" stop-opacity="1" />
		</linearGradient>
		<linearGradient id="paint_linear_137" x1="78.4985352" x2="78.4985352" y1="53.5231934" y2="61.1553993" gradientUnits="userSpaceOnUse">
			<stop stop-color="rgb(255,186.294,64.8125)" offset="0" stop-opacity="1" />
			<stop stop-color="rgb(255,251,189)" offset="1" stop-opacity="1" />
		</linearGradient>
		<linearGradient id="paint_linear_138" x1="78.4991226" x2="78.4991226" y1="12.5" y2="33.4883194" gradientUnits="userSpaceOnUse">
			<stop stop-color="rgb(255,186.294,64.8125)" offset="0" stop-opacity="1" />
			<stop stop-color="rgb(255,251,189)" offset="1" stop-opacity="1" />
		</linearGradient>
		<linearGradient id="paint_linear_139" x1="82.288887" x2="82.288887" y1="36.0244141" y2="45.4236145" gradientUnits="userSpaceOnUse">
			<stop stop-color="rgb(255,186.294,64.8125)" offset="0" stop-opacity="1" />
			<stop stop-color="rgb(255,251,189)" offset="1" stop-opacity="1" />
		</linearGradient>
		<linearGradient id="paint_linear_140" x1="78.4994583" x2="78.4994583" y1="41.6433105" y2="51.0425072" gradientUnits="userSpaceOnUse">
			<stop stop-color="rgb(255,186.294,64.8125)" offset="0" stop-opacity="1" />
			<stop stop-color="rgb(255,251,189)" offset="1" stop-opacity="1" />
		</linearGradient>
		<linearGradient id="paint_linear_141" x1="74.7096024" x2="74.7096024" y1="36.0244141" y2="45.4236145" gradientUnits="userSpaceOnUse">
			<stop stop-color="rgb(255,186.294,64.8125)" offset="0" stop-opacity="1" />
			<stop stop-color="rgb(255,251,189)" offset="1" stop-opacity="1" />
		</linearGradient>
		<clipPath id="clipPath_20">
			<rect width="33.000000" height="41.250000" x="108.000000" y="20.000000" fill="rgb(255,255,255)" />
		</clipPath>
		<linearGradient id="paint_linear_142" x1="124.499748" x2="124.499748" y1="32.1088867" y2="61.2501221" gradientUnits="userSpaceOnUse">
			<stop stop-color="rgb(255,186.294,64.8125)" offset="0" stop-opacity="1" />
			<stop stop-color="rgb(255,251,189)" offset="1" stop-opacity="1" />
		</linearGradient>
		<linearGradient id="paint_linear_143" x1="113.187462" x2="113.187462" y1="24.0361328" y2="33.723259" gradientUnits="userSpaceOnUse">
			<stop stop-color="rgb(255,186.294,64.8125)" offset="0" stop-opacity="1" />
			<stop stop-color="rgb(255,251,189)" offset="1" stop-opacity="1" />
		</linearGradient>
		<linearGradient id="paint_linear_144" x1="131.10025" x2="131.10025" y1="24.0361328" y2="33.7232056" gradientUnits="userSpaceOnUse">
			<stop stop-color="rgb(255,186.294,64.8125)" offset="0" stop-opacity="1" />
			<stop stop-color="rgb(255,251,189)" offset="1" stop-opacity="1" />
		</linearGradient>
		<linearGradient id="paint_linear_145" x1="124.498764" x2="124.498764" y1="54.7119141" y2="61.1699371" gradientUnits="userSpaceOnUse">
			<stop stop-color="rgb(255,186.294,64.8125)" offset="0" stop-opacity="1" />
			<stop stop-color="rgb(255,251,189)" offset="1" stop-opacity="1" />
		</linearGradient>
		<linearGradient id="paint_linear_146" x1="124.49926" x2="124.49926" y1="20" y2="37.759346" gradientUnits="userSpaceOnUse">
			<stop stop-color="rgb(255,186.294,64.8125)" offset="0" stop-opacity="1" />
			<stop stop-color="rgb(255,251,189)" offset="1" stop-opacity="1" />
		</linearGradient>
		<linearGradient id="paint_linear_147" x1="127.706024" x2="127.706024" y1="39.9052734" y2="47.8584442" gradientUnits="userSpaceOnUse">
			<stop stop-color="rgb(255,186.294,64.8125)" offset="0" stop-opacity="1" />
			<stop stop-color="rgb(255,251,189)" offset="1" stop-opacity="1" />
		</linearGradient>
		<linearGradient id="paint_linear_148" x1="124.499542" x2="124.499542" y1="44.659668" y2="52.6128349" gradientUnits="userSpaceOnUse">
			<stop stop-color="rgb(255,186.294,64.8125)" offset="0" stop-opacity="1" />
			<stop stop-color="rgb(255,251,189)" offset="1" stop-opacity="1" />
		</linearGradient>
		<linearGradient id="paint_linear_149" x1="121.292755" x2="121.292755" y1="39.9052734" y2="47.8584442" gradientUnits="userSpaceOnUse">
			<stop stop-color="rgb(255,186.294,64.8125)" offset="0" stop-opacity="1" />
			<stop stop-color="rgb(255,251,189)" offset="1" stop-opacity="1" />
		</linearGradient>
	</defs>
	<rect id="size" width="141.000000" height="61.250000" x="0.000000" y="0.000000" />
	<g id="big-jar" customFrame="url(#clipPath_18)">
		<rect id="big-jar" width="49.000000" height="61.250000" x="0.000000" y="0.000000" />
		<g id="Group">
			<path id="Vector" d="M39.1923 61.2502L9.80626 61.2502C4.39977 61.2502 0.000976562 57.4843 0.000976562 52.8547L0.000976562 19.1836C0.000976562 18.5218 0.633743 17.98 1.40676 17.98L13.9941 17.98C14.7671 17.98 15.3999 18.5218 15.3999 19.1836L15.3999 22.1757C15.3999 23.1672 16.3416 23.9736 17.4996 23.9736C18.6576 23.9736 19.5994 23.1672 19.5994 22.1757L19.5994 19.1841C19.5994 18.5222 20.2322 17.9804 21.0052 17.9804L47.5983 17.9804C48.3713 17.9804 48.9982 18.5173 48.9982 19.1791L48.9982 52.8548C48.9982 57.484 44.6 61.2503 39.193 61.2503L39.1923 61.2502ZM2.80027 20.3772L2.80027 52.8555C2.80027 56.1626 5.94298 58.8536 9.80559 58.8536L39.1916 58.8536C43.0541 58.8536 46.1969 56.1628 46.1969 52.8555L46.1969 20.3772L22.3981 20.3772L22.3981 22.1751C22.3981 24.4886 20.2004 26.3704 17.4984 26.3704C14.7964 26.3704 12.5987 24.4886 12.5987 22.1751L12.5987 20.3772L2.80027 20.3772Z" fill="url(#paint_linear_126)" fill-opacity="0.876811624" fill-rule="nonzero" />
			<path id="Vector" d="M13.9939 20.3771L1.4102 20.3771C0.928241 20.3771 0.475809 20.1626 0.219543 19.8132C-0.0367222 19.4637 -0.0652056 19.0213 0.144139 18.6502C0.152575 18.6357 0.129901 18.6741 7.14622 6.65866C7.38298 6.25322 7.87231 5.99316 8.40384 5.99316L14.0001 5.99316C14.7732 5.99316 15.4001 6.52998 15.4001 7.19185L15.4001 19.173C15.3996 19.8353 14.7668 20.3767 13.9938 20.3767L13.9939 20.3771ZM3.66602 17.9802L12.6002 17.9802L12.6002 8.39097L9.26555 8.39097L3.66602 17.9802Z" fill="url(#paint_linear_127)" fill-opacity="0.876811624" fill-rule="nonzero" />
			<path id="Vector" d="M47.5982 20.377L21.0064 20.377C20.2334 20.377 19.6006 19.8352 19.6006 19.1733L19.6006 7.19683C19.6006 6.53494 20.2334 5.99316 21.0064 5.99316L27.9943 5.99316C28.7674 5.99316 29.4001 6.53495 29.4001 7.19683L29.4001 10.1884C29.4001 11.1799 30.3419 11.9863 31.4999 11.9863C32.6579 11.9863 33.5997 11.1799 33.5997 10.1884L33.5997 7.19683C33.5997 6.53494 34.2324 5.99316 35.0055 5.99316L40.5959 5.99316C41.1275 5.99316 41.6163 6.25322 41.853 6.65866L48.8509 18.6421C49.3155 19.4381 48.6384 20.3767 47.5986 20.3767L47.5982 20.377ZM22.3995 17.9801L45.333 17.9801L39.7336 8.39089L36.399 8.39089L36.399 10.1888C36.399 12.5022 34.2012 14.384 31.4992 14.384C28.7973 14.384 26.5995 12.5022 26.5995 10.1888L26.5995 8.39089L22.4001 8.39089L22.3995 17.9801Z" fill="url(#paint_linear_128)" fill-opacity="0.876811624" fill-rule="nonzero" />
			<path id="Vector" d="M39.1977 61.1312L9.79948 61.1312C4.39623 61.1312 0 57.3672 0 52.7407C0 52.0788 0.626962 51.542 1.39998 51.542L47.5963 51.542C48.3694 51.542 48.9963 52.0788 48.9963 52.7407C48.9963 57.367 44.6002 61.1312 39.1968 61.1312L39.1977 61.1312ZM2.94063 53.9394C3.59079 56.6714 6.41932 58.7337 9.79935 58.7337L39.1975 58.7337C42.5775 58.7337 45.406 56.6712 46.0562 53.9394L2.94063 53.9394Z" fill="url(#paint_linear_129)" fill-opacity="0.876811624" fill-rule="nonzero" />
			<path id="Vector" d="M17.4993 26.3698C14.7973 26.3698 12.5996 24.488 12.5996 22.1746L12.5996 8.39038L7.78527 8.39038C5.08601 8.39038 2.85016 6.54374 2.80116 4.27419C2.75001 1.91472 4.96411 0 7.69982 0L41.2125 0C43.9117 0 46.1476 1.84664 46.1966 4.11619C46.2477 6.4752 44.0336 8.39003 41.2979 8.39003L36.3982 8.39003L36.3982 10.1879C36.3982 12.5014 34.2004 14.3831 31.4985 14.3831C28.7965 14.3831 26.5987 12.5014 26.5987 10.1879L26.5987 8.39003L22.3993 8.39003L22.3993 22.1742C22.3988 24.4882 20.201 26.3699 17.4996 26.3699L17.4993 26.3698ZM7.69982 2.39715C6.52815 2.39715 5.57845 3.2166 5.60005 4.22969C5.62114 5.2022 6.60088 5.99323 7.78473 5.99323L13.999 5.99323C14.772 5.99323 15.399 6.53004 15.399 7.19192L15.399 22.1747C15.399 23.1662 16.3408 23.9726 17.4988 23.9726C18.6568 23.9726 19.5985 23.1662 19.5985 22.1747L19.5991 7.19654C19.5991 6.53465 20.2318 5.99288 21.0048 5.99288L27.9927 5.99288C28.7658 5.99288 29.3985 6.53467 29.3985 7.19654L29.3985 10.1881C29.3985 11.1796 30.3403 11.986 31.4983 11.986C32.6563 11.986 33.5981 11.1796 33.5981 10.1881L33.5981 7.19654C33.5981 6.53465 34.2308 5.99288 35.0039 5.99288L41.2978 5.99288C42.4695 5.99288 43.4192 5.17343 43.397 4.16069C43.3759 3.18818 42.3962 2.39715 41.2123 2.39715L7.69982 2.39715Z" fill="url(#paint_linear_130)" fill-opacity="0.876811624" fill-rule="nonzero" />
			<path id="Vector" d="M28.5603 41.2047L23.8003 38.8516C23.3674 38.6376 23.1006 38.2417 23.1006 37.8136L23.1006 33.1078C23.1006 32.6797 23.3674 32.2838 23.8003 32.0698L28.5603 29.7167C28.9933 29.5026 29.5269 29.5026 29.9603 29.7167L34.7204 32.0698C35.1533 32.2838 35.4201 32.6797 35.4201 33.1078L35.4201 37.8136C35.4201 38.2416 35.1533 38.6376 34.7204 38.8516L29.9603 41.2047C29.5274 41.4187 28.9932 41.4192 28.5603 41.2047ZM25.9001 37.1219L29.2601 38.783L32.6202 37.1219L32.6202 33.7999L29.2601 32.1389L25.9001 33.7999L25.9001 37.1219Z" fill="url(#paint_linear_131)" fill-opacity="0.876811624" fill-rule="nonzero" />
			<path id="Vector" d="M23.7994 48.2645L19.0393 45.9114C18.6064 45.6974 18.3396 45.3015 18.3396 44.8735L18.3396 40.1676C18.3396 39.7396 18.6064 39.3436 19.0393 39.1296L23.7994 36.7765C24.2323 36.5625 24.7659 36.5625 25.1993 36.7765L29.9594 39.1296C30.3923 39.3436 30.6591 39.7395 30.6591 40.1676L30.6591 44.8735C30.6591 45.3015 30.3923 45.6974 29.9594 45.9114L25.1993 48.2645C24.7664 48.4785 24.2323 48.479 23.7994 48.2645ZM21.1396 44.1818L24.4997 45.8428L27.8597 44.1818L27.8597 40.8597L24.4997 39.1987L21.1396 40.8597L21.1396 44.1818Z" fill="url(#paint_linear_132)" fill-opacity="0.876811624" fill-rule="nonzero" />
			<path id="Vector" d="M19.0382 41.2047L14.2782 38.8516C13.8453 38.6376 13.5785 38.2417 13.5785 37.8136L13.5779 33.1078C13.5779 32.6797 13.8448 32.2838 14.2777 32.0698L19.0377 29.7167C19.4706 29.5026 20.0043 29.5026 20.4377 29.7167L25.1977 32.0698C25.6306 32.2838 25.8974 32.6797 25.8974 33.1078L25.8974 37.8136C25.8974 38.2416 25.6306 38.6376 25.1977 38.8516L20.4377 41.2047C20.0053 41.4187 19.4711 41.4192 19.0382 41.2047ZM16.378 37.1219L19.738 38.783L23.0981 37.1219L23.0981 33.7999L19.738 32.1389L16.378 33.7999L16.378 37.1219Z" fill="url(#paint_linear_133)" fill-opacity="0.876811624" fill-rule="nonzero" />
		</g>
	</g>
	<g id="middle-jar" customFrame="url(#clipPath_19)">
		<rect id="middle-jar" width="39.000000" height="48.750000" x="59.000000" y="12.500000" />
		<g id="Group">
			<path id="Vector" d="M90.1939 61.2501L66.805 61.2501C62.5019 61.2501 59.0008 58.2528 59.0008 54.568L59.0008 27.7686C59.0008 27.2418 59.5044 26.8105 60.1197 26.8105L70.1381 26.8105C70.7534 26.8105 71.257 27.2418 71.257 27.7686L71.257 30.15C71.257 30.9391 72.0066 31.5809 72.9283 31.5809C73.85 31.5809 74.5995 30.9391 74.5995 30.15L74.5995 27.7689C74.5995 27.2421 75.1032 26.8109 75.7184 26.8109L96.8843 26.8109C97.4996 26.8109 97.9986 27.2382 97.9986 27.765L97.9986 54.5681C97.9986 58.2525 94.498 61.2502 90.1944 61.2502L90.1939 61.2501ZM61.2288 28.7186L61.2288 54.5686C61.2288 57.2008 63.7301 59.3426 66.8045 59.3426L90.1933 59.3426C93.2675 59.3426 95.769 57.2009 95.769 54.5686L95.769 28.7186L76.8271 28.7186L76.8271 30.1495C76.8271 31.9909 75.0779 33.4886 72.9273 33.4886C70.7768 33.4886 69.0275 31.9909 69.0275 30.1495L69.0275 28.7186L61.2288 28.7186Z" fill="url(#paint_linear_134)" fill-opacity="0.876811624" fill-rule="nonzero" />
			<path id="Vector" d="M70.138 28.7184L60.1224 28.7184C59.7388 28.7184 59.3787 28.5477 59.1747 28.2696C58.9708 27.9915 58.9481 27.6393 59.1147 27.344C59.1214 27.3325 59.1034 27.363 64.6878 17.7997C64.8762 17.477 65.2657 17.27 65.6888 17.27L70.143 17.27C70.7582 17.27 71.2572 17.6973 71.2572 18.2241L71.2572 27.7601C71.2568 28.2873 70.7532 28.7181 70.1379 28.7181L70.138 28.7184ZM61.9178 26.8107L69.0287 26.8107L69.0287 19.1785L66.3746 19.1785L61.9178 26.8107Z" fill="url(#paint_linear_135)" fill-opacity="0.876811624" fill-rule="nonzero" />
			<path id="Vector" d="M96.8843 28.7184L75.7194 28.7184C75.1041 28.7184 74.6005 28.2872 74.6005 27.7604L74.6005 18.228C74.6005 17.7012 75.1042 17.27 75.7194 17.27L81.2812 17.27C81.8965 17.27 82.4001 17.7012 82.4001 18.228L82.4001 20.6091C82.4001 21.3982 83.1497 22.04 84.0714 22.04C84.993 22.04 85.7426 21.3982 85.7426 20.6091L85.7426 18.228C85.7426 17.7012 86.2462 17.27 86.8615 17.27L91.3111 17.27C91.7341 17.27 92.1232 17.477 92.3116 17.7997L97.8814 27.3375C98.2511 27.9711 97.7122 28.7182 96.8846 28.7182L96.8843 28.7184ZM76.8282 26.8106L95.0814 26.8106L90.6247 19.1784L87.9706 19.1784L87.9706 20.6094C87.9706 22.4507 86.2214 23.9484 84.0708 23.9484C81.9203 23.9484 80.171 22.4507 80.171 20.6094L80.171 19.1784L76.8286 19.1784L76.8282 26.8106Z" fill="url(#paint_linear_136)" fill-opacity="0.876811624" fill-rule="nonzero" />
			<path id="Vector" d="M90.1981 61.1554L66.7996 61.1554C62.499 61.1554 59 58.1596 59 54.4773C59 53.9504 59.499 53.5232 60.1143 53.5232L96.8828 53.5232C97.4981 53.5232 97.9971 53.9505 97.9971 54.4773C97.9971 58.1595 94.4981 61.1554 90.1975 61.1554L90.1981 61.1554ZM61.3405 55.4313C61.858 57.6058 64.1093 59.2472 66.7995 59.2472L90.198 59.2472C92.8882 59.2472 95.1395 57.6057 95.657 55.4313L61.3405 55.4313Z" fill="url(#paint_linear_137)" fill-opacity="0.876811624" fill-rule="nonzero" />
			<path id="Vector" d="M72.928 33.4882C70.7775 33.4882 69.0282 31.9905 69.0282 30.1492L69.0282 19.1781L65.1965 19.1781C63.0481 19.1781 61.2685 17.7083 61.2295 15.9019C61.1888 14.024 62.951 12.5 65.1284 12.5L91.8018 12.5C93.9502 12.5 95.7297 13.9698 95.7687 15.7762C95.8094 17.6537 94.0472 19.1778 91.8698 19.1778L87.97 19.1778L87.97 20.6087C87.97 22.4501 86.2208 23.9478 84.0702 23.9478C81.9197 23.9478 80.1704 22.4501 80.1704 20.6087L80.1704 19.1778L76.828 19.1778L76.828 30.1489C76.8276 31.9906 75.0784 33.4883 72.9282 33.4883L72.928 33.4882ZM65.1284 14.4079C64.1959 14.4079 63.44 15.0602 63.4572 15.8665C63.474 16.6405 64.2538 17.2701 65.196 17.2701L70.1421 17.2701C70.7574 17.2701 71.2564 17.6974 71.2564 18.2242L71.2564 30.1492C71.2564 30.9384 72.0059 31.5802 72.9276 31.5802C73.8493 31.5802 74.5988 30.9384 74.5988 30.1492L74.5993 18.2279C74.5993 17.7011 75.1029 17.2698 75.7182 17.2698L81.28 17.2698C81.8952 17.2698 82.3988 17.7011 82.3988 18.2279L82.3988 20.6089C82.3988 21.398 83.1484 22.0399 84.0701 22.0399C84.9918 22.0399 85.7413 21.3981 85.7413 20.6089L85.7413 18.2279C85.7413 17.7011 86.245 17.2698 86.8602 17.2698L91.8697 17.2698C92.8022 17.2698 93.5581 16.6176 93.5405 15.8116C93.5237 15.0375 92.7439 14.4079 91.8017 14.4079L65.1284 14.4079Z" fill="url(#paint_linear_138)" fill-opacity="0.876811624" fill-rule="nonzero" />
			<path id="Vector" d="M81.7318 45.2957L77.9432 43.4228C77.5986 43.2525 77.3862 42.9374 77.3862 42.5967L77.3862 38.8512C77.3862 38.5105 77.5986 38.1954 77.9432 38.0251L81.7318 36.1522C82.0763 35.9818 82.5011 35.9818 82.846 36.1522L86.6346 38.0251C86.9792 38.1954 87.1916 38.5105 87.1916 38.8512L87.1916 42.5967C87.1916 42.9374 86.9792 43.2525 86.6346 43.4228L82.846 45.2957C82.5015 45.4661 82.0763 45.4664 81.7318 45.2957ZM79.6144 42.0462L82.2887 43.3682L84.963 42.0462L84.963 39.4021L82.2887 38.0801L79.6144 39.4021L79.6144 42.0462Z" fill="url(#paint_linear_139)" fill-opacity="0.876811624" fill-rule="nonzero" />
			<path id="Vector" d="M77.9423 50.9146L74.1537 49.0417C73.8092 48.8714 73.5968 48.5563 73.5968 48.2156L73.5968 44.4701C73.5968 44.1294 73.8092 43.8143 74.1537 43.644L77.9423 41.7711C78.2869 41.6007 78.7116 41.6007 79.0566 41.7711L82.8452 43.644C83.1898 43.8143 83.4021 44.1294 83.4021 44.4701L83.4021 48.2156C83.4021 48.5563 83.1898 48.8714 82.8452 49.0417L79.0566 50.9146C78.712 51.085 78.2869 51.0853 77.9423 50.9146ZM75.8254 47.6651L78.4997 48.9871L81.174 47.6651L81.174 45.021L78.4997 43.699L75.8254 45.021L75.8254 47.6651Z" fill="url(#paint_linear_140)" fill-opacity="0.876811624" fill-rule="nonzero" />
			<path id="Vector" d="M74.1529 45.2957L70.3643 43.4228C70.0197 43.2525 69.8074 42.9374 69.8074 42.5967L69.8069 38.8512C69.8069 38.5105 70.0193 38.1954 70.3639 38.0251L74.1525 36.1522C74.497 35.9818 74.9218 35.9818 75.2667 36.1522L79.0553 38.0251C79.3999 38.1954 79.6123 38.5105 79.6123 38.8512L79.6123 42.5967C79.6123 42.9374 79.3999 43.2525 79.0553 43.4228L75.2667 45.2957C74.9226 45.4661 74.4974 45.4664 74.1529 45.2957ZM72.0355 42.0462L74.7099 43.3682L77.3842 42.0462L77.3842 39.4021L74.7099 38.0801L72.0355 39.4021L72.0355 42.0462Z" fill="url(#paint_linear_141)" fill-opacity="0.876811624" fill-rule="nonzero" />
		</g>
	</g>
	<g id="small-jar" customFrame="url(#clipPath_20)">
		<rect id="small-jar" width="33.000000" height="41.250000" x="108.000000" y="20.000000" />
		<g id="Group">
			<path id="Vector" d="M134.395 61.25L114.604 61.25C110.963 61.25 108.001 58.7139 108.001 55.596L108.001 32.9195C108.001 32.4738 108.427 32.1089 108.947 32.1089L117.425 32.1089C117.945 32.1089 118.371 32.4738 118.371 32.9195L118.371 34.9346C118.371 35.6023 119.006 36.1454 119.785 36.1454C120.565 36.1454 121.2 35.6023 121.2 34.9346L121.2 32.9198C121.2 32.4741 121.626 32.1092 122.146 32.1092L140.056 32.1092C140.577 32.1092 140.999 32.4707 140.999 32.9165L140.999 55.596C140.999 58.7136 138.037 61.2501 134.395 61.2501L134.395 61.25ZM109.886 33.7234L109.886 55.5965C109.886 57.8237 112.002 59.636 114.604 59.636L134.394 59.636C136.996 59.636 139.112 57.8238 139.112 55.5965L139.112 33.7234L123.084 33.7234L123.084 34.9342C123.084 36.4922 121.604 37.7595 119.785 37.7595C117.965 37.7595 116.485 36.4922 116.485 34.9342L116.485 33.7234L109.886 33.7234Z" fill="url(#paint_linear_142)" fill-opacity="0.876811624" fill-rule="nonzero" />
			<path id="Vector" d="M117.424 33.7233L108.95 33.7233C108.625 33.7233 108.32 33.5788 108.148 33.3435C107.975 33.1081 107.956 32.8102 108.097 32.5603C108.103 32.5505 108.087 32.5764 112.813 24.4843C112.972 24.2113 113.302 24.0361 113.66 24.0361L117.429 24.0361C117.949 24.0361 118.372 24.3977 118.372 24.8434L118.372 32.9123C118.371 33.3584 117.945 33.723 117.424 33.723L117.424 33.7233ZM110.469 32.109L116.486 32.109L116.486 25.651L114.24 25.651L110.469 32.109Z" fill="url(#paint_linear_143)" fill-opacity="0.876811624" fill-rule="nonzero" />
			<path id="Vector" d="M140.056 33.7232L122.147 33.7232C121.627 33.7232 121.2 33.3583 121.2 32.9126L121.2 24.8468C121.2 24.401 121.627 24.0361 122.147 24.0361L126.853 24.0361C127.374 24.0361 127.8 24.401 127.8 24.8468L127.8 26.8615C127.8 27.5292 128.434 28.0723 129.214 28.0723C129.994 28.0723 130.628 27.5292 130.628 26.8615L130.628 24.8468C130.628 24.401 131.055 24.0361 131.575 24.0361L135.34 24.0361C135.698 24.0361 136.027 24.2113 136.187 24.4843L140.9 32.5548C141.212 33.0909 140.757 33.723 140.056 33.723L140.056 33.7232ZM123.085 32.109L138.53 32.109L134.759 25.6509L132.514 25.6509L132.514 26.8617C132.514 28.4198 131.033 29.6871 129.214 29.6871C127.394 29.6871 125.914 28.4198 125.914 26.8617L125.914 25.6509L123.086 25.6509L123.085 32.109Z" fill="url(#paint_linear_144)" fill-opacity="0.876811624" fill-rule="nonzero" />
			<path id="Vector" d="M134.398 61.1699L114.6 61.1699C110.961 61.1699 108 58.635 108 55.5192C108 55.0734 108.422 54.7119 108.943 54.7119L140.055 54.7119C140.575 54.7119 140.998 55.0734 140.998 55.5192C140.998 58.6349 138.037 61.1699 134.398 61.1699L134.398 61.1699ZM109.98 56.3265C110.418 58.1664 112.323 59.5553 114.6 59.5553L134.398 59.5553C136.675 59.5553 138.58 58.1663 139.017 56.3265L109.98 56.3265Z" fill="url(#paint_linear_145)" fill-opacity="0.876811624" fill-rule="nonzero" />
			<path id="Vector" d="M119.785 37.7593C117.966 37.7593 116.485 36.492 116.485 34.9339L116.485 25.6507L113.243 25.6507C111.425 25.6507 109.92 24.407 109.887 22.8785C109.852 21.2895 111.343 20 113.186 20L135.755 20C137.573 20 139.079 21.2437 139.112 22.7721C139.146 24.3608 137.655 25.6504 135.813 25.6504L132.513 25.6504L132.513 26.8612C132.513 28.4193 131.033 29.6866 129.213 29.6866C127.394 29.6866 125.913 28.4193 125.913 26.8612L125.913 25.6504L123.085 25.6504L123.085 34.9337C123.085 36.492 121.605 37.7593 119.785 37.7593L119.785 37.7593ZM113.186 21.6144C112.397 21.6144 111.757 22.1663 111.771 22.8486C111.786 23.5035 112.446 24.0363 113.243 24.0363L117.428 24.0363C117.949 24.0363 118.371 24.3978 118.371 24.8435L118.371 34.934C118.371 35.6017 119.005 36.1448 119.785 36.1448C120.565 36.1448 121.199 35.6017 121.199 34.934L121.199 24.8466C121.199 24.4009 121.626 24.036 122.146 24.036L126.852 24.036C127.373 24.036 127.799 24.4009 127.799 24.8466L127.799 26.8614C127.799 27.5291 128.433 28.0722 129.213 28.0722C129.993 28.0722 130.627 27.5291 130.627 26.8614L130.627 24.8466C130.627 24.4009 131.053 24.036 131.574 24.036L135.813 24.036C136.602 24.036 137.241 23.4841 137.227 22.8021C137.212 22.1471 136.553 21.6144 135.755 21.6144L113.186 21.6144Z" fill="url(#paint_linear_146)" fill-opacity="0.876811624" fill-rule="nonzero" />
			<path id="Vector" d="M127.235 47.7502L124.029 46.1655C123.737 46.0214 123.558 45.7547 123.558 45.4664L123.558 42.2972C123.558 42.0089 123.737 41.7423 124.029 41.5981L127.235 40.0134C127.526 39.8692 127.886 39.8692 128.177 40.0134L131.383 41.5981C131.675 41.7423 131.854 42.0089 131.854 42.2972L131.854 45.4664C131.854 45.7547 131.675 46.0214 131.383 46.1655L128.177 47.7502C127.886 47.8944 127.526 47.8947 127.235 47.7502ZM125.443 45.0006L127.706 46.1192L129.969 45.0006L129.969 42.7633L127.706 41.6447L125.443 42.7633L125.443 45.0006Z" fill="url(#paint_linear_147)" fill-opacity="0.876811624" fill-rule="nonzero" />
			<path id="Vector" d="M124.028 52.5046L120.822 50.9199C120.531 50.7757 120.351 50.5091 120.351 50.2208L120.351 47.0516C120.351 46.7633 120.531 46.4966 120.822 46.3525L124.028 44.7678C124.32 44.6236 124.679 44.6236 124.971 44.7678L128.177 46.3525C128.468 46.4966 128.648 46.7633 128.648 47.0516L128.648 50.2208C128.648 50.5091 128.468 50.7757 128.177 50.9199L124.971 52.5046C124.679 52.6488 124.32 52.6491 124.028 52.5046ZM122.237 49.755L124.5 50.8736L126.763 49.755L126.763 47.5177L124.5 46.3991L122.237 47.5177L122.237 49.755Z" fill="url(#paint_linear_148)" fill-opacity="0.876811624" fill-rule="nonzero" />
			<path id="Vector" d="M120.822 47.7502L117.616 46.1655C117.324 46.0214 117.145 45.7547 117.145 45.4664L117.144 42.2972C117.144 42.0089 117.324 41.7423 117.616 41.5981L120.821 40.0134C121.113 39.8692 121.472 39.8692 121.764 40.0134L124.97 41.5981C125.261 41.7423 125.441 42.0089 125.441 42.2972L125.441 45.4664C125.441 45.7547 125.261 46.0214 124.97 46.1655L121.764 47.7502C121.473 47.8944 121.113 47.8947 120.822 47.7502ZM119.03 45.0006L121.293 46.1192L123.556 45.0006L123.556 42.7633L121.293 41.6447L119.03 42.7633L119.03 45.0006Z" fill="url(#paint_linear_149)" fill-opacity="0.876811624" fill-rule="nonzero" />
		</g>
	</g>
</svg>
