<svg viewBox="0 0 603.57 268.83" xmlns="http://www.w3.org/2000/svg" xmlns:xlink="http://www.w3.org/1999/xlink" width="603.570068" height="268.829590" fill="none" customFrame="#000000">
	<defs>
		<g id="pixso_custom_effect_10">
			<effect visibility="visible" effectType="backgroundBlur" saturation="0" stdDeviation="6.05471325" />
		</g>
		<filter id="filter_10" width="603.570068" height="268.829590" x="0.000000" y="0.000000" filterUnits="userSpaceOnUse" customEffect="url(#pixso_custom_effect_10)" color-interpolation-filters="sRGB">
			<feFlood flood-opacity="0" result="BackgroundImageFix" />
			<feGaussianBlur stdDeviation="2.01823783" in="BackgroundImage" />
			<feComposite result="effect_backgroundBlur_1" in2="SourceAlpha" operator="in" />
			<feBlend result="shape" in="SourceGraphic" in2="effect_backgroundBlur_1" mode="normal" />
		</filter>
		<g id="pixso_custom_effect_11">
			<effect x="0.000000" y="2.176756" visibility="visible" fill="rgb(255,255,255)" fill-opacity="0.200000003" effectType="innerShadow" stdDeviation="1.08837795" radius="0" />
			<effect x="0.000000" y="-3.265134" visibility="visible" fill="rgb(0,0,0)" fill-opacity="0.200000003" effectType="innerShadow" stdDeviation="1.08837795" radius="0" />
		</g>
		<filter id="filter_11" width="603.570068" height="268.829590" x="0.000000" y="0.000000" filterUnits="userSpaceOnUse" customEffect="url(#pixso_custom_effect_11)" color-interpolation-filters="sRGB">
			<feFlood flood-opacity="0" result="BackgroundImageFix" />
			<feBlend result="shape" in="SourceGraphic" in2="BackgroundImageFix" mode="normal" />
			<feColorMatrix result="hardAlpha" in="SourceAlpha" type="matrix" values="0 0 0 0 0 0 0 0 0 0 0 0 0 0 0 0 0 0 127 0 " />
			<feOffset dx="0.000000" dy="2.176756" in="hardAlpha" />
			<feGaussianBlur stdDeviation="0.362792641" />
			<feComposite k2="-1" k3="1" in2="hardAlpha" operator="arithmetic" />
			<feColorMatrix type="matrix" values="0 0 0 0 1 0 0 0 0 1 0 0 0 0 1 0 0 0 0.2 0 " />
			<feBlend result="effect_innerShadow_1" in2="shape" mode="normal" />
			<feColorMatrix result="hardAlpha" in="SourceAlpha" type="matrix" values="0 0 0 0 0 0 0 0 0 0 0 0 0 0 0 0 0 0 127 0 " />
			<feOffset dx="0.000000" dy="-3.265134" in="hardAlpha" />
			<feGaussianBlur stdDeviation="0.362792641" />
			<feComposite k2="-1" k3="1" in2="hardAlpha" operator="arithmetic" />
			<feColorMatrix type="matrix" values="0 0 0 0 0 0 0 0 0 0 0 0 0 0 0 0 0 0 0.2 0 " />
			<feBlend result="effect_innerShadow_2" in2="effect_innerShadow_1" mode="normal" />
		</filter>
	</defs>
	<g filter="url(#filter_10)">
		<rect id="Cover" width="603.570068" height="268.829285" x="0.000000" y="0.000122" />
	</g>
	<g id="Group" opacity="0.360000014" filter="url(#filter_11)">
		<path id="Vector" d="M0 47.8504L0 15.9462L27.1067 0L54.2134 15.9462L54.2134 47.8504L27.1067 63.7966L0 47.8504Z" fill="rgb(255,225.25,148.75)" fill-opacity="0.460000008" fill-rule="nonzero" transform="matrix(-1,-8.74228e-08,8.74228e-08,-1,487.583,268.141)" />
		<path id="Vector" d="M27.6891 1.37737L54.2134 16.9792L54.2134 48.1829L27.6891 63.7967L1.16488 48.1829L1.16488 16.9792L27.6891 1.37737ZM27.6891 0L0 16.2906L0 48.8835L27.6891 65.174L55.3783 48.8835L55.3783 16.2906L27.6891 0Z" fill="rgb(29,29,27)" fill-rule="nonzero" transform="matrix(-1,-8.74228e-08,8.74228e-08,-1,488.166,268.83)" />
		<path id="Vector" d="M0 47.8504L0 15.9462L27.0951 0L54.2018 15.9462L54.2018 47.8504L27.0951 63.7966L0 47.8504Z" fill="rgb(255,225.25,148.75)" fill-opacity="0.460000008" fill-rule="nonzero" transform="matrix(-1,-8.74228e-08,8.74228e-08,-1,429.875,268.141)" />
		<path id="Vector" d="M27.6892 1.37737L54.2135 16.9792L54.2135 48.1829L27.6892 63.8085L1.16488 48.1829L1.16488 16.9792L27.6892 1.37737ZM27.6892 0L0 16.2906L0 48.8835L27.6892 65.174L55.3783 48.8835L55.3783 16.2906L27.6892 0Z" fill="rgb(29,29,27)" fill-rule="nonzero" transform="matrix(-1,-8.74228e-08,8.74228e-08,-1,430.458,268.83)" />
		<path id="Vector" d="M0 47.8504L0 15.9462L27.1067 0L54.2134 15.9462L54.2134 47.8504L27.1067 63.7966L0 47.8504Z" fill="rgb(255,225.25,148.75)" fill-opacity="0.460000008" fill-rule="nonzero" transform="matrix(-1,-8.74228e-08,8.74228e-08,-1,372.179,268.141)" />
		<path id="Vector" d="M27.6892 1.37737L54.2134 16.9792L54.2134 48.1829L27.6892 63.7967L1.16488 48.1829L1.16488 16.9792L27.6892 1.37737ZM27.6892 0L0 16.2906L0 48.8835L27.6892 65.174L55.3783 48.8835L55.3783 16.2906L27.6892 0Z" fill="rgb(29,29,27)" fill-rule="nonzero" transform="matrix(-1,-8.74228e-08,8.74228e-08,-1,372.75,268.829)" />
		<path id="Vector" d="M0 47.8504L0 15.9462L27.1067 0L54.2134 15.9462L54.2134 47.8504L27.1067 63.7966L0 47.8504Z" fill="rgb(255,225.25,148.75)" fill-opacity="0.460000008" fill-rule="nonzero" transform="matrix(-1,-8.74228e-08,8.74228e-08,-1,314.471,268.141)" />
		<path id="Vector" d="M27.6775 1.37737L54.2018 16.9792L54.2018 48.1829L27.6775 63.7967L1.16488 48.1829L1.16488 16.9792L27.6775 1.37737ZM27.6775 0L0 16.2906L0 48.8835L27.6775 65.174L55.3667 48.8835L55.3667 16.2906L27.6775 0Z" fill="rgb(29,29,27)" fill-rule="nonzero" transform="matrix(-1,-8.74228e-08,8.74228e-08,-1,315.041,268.829)" />
		<path id="Vector" d="M0 47.8504L0 15.9462L27.1067 0L54.2135 15.9462L54.2135 47.8504L27.1067 63.7966L0 47.8504Z" fill="rgb(255,225.25,148.75)" fill-opacity="0.460000008" fill-rule="nonzero" transform="matrix(-1,-8.74228e-08,8.74228e-08,-1,256.763,268.141)" />
		<path id="Vector" d="M27.6892 1.37737L54.2134 16.9792L54.2134 48.1829L27.6892 63.7967L1.16488 48.1829L1.16488 16.9792L27.6892 1.37737ZM27.6892 0L0 16.2906L0 48.8835L27.6892 65.174L55.3783 48.8835L55.3783 16.2906L27.6892 0Z" fill="rgb(29,29,27)" fill-rule="nonzero" transform="matrix(-1,-8.74228e-08,8.74228e-08,-1,257.345,268.829)" />
		<path id="Vector" d="M0 47.8504L0 15.9462L27.1067 0L54.2018 15.9462L54.2018 47.8504L27.1067 63.7966L0 47.8504Z" fill="rgb(255,225.25,148.75)" fill-opacity="0.460000008" fill-rule="nonzero" transform="matrix(-1,-8.74228e-08,8.74228e-08,-1,199.055,268.141)" />
		<path id="Vector" d="M27.6892 1.37737L54.1902 16.9792L54.1902 48.1829L27.6659 63.7967L1.16488 48.1829L1.16488 16.9792L27.6892 1.37737ZM27.6892 0L0 16.2906L0 48.8835L27.6892 65.174L55.355 48.8835L55.355 16.2906L27.6659 0L27.6892 0Z" fill="rgb(29,29,27)" fill-rule="nonzero" transform="matrix(-1,-8.74228e-08,8.74228e-08,-1,199.637,268.829)" />
		<path id="Vector" d="M0 47.8504L0 15.9462L27.1067 0L54.2134 15.9462L54.2134 47.8504L27.1067 63.7966L0 47.8504Z" fill="rgb(255,225.25,148.75)" fill-opacity="0.460000008" fill-rule="nonzero" transform="matrix(-1,-8.74228e-08,8.74228e-08,-1,141.358,268.141)" />
		<path id="Vector" d="M27.7124 1.37737L54.2367 16.9792L54.2367 48.1829L27.7124 63.7967L1.16488 48.1829L1.16488 16.9792L27.6892 1.37737M27.6892 0L0 16.2906L0 48.8835L27.6892 65.174L55.3783 48.8835L55.3783 16.2906L27.6892 0Z" fill="rgb(29,29,27)" fill-rule="nonzero" transform="matrix(-1,-8.74228e-08,8.74228e-08,-1,141.952,268.83)" />
		<path id="Vector" d="M0 47.8504L0 15.9462L27.1067 0L54.2134 15.9462L54.2134 47.8504L27.1067 63.8085L0 47.8504Z" fill="rgb(255,225.25,148.75)" fill-opacity="0.460000008" fill-rule="nonzero" transform="matrix(-1,-8.74228e-08,8.74228e-08,-1,574.145,217.203)" />
		<path id="Vector" d="M27.6775 1.42477L54.1785 17.0266L54.1785 48.2422L27.6542 63.856L1.14159 48.2422L1.14159 17.0266L27.6542 1.42477M27.6542 0.0474681L0 16.2905L0 48.8834L27.6775 65.1739L55.3434 48.9309L55.3434 16.2905L27.6542 0L27.6542 0.0474681Z" fill="rgb(29,29,27)" fill-rule="nonzero" transform="matrix(-1,-8.74228e-08,8.74228e-08,-1,574.716,217.939)" />
		<path id="Vector" d="M0 47.8504L0 15.9462L27.1067 0L54.2134 15.9462L54.2134 47.8504L27.1067 63.8085L0 47.8504Z" fill="rgb(255,225.25,148.75)" fill-opacity="0.460000008" fill-rule="nonzero" transform="matrix(-1,-8.74228e-08,8.74228e-08,-1,516.437,217.203)" />
		<path id="Vector" d="M27.7125 1.42477L54.2367 17.0266L54.2367 48.2422L27.7125 63.856L1.16488 48.2422L1.16488 17.0266L27.6891 1.42477M27.6891 0.0474681L0 16.2905L0 48.8834L27.6891 65.1739L55.3783 48.8834L55.3783 16.2905L27.6891 0L27.6891 0.0474681Z" fill="rgb(29,29,27)" fill-rule="nonzero" transform="matrix(-1,-8.74228e-08,8.74228e-08,-1,517.043,217.939)" />
		<path id="Vector" d="M0 47.8504L0 15.9462L27.1067 0L54.2018 15.9462L54.2018 47.8504L27.1067 63.8085L0 47.8504Z" fill="rgb(255,225.25,148.75)" fill-opacity="0.460000008" fill-rule="nonzero" transform="matrix(-1,-8.74228e-08,8.74228e-08,-1,458.729,217.203)" />
		<path id="Vector" d="M27.6891 1.42477L54.2135 17.0266L54.2135 48.2422L27.6891 63.856L1.16488 48.2422L1.16488 17.0266L27.6891 1.42477ZM27.6891 0.0474681L0 16.2905L0 48.8834L27.6891 65.1739L55.3783 48.8834L55.3783 16.2905L27.6891 0L27.6891 0.0474681Z" fill="rgb(29,29,27)" fill-rule="nonzero" transform="matrix(-1,-8.74228e-08,8.74228e-08,-1,459.312,217.939)" />
		<path id="Vector" d="M27.6891 1.42477L54.2135 17.0266L54.2135 48.2422L27.6891 63.856L1.16488 48.2422L1.16488 17.0266L27.6891 1.42477ZM27.6891 0.0474681L0 16.2905L0 48.8834L27.6891 65.1739L55.3783 48.8834L55.3783 16.2905L27.6891 0L27.6891 0.0474681Z" fill="rgb(29,29,27)" fill-rule="nonzero" transform="matrix(-1,-8.74228e-08,8.74228e-08,-1,401.604,217.939)" />
		<path id="Vector" d="M0 47.8504L0 15.9462L27.1067 0L54.2134 15.9462L54.2134 47.8504L27.1067 63.8085L0 47.8504Z" fill="rgb(255,225.25,148.75)" fill-opacity="0.460000008" fill-rule="nonzero" transform="matrix(-1,-8.74228e-08,8.74228e-08,-1,343.325,217.203)" />
		<path id="Vector" d="M27.6891 1.42477L54.2018 17.0266L54.2018 48.2422L27.6891 63.856L1.16488 48.2422L1.16488 17.0266L27.6891 1.42477ZM27.6891 0.0474681L0 16.2905L0 48.8834L27.6891 65.1739L55.3666 48.8834L55.3666 16.2905L27.6891 0L27.6891 0.0474681Z" fill="rgb(29,29,27)" fill-rule="nonzero" transform="matrix(-1,-8.74228e-08,8.74228e-08,-1,343.896,217.939)" />
		<path id="Vector" d="M0 47.8504L0 15.9462L27.1067 0L54.2134 15.9462L54.2134 47.8504L27.1067 63.8085L0 47.8504Z" fill="rgb(255,225.25,148.75)" fill-opacity="0.460000008" fill-rule="nonzero" transform="matrix(-1,-8.74228e-08,8.74228e-08,-1,285.617,217.203)" />
		<path id="Vector" d="M27.6892 1.42477L54.2135 17.0266L54.2135 48.2422L27.6892 63.856L1.16488 48.2422L1.16488 17.0266L27.6892 1.42477ZM27.6892 0.0474681L0 16.2905L0 48.8834L27.6892 65.1739L55.3784 48.8834L55.3784 16.2905L27.6892 0L27.6892 0.0474681Z" fill="rgb(29,29,27)" fill-rule="nonzero" transform="matrix(-1,-8.74228e-08,8.74228e-08,-1,286.199,217.939)" />
		<path id="Vector" d="M27.6891 1.42477L54.2134 17.0266L54.2134 48.2422L27.6891 63.856L1.16488 48.2422L1.16488 17.0266L27.6891 1.42477ZM27.6891 0.0474681L0 16.2905L0 48.8834L27.6891 65.1739L55.3783 48.8834L55.3783 16.2905L27.6891 0L27.6891 0.0474681Z" fill="rgb(29,29,27)" fill-rule="nonzero" transform="matrix(-1,-8.74228e-08,8.74228e-08,-1,228.491,217.939)" />
		<path id="Vector" d="M0 47.8504L0 15.9462L27.0951 0L54.2018 15.9462L54.2018 47.8504L27.0951 63.8085L0 47.8504Z" fill="rgb(255,225.25,148.75)" fill-opacity="0.460000008" fill-rule="nonzero" transform="matrix(-1,-8.74228e-08,8.74228e-08,-1,170.201,217.203)" />
		<path id="Vector" d="M27.6659 1.3773L54.1902 16.9792L54.1902 48.1947L27.6659 63.8085L1.14156 48.1947L1.14156 16.9792L27.6659 1.3773ZM27.6659 0L0 16.243L0 48.836L27.6659 65.174L55.355 48.8834L55.355 16.243L27.6659 0Z" fill="rgb(29,29,27)" fill-rule="nonzero" transform="matrix(-1,-8.74228e-08,8.74228e-08,-1,170.783,217.892)" />
		<path id="Vector" d="M0 47.8504L0 15.9462L27.1067 0L54.2134 15.9462L54.2134 47.8504L27.1067 63.8085L0 47.8504Z" fill="rgb(255,225.25,148.75)" fill-opacity="0.460000008" fill-rule="nonzero" transform="matrix(-1,-8.74228e-08,8.74228e-08,-1,112.504,217.203)" />
		<path id="Vector" d="M27.6892 1.42477L54.2135 17.0266L54.2135 48.2422L27.6892 63.856L1.16488 48.2422L1.16488 17.0266L27.6892 1.42477ZM27.6892 0.0474681L0 16.2905L0 48.8834L27.6892 65.1739L55.3784 48.8834L55.3784 16.2905L27.6892 0L27.6892 0.0474681Z" fill="rgb(29,29,27)" fill-rule="nonzero" transform="matrix(-1,-8.74228e-08,8.74228e-08,-1,113.075,217.939)" />
		<path id="Vector" d="M0 47.8504L0 15.9462L27.1067 0L54.2135 15.9462L54.2135 47.8504L27.1067 63.8085L0 47.8504Z" fill="rgb(255,225.25,148.75)" fill-opacity="0.460000008" fill-rule="nonzero" transform="matrix(-1,-8.74228e-08,8.74228e-08,-1,54.7957,217.203)" />
		<path id="Vector" d="M27.6775 1.42477L54.2018 17.0266L54.2018 48.2422L27.6775 63.856L1.16488 48.2422L1.16488 17.0266L27.6775 1.42477ZM27.6775 0.0474681L0 16.2905L0 48.8834L27.6775 65.1739L55.3666 48.8834L55.3666 16.2905L27.6775 0L27.6775 0.0474681Z" fill="rgb(29,29,27)" fill-rule="nonzero" transform="matrix(-1,-8.74228e-08,8.74228e-08,-1,55.3666,217.939)" />
		<path id="Vector" d="M0 47.8504L0 15.9462L27.1067 0L54.2134 15.9462L54.2134 47.8504L27.1067 63.8085L0 47.8504Z" fill="rgb(255,225.25,148.75)" fill-opacity="0.460000008" fill-rule="nonzero" transform="matrix(-1,-8.74228e-08,8.74228e-08,-1,603,166.313)" />
		<path id="Vector" d="M27.6891 1.37737L54.2018 16.9792L54.2018 48.1948L27.6891 63.8085L1.16488 48.1948L1.16488 16.9792L27.6891 1.37737ZM27.6891 0L0 16.2906L0 48.8834L27.6891 65.174L55.3667 48.8834L55.3667 16.2906L27.6891 0Z" fill="rgb(29,29,27)" fill-rule="nonzero" transform="matrix(-1,-8.74228e-08,8.74228e-08,-1,603.57,167.002)" />
		<path id="Vector" d="M0 47.8504L0 15.9462L27.1067 0L54.2134 15.9462L54.2134 47.8504L27.1067 63.8085L0 47.8504Z" fill="rgb(255,225.25,148.75)" fill-opacity="0.460000008" fill-rule="nonzero" transform="matrix(-1,-8.74228e-08,8.74228e-08,-1,545.291,166.313)" />
		<path id="Vector" d="M27.6659 1.37737L54.1901 16.9792L54.1901 48.1948L27.6659 63.8085L1.14159 48.1948L1.14159 16.9792L27.6659 1.37737ZM27.6659 0L0 16.2906L0 48.8834L27.6659 65.174L55.355 48.8834L55.355 16.2906L27.6659 0Z" fill="rgb(29,29,27)" fill-rule="nonzero" transform="matrix(-1,-8.74228e-08,8.74228e-08,-1,545.874,167.002)" />
		<path id="Vector" d="M0 47.8504L0 15.9462L27.1067 0L54.2134 15.9462L54.2134 47.8504L27.1067 63.8085L0 47.8504Z" fill="rgb(255,225.25,148.75)" fill-opacity="0.460000008" fill-rule="nonzero" transform="matrix(-1,-8.74228e-08,8.74228e-08,-1,487.583,166.313)" />
		<path id="Vector" d="M27.6891 1.37737L54.2134 16.9792L54.2134 48.1948L27.6891 63.8085L1.16488 48.1948L1.16488 16.9792L27.6891 1.37737ZM27.6891 0L0 16.2906L0 48.8834L27.6891 65.174L55.3783 48.8834L55.3783 16.2906L27.6891 0Z" fill="rgb(29,29,27)" fill-rule="nonzero" transform="matrix(-1,-8.74228e-08,8.74228e-08,-1,488.165,167.002)" />
		<path id="Vector" d="M0 47.8504L0 15.9462L27.0951 0L54.2018 15.9462L54.2018 47.8504L27.0951 63.8085L0 47.8504Z" fill="rgb(255,225.25,148.75)" fill-opacity="0.460000008" fill-rule="nonzero" transform="matrix(-1,-8.74228e-08,8.74228e-08,-1,429.875,166.313)" />
		<path id="Vector" d="M27.6892 1.37737L54.2135 16.9792L54.2135 48.1948L27.6892 63.8085L1.16488 48.1948L1.16488 16.9792L27.6892 1.37737ZM27.6892 0L0 16.2906L0 48.8834L27.6892 65.174L55.3783 48.8834L55.3783 16.2906L27.6892 0Z" fill="rgb(29,29,27)" fill-rule="nonzero" transform="matrix(-1,-8.74228e-08,8.74228e-08,-1,430.457,167.002)" />
		<path id="Vector" d="M0 47.8504L0 15.9462L27.1067 0L54.2134 15.9462L54.2134 47.8504L27.1067 63.8085L0 47.8504Z" fill="rgb(255,225.25,148.75)" fill-opacity="0.460000008" fill-rule="nonzero" transform="matrix(-1,-8.74228e-08,8.74228e-08,-1,372.179,166.313)" />
		<path id="Vector" d="M27.6892 1.37737L54.2134 16.9792L54.2134 48.1948L27.6892 63.8085L1.16488 48.1948L1.16488 16.9792L27.6892 1.37737ZM27.6892 0L0 16.2906L0 48.8834L27.6892 65.174L55.3783 48.8834L55.3783 16.2906L27.6892 0Z" fill="rgb(29,29,27)" fill-rule="nonzero" transform="matrix(-1,-8.74228e-08,8.74228e-08,-1,372.75,167.002)" />
		<path id="Vector" d="M27.6775 1.37737L54.2018 16.9792L54.2018 48.1948L27.6775 63.8085L1.16488 48.1948L1.16488 16.9792L27.6775 1.37737ZM27.6775 0L0 16.2906L0 48.8834L27.6775 65.174L55.3667 48.8834L55.3667 16.2906L27.6775 0Z" fill="rgb(29,29,27)" fill-rule="nonzero" transform="matrix(-1,-8.74228e-08,8.74228e-08,-1,315.041,167.002)" />
		<path id="Vector" d="M0 47.8504L0 15.9462L27.1067 0L54.2135 15.9462L54.2135 47.8504L27.1067 63.8085L0 47.8504Z" fill="rgb(255,225.25,148.75)" fill-opacity="0.460000008" fill-rule="nonzero" transform="matrix(-1,-8.74228e-08,8.74228e-08,-1,256.762,166.313)" />
		<path id="Vector" d="M27.6892 1.37737L54.2134 16.9792L54.2134 48.1948L27.6892 63.8085L1.16488 48.1948L1.16488 16.9792L27.6892 1.37737ZM27.6892 0L0 16.2906L0 48.8834L27.6892 65.174L55.3783 48.8834L55.3783 16.2906L27.6892 0Z" fill="rgb(29,29,27)" fill-rule="nonzero" transform="matrix(-1,-8.74228e-08,8.74228e-08,-1,257.345,167.002)" />
		<path id="Vector" d="M0 47.8504L0 15.9462L27.1067 0L54.2018 15.9462L54.2018 47.8504L27.1067 63.8085L0 47.8504Z" fill="rgb(255,225.25,148.75)" fill-opacity="0.460000008" fill-rule="nonzero" transform="matrix(-1,-8.74228e-08,8.74228e-08,-1,199.055,166.313)" />
		<path id="Vector" d="M27.6892 1.37737L54.1902 16.9792L54.1902 48.1948L27.6659 63.8085L1.14163 48.1948L1.14163 16.9792L27.6659 1.37737M27.6659 0L0 16.2906L0 48.8834L27.6892 65.174L55.355 48.8834L55.355 16.2906L27.6659 0Z" fill="rgb(29,29,27)" fill-rule="nonzero" transform="matrix(-1,-8.74228e-08,8.74228e-08,-1,199.637,167.002)" />
		<path id="Vector" d="M0 47.8504L0 15.9462L27.1067 0L54.2134 15.9462L54.2134 47.8504L27.1067 63.8085L0 47.8504Z" fill="rgb(255,225.25,148.75)" fill-opacity="0.460000008" fill-rule="nonzero" transform="matrix(-1,-8.74228e-08,8.74228e-08,-1,141.358,166.313)" />
		<path id="Vector" d="M27.7124 1.37737L54.2367 16.9792L54.2367 48.1948L27.7124 63.8085L1.16488 48.1948L1.16488 16.9792L27.6892 1.37737M27.6892 0L0 16.2906L0 48.8834L27.6892 65.174L55.3783 48.8834L55.3783 16.2906L27.6892 0Z" fill="rgb(29,29,27)" fill-rule="nonzero" transform="matrix(-1,-8.74228e-08,8.74228e-08,-1,141.952,167.002)" />
		<path id="Vector" d="M0 47.8504L0 15.9462L27.1067 0L54.2135 15.9462L54.2135 47.8504L27.1067 63.8085L0 47.8504Z" fill="rgb(255,225.25,148.75)" fill-opacity="0.460000008" fill-rule="nonzero" transform="matrix(-1,-8.74228e-08,8.74228e-08,-1,84.2016,166.107)" />
		<path id="Vector" d="M27.6892 1.37737L54.2018 16.9792L54.2018 48.1948L27.6892 63.8085L1.16488 48.1948L1.16488 16.9792L27.6892 1.37737ZM27.6892 0L0 16.2906L0 48.8834L27.6892 65.174L55.3667 48.8834L55.3667 16.2906L27.6892 0Z" fill="rgb(29,29,27)" fill-rule="nonzero" transform="matrix(-1,-8.74228e-08,8.74228e-08,-1,84.2208,167.002)" />
		<path id="Vector" d="M0 47.8504L0 15.9462L27.1067 0L54.2134 15.9462L54.2134 47.8504L27.1067 63.8085L0 47.8504Z" fill="rgb(255,225.25,148.75)" fill-opacity="0.460000008" fill-rule="nonzero" transform="matrix(-1,-8.74228e-08,8.74228e-08,-1,574.145,115.376)" />
		<path id="Vector" d="M27.7008 1.3773L54.2018 16.9792L54.2018 48.1947L27.6775 63.8084L1.16488 48.2066L1.16488 16.9792L27.6775 1.3773M27.6775 0L0 16.3024L0 48.8834L27.7008 65.2096L55.3667 48.8834L55.3667 16.3024L27.6775 0Z" fill="rgb(29,29,27)" fill-rule="nonzero" transform="matrix(-1,-8.74228e-08,8.74228e-08,-1,574.739,116.064)" />
		<path id="Vector" d="M0 47.8504L0 15.9462L27.1067 0L54.2134 15.9462L54.2134 47.8504L27.1067 63.8085L0 47.8504Z" fill="rgb(255,225.25,148.75)" fill-opacity="0.460000008" fill-rule="nonzero" transform="matrix(-1,-8.74228e-08,8.74228e-08,-1,516.437,115.376)" />
		<path id="Vector" d="M27.7125 1.3773L54.2367 16.9792L54.2367 48.1947L27.7125 63.8084L1.16488 48.2066L1.16488 16.9792L27.6891 1.3773M27.6891 0L0 16.3024L0 48.8834L27.7125 65.2096L55.4016 48.9072L55.4016 16.3024L27.7125 0L27.6891 0Z" fill="rgb(29,29,27)" fill-rule="nonzero" transform="matrix(-1,-8.74228e-08,8.74228e-08,-1,517.043,116.064)" />
		<path id="Vector" d="M0 47.8504L0 15.9462L27.1067 0L54.2018 15.9462L54.2018 47.8504L27.1067 63.8085L0 47.8504Z" fill="rgb(255,225.25,148.75)" fill-opacity="0.460000008" fill-rule="nonzero" transform="matrix(-1,-8.74228e-08,8.74228e-08,-1,458.729,115.376)" />
		<path id="Vector" d="M27.6891 1.3773L54.2135 16.9792L54.2135 48.2066L27.6891 63.8084L1.16488 48.2066L1.16488 16.9792L27.6891 1.3773ZM27.6891 0L0 16.3024L0 48.8834L27.6891 65.2096L55.3783 48.9072L55.3783 16.3024L27.6891 0Z" fill="rgb(29,29,27)" fill-rule="nonzero" transform="matrix(-1,-8.74228e-08,8.74228e-08,-1,459.312,116.064)" />
		<path id="Vector" d="M0 47.8504L0 15.9462L27.1067 0L54.2134 15.9462L54.2134 47.8504L27.1067 63.8085L0 47.8504Z" fill="rgb(255,225.25,148.75)" fill-opacity="0.460000008" fill-rule="nonzero" transform="matrix(-1,-8.74228e-08,8.74228e-08,-1,343.325,115.376)" />
		<path id="Vector" d="M27.6891 1.3773L54.2018 16.9792L54.2018 48.2066L27.6891 63.8084L1.16488 48.2066L1.16488 16.9792L27.6891 1.3773ZM27.6891 0L0 16.3024L0 48.8834L27.6891 65.2096L55.3666 48.9072L55.3666 16.3024L27.6891 0Z" fill="rgb(29,29,27)" fill-rule="nonzero" transform="matrix(-1,-8.74228e-08,8.74228e-08,-1,343.896,116.064)" />
		<path id="Vector" d="M0 47.8504L0 15.9462L27.1067 0L54.2134 15.9462L54.2134 47.8504L27.1067 63.8085L0 47.8504Z" fill="rgb(255,225.25,148.75)" fill-opacity="0.460000008" fill-rule="nonzero" transform="matrix(-1,-8.74228e-08,8.74228e-08,-1,285.617,115.375)" />
		<path id="Vector" d="M27.6892 1.3773L54.2135 16.9792L54.2135 48.1947L27.6892 63.8084L1.16488 48.2066L1.16488 16.9792L27.6892 1.3773ZM27.6892 0L0 16.3024L0 48.8834L27.6892 65.2096L55.3784 48.9072L55.3784 16.3024L27.6892 0Z" fill="rgb(29,29,27)" fill-rule="nonzero" transform="matrix(-1,-8.74228e-08,8.74228e-08,-1,286.199,116.064)" />
		<path id="Vector" d="M27.6891 1.3773L54.2134 16.9792L54.2134 48.1947L27.6891 63.8084L1.16488 48.2066L1.16488 16.9792L27.6891 1.3773ZM27.6891 0L0 16.3024L0 48.8834L27.6891 65.2096L55.3783 48.9072L55.3783 16.3024L27.6891 0Z" fill="rgb(29,29,27)" fill-rule="nonzero" transform="matrix(-1,-8.74228e-08,8.74228e-08,-1,228.491,116.064)" />
		<path id="Vector" d="M0 47.8504L0 15.9462L27.0951 0L54.2018 15.9462L54.2018 47.8504L27.0951 63.8085L0 47.8504Z" fill="rgb(255,225.25,148.75)" fill-opacity="0.460000008" fill-rule="nonzero" transform="matrix(-1,-8.74228e-08,8.74228e-08,-1,170.201,115.376)" />
		<path id="Vector" d="M27.6892 1.3773L54.2135 16.9792L54.2135 48.2066L27.6892 63.8084L1.16488 48.2066L1.16488 16.9792L27.6892 1.3773ZM27.6892 0L0 16.3024L0 48.8834L27.6892 65.2096L55.3784 48.9072L55.3784 16.3024L27.6892 0Z" fill="rgb(29,29,27)" fill-rule="nonzero" transform="matrix(-1,-8.74228e-08,8.74228e-08,-1,170.806,116.064)" />
		<path id="Vector" d="M0 47.8504L0 15.9462L27.1067 0L54.2134 15.9462L54.2134 47.8504L27.1067 63.8085L0 47.8504Z" fill="rgb(255,225.25,148.75)" fill-opacity="0.460000008" fill-rule="nonzero" transform="matrix(-1,-8.74228e-08,8.74228e-08,-1,112.504,115.376)" />
		<path id="Vector" d="M27.6892 1.3773L54.2135 16.9792L54.2135 48.2066L27.6892 63.8084L1.16488 48.2066L1.16488 16.9792L27.6892 1.3773ZM27.6892 0L0 16.3024L0 48.8834L27.6892 65.2096L55.3784 48.9072L55.3784 16.3024L27.6892 0Z" fill="rgb(29,29,27)" fill-rule="nonzero" transform="matrix(-1,-8.74228e-08,8.74228e-08,-1,113.075,116.064)" />
		<path id="Vector" d="M0 47.8504L0 15.9462L27.1067 0L54.2134 15.9462L54.2134 47.8504L27.1067 63.8085L0 47.8504Z" fill="rgb(255,225.25,148.75)" fill-opacity="0.460000008" fill-rule="nonzero" transform="matrix(-1,-8.74228e-08,8.74228e-08,-1,545.291,64.4856)" />
		<path id="Vector" d="M27.6891 1.3773L54.2134 16.9792L54.2134 48.1948L27.6891 63.8086L1.16488 48.1948L1.16488 16.9792L27.6891 1.3773ZM27.6891 0L0 16.3024L0 48.8834L27.6891 65.1739L55.3783 48.8834L55.3783 16.3024L27.6891 0Z" fill="rgb(29,29,27)" fill-rule="nonzero" transform="matrix(-1,-8.74228e-08,8.74228e-08,-1,545.897,65.1742)" />
		<path id="Vector" d="M0 47.8504L0 15.9462L27.0951 0L54.2018 15.9462L54.2018 47.8504L27.0951 63.8085L0 47.8504Z" fill="rgb(255,225.25,148.75)" fill-opacity="0.460000008" fill-rule="nonzero" transform="matrix(-1,-8.74228e-08,8.74228e-08,-1,429.875,64.4855)" />
		<path id="Vector" d="M27.6892 1.3773L54.2135 16.9792L54.2135 48.1948L27.6892 63.8086L1.16488 48.1948L1.16488 16.9792L27.6892 1.3773ZM27.6892 0L0 16.3024L0 48.8834L27.6892 65.1739L55.3783 48.8834L55.3783 16.3024L27.6892 0Z" fill="rgb(29,29,27)" fill-rule="nonzero" transform="matrix(-1,-8.74228e-08,8.74228e-08,-1,430.457,65.174)" />
		<path id="Vector" d="M27.6775 1.3773L54.2018 16.9792L54.2018 48.1948L27.6775 63.8086L1.16488 48.1948L1.16488 16.9792L27.6775 1.3773ZM27.6775 0L0 16.3024L0 48.8834L27.6775 65.1739L55.3667 48.8834L55.3667 16.3024L27.6775 0Z" fill="rgb(29,29,27)" fill-rule="nonzero" transform="matrix(-1,-8.74228e-08,8.74228e-08,-1,315.041,65.174)" />
		<path id="Vector" d="M0 47.8504L0 15.9462L27.1067 0L54.2018 15.9462L54.2018 47.8504L27.1067 63.8085L0 47.8504Z" fill="rgb(255,225.25,148.75)" fill-opacity="0.460000008" fill-rule="nonzero" transform="matrix(-1,-8.74228e-08,8.74228e-08,-1,199.055,64.4856)" />
		<path id="Vector" d="M27.7124 1.3773L54.2134 16.9792L54.2134 48.1948L27.6891 63.8086L1.16488 48.1948L1.16488 16.9792L27.6891 1.3773M27.6891 0L0 16.3024L0 48.8834L27.6891 65.1739L55.3783 48.8834L55.3783 16.3024L27.6891 0Z" fill="rgb(29,29,27)" fill-rule="nonzero" transform="matrix(-1,-8.74228e-08,8.74228e-08,-1,199.66,65.1742)" />
	</g>
</svg>
