<svg viewBox="0 0 209.21 210.211" xmlns="http://www.w3.org/2000/svg" xmlns:xlink="http://www.w3.org/1999/xlink" width="209.209686" height="210.210693" fill="none" customFrame="#000000">
	<defs>
		<radialGradient id="paint_radial_10" cx="0" cy="0" r="1" gradientUnits="userSpaceOnUse" gradientTransform="matrix(73.4558,107.752,-152.797,104.163,2.78946,3.73708)">
			<stop stop-color="rgb(255,225.25,148.75)" offset="0" stop-opacity="1" />
			<stop stop-color="rgb(242.25,187.189,89.8344)" offset="0.177083328" stop-opacity="0.876811624" />
			<stop stop-color="rgb(191,122,0)" offset="0.359375" stop-opacity="0.75" />
			<stop stop-color="rgb(191,122,0)" offset="1" stop-opacity="0" />
			<stop stop-color="rgb(15,18,24)" offset="1" stop-opacity="0" />
		</radialGradient>
		<radialGradient id="paint_radial_11" cx="0" cy="0" r="1" gradientUnits="userSpaceOnUse" gradientTransform="matrix(-88.0103,-50.3763,50.1364,-87.5912,192.911,155.277)">
			<stop stop-color="rgb(255,225,149)" offset="0" stop-opacity="1" />
			<stop stop-color="rgb(242,187,90)" offset="0.166666672" stop-opacity="0.800000012" />
			<stop stop-color="rgb(191,122,0)" offset="0.328125" stop-opacity="0.75" />
			<stop stop-color="rgb(11,11,11)" offset="1" stop-opacity="0" />
		</radialGradient>
		<clipPath id="clipPath_7">
			<rect width="114.000000" height="135.000000" x="47.534943" y="37.258789" fill="rgb(255,255,255)" />
		</clipPath>
		<linearGradient id="paint_linear_61" x1="103.187332" x2="103.187332" y1="60.9375" y2="148.695312" gradientUnits="userSpaceOnUse">
			<stop stop-color="rgb(255,186.294,64.8125)" offset="0" stop-opacity="1" />
			<stop stop-color="rgb(255,251,189)" offset="1" stop-opacity="1" />
		</linearGradient>
		<linearGradient id="paint_linear_62" x1="126.964874" x2="126.964874" y1="113.453613" y2="141.867081" gradientUnits="userSpaceOnUse">
			<stop stop-color="rgb(255,186.294,64.8125)" offset="0" stop-opacity="1" />
			<stop stop-color="rgb(255,251,189)" offset="1" stop-opacity="1" />
		</linearGradient>
		<linearGradient id="paint_linear_63" x1="114.376663" x2="114.376663" y1="117.925049" y2="120.722374" gradientUnits="userSpaceOnUse">
			<stop stop-color="rgb(255,186.294,64.8125)" offset="0" stop-opacity="1" />
			<stop stop-color="rgb(255,251,189)" offset="1" stop-opacity="1" />
		</linearGradient>
		<linearGradient id="paint_linear_64" x1="114.376663" x2="114.376663" y1="112.330322" y2="115.127647" gradientUnits="userSpaceOnUse">
			<stop stop-color="rgb(255,186.294,64.8125)" offset="0" stop-opacity="1" />
			<stop stop-color="rgb(255,251,189)" offset="1" stop-opacity="1" />
		</linearGradient>
		<linearGradient id="paint_linear_65" x1="114.376663" x2="114.376663" y1="106.73584" y2="109.533165" gradientUnits="userSpaceOnUse">
			<stop stop-color="rgb(255,186.294,64.8125)" offset="0" stop-opacity="1" />
			<stop stop-color="rgb(255,251,189)" offset="1" stop-opacity="1" />
		</linearGradient>
		<g id="pixso_custom_effect_12">
			<effect visibility="visible" effectType="backgroundBlur" saturation="0" stdDeviation="8" />
		</g>
		<filter id="filter_12" width="209.209686" height="210.210693" x="0.000000" y="0.000000" filterUnits="userSpaceOnUse" customEffect="url(#pixso_custom_effect_12)" color-interpolation-filters="sRGB">
			<feFlood flood-opacity="0" result="BackgroundImageFix" />
			<feGaussianBlur stdDeviation="2.66666675" in="BackgroundImage" />
			<feComposite result="effect_backgroundBlur_1" in2="SourceAlpha" operator="in" />
			<feBlend result="shape" in="SourceGraphic" in2="effect_backgroundBlur_1" mode="normal" />
		</filter>
		<linearGradient id="paint_linear_66" x1="104.534943" x2="104.534943" y1="-20.241148" y2="252.258865" gradientUnits="userSpaceOnUse">
			<stop stop-color="rgb(0,0,0)" offset="0.292041689" stop-opacity="1" />
			<stop stop-color="rgb(123.462,79.2325,1.02886)" offset="0.825870812" stop-opacity="1" />
		</linearGradient>
		<radialGradient id="paint_radial_12" cx="0" cy="0" r="1" gradientUnits="userSpaceOnUse" gradientTransform="matrix(73.4558,107.752,-152.797,104.163,2.78946,3.73708)">
			<stop stop-color="rgb(255,225.25,148.75)" offset="0" stop-opacity="1" />
			<stop stop-color="rgb(242.25,187.189,89.8344)" offset="0.177083328" stop-opacity="0.876811624" />
			<stop stop-color="rgb(191,122,0)" offset="0.359375" stop-opacity="0.75" />
			<stop stop-color="rgb(191,122,0)" offset="1" stop-opacity="0" />
			<stop stop-color="rgb(15,18,24)" offset="1" stop-opacity="0" />
		</radialGradient>
		<radialGradient id="paint_radial_13" cx="0" cy="0" r="1" gradientUnits="userSpaceOnUse" gradientTransform="matrix(-88.0103,-50.3763,50.1364,-87.5912,192.911,155.277)">
			<stop stop-color="rgb(255,225,149)" offset="0" stop-opacity="1" />
			<stop stop-color="rgb(242,187,90)" offset="0.166666672" stop-opacity="0.800000012" />
			<stop stop-color="rgb(191,122,0)" offset="0.328125" stop-opacity="0.75" />
			<stop stop-color="rgb(11,11,11)" offset="1" stop-opacity="0" />
		</radialGradient>
	</defs>
	<rect id="Frame 10" width="209.209671" height="210.210678" x="0.000000" y="0.000000" />
	<path id="Polygon 6" d="M185.72 47.0558C191.585 50.4584 195.195 56.7263 195.195 63.5071L195.195 146.704C195.195 153.484 191.585 159.752 185.72 163.155L114.148 204.674C108.247 208.098 100.963 208.098 95.0612 204.674L23.4899 163.155C17.6245 159.752 14.0144 153.484 14.0144 146.704L14.0144 63.5071C14.0144 56.7263 17.6245 50.4584 23.4898 47.0558L95.0612 5.53636C100.963 2.11265 108.247 2.11265 114.148 5.53636L185.72 47.0558Z" fill="rgb(242.25,187.189,89.8344)" fill-opacity="0.100000001" fill-rule="evenodd" />
	<path id="Polygon 6" d="M188.982 47.1193C188.233 46.5336 187.443 45.9998 186.612 45.5179L115.041 3.99842C114.204 3.5131 113.342 3.08962 112.455 2.72798C111.646 2.39803 110.816 2.11955 109.964 1.89256C109.108 1.66423 108.244 1.4916 107.373 1.37468C106.458 1.25195 105.536 1.19059 104.605 1.19059C103.674 1.19059 102.751 1.25195 101.837 1.37468C100.966 1.4916 100.102 1.66423 99.2454 1.89256C98.3941 2.11957 97.5637 2.39806 96.7544 2.72804C95.8674 3.08967 95.0056 3.51313 94.1691 3.99842L22.5977 45.5179C21.7668 45.9999 20.9765 46.5338 20.2267 47.1196C19.5416 47.655 18.8903 48.2337 18.2729 48.8558C17.6524 49.481 17.076 50.14 16.5435 50.8328C15.9844 51.5603 15.4739 52.3251 15.0119 53.1272C14.55 53.9292 14.1447 54.7544 13.796 55.603C13.4638 56.4113 13.183 57.2408 12.9535 58.0914C12.7253 58.9373 12.5515 59.7908 12.4323 60.6519C12.3017 61.5946 12.2364 62.5463 12.2364 63.5071L12.2364 146.704C12.2364 147.665 12.3017 148.617 12.4324 149.56C12.5517 150.421 12.7254 151.274 12.9535 152.119C13.1831 152.97 13.4641 153.8 13.7965 154.609C14.1451 155.457 14.5502 156.282 15.0119 157.083C15.4739 157.886 15.9845 158.65 16.5436 159.378C17.076 160.071 17.6525 160.73 18.2729 161.355C18.8899 161.977 19.5406 162.555 20.2252 163.09C20.9754 163.676 21.7662 164.21 22.5977 164.693L94.1691 206.212C95.0061 206.698 95.8684 207.122 96.7559 207.483C97.5648 207.813 98.3946 208.091 99.2454 208.318C100.102 208.546 100.965 208.719 101.836 208.836C102.751 208.959 103.674 209.02 104.605 209.02C105.536 209.02 106.459 208.959 107.373 208.836C108.244 208.719 109.108 208.546 109.964 208.318C110.815 208.091 111.645 207.813 112.454 207.483C113.341 207.122 114.204 206.698 115.041 206.212L186.612 164.693C187.443 164.211 188.234 163.677 188.984 163.09C189.669 162.555 190.32 161.977 190.937 161.355C191.556 160.731 192.132 160.072 192.664 159.38C193.224 158.652 193.735 157.887 194.198 157.083C194.659 156.282 195.064 155.457 195.413 154.609C195.746 153.8 196.027 152.97 196.256 152.119C196.484 151.274 196.658 150.421 196.777 149.56C196.908 148.617 196.973 147.665 196.973 146.704L196.973 63.5071C196.973 62.5464 196.908 61.5948 196.777 60.6522C196.658 59.7911 196.484 58.9374 196.256 58.0913C196.026 57.2395 195.745 56.4089 195.412 55.5994C195.064 54.7522 194.659 53.9281 194.198 53.1272C193.735 52.3241 193.224 51.5584 192.664 50.8301C192.132 50.1382 191.556 49.4801 190.937 48.8558C190.319 48.2336 189.668 47.6547 188.982 47.1193ZM195.195 63.5071C195.195 56.7263 191.585 50.4584 185.72 47.0558L114.148 5.53636C108.247 2.11265 100.963 2.11265 95.0612 5.53636L23.4898 47.0558C17.6245 50.4584 14.0144 56.7263 14.0144 63.5071L14.0144 146.704C14.0144 153.484 17.6245 159.752 23.4899 163.155L95.0612 204.674C100.963 208.098 108.247 208.098 114.148 204.674L185.72 163.155C191.585 159.752 195.195 153.484 195.195 146.704L195.195 63.5071Z" fill="url(#paint_radial_10)" fill-rule="evenodd" />
	<path id="Polygon 6" d="M188.982 47.1193C188.233 46.5336 187.443 45.9998 186.612 45.5179L115.041 3.99842C114.204 3.5131 113.342 3.08962 112.455 2.72798C111.646 2.39803 110.816 2.11955 109.964 1.89256C109.108 1.66423 108.244 1.4916 107.373 1.37468C106.458 1.25195 105.536 1.19059 104.605 1.19059C103.674 1.19059 102.751 1.25195 101.837 1.37468C100.966 1.4916 100.102 1.66423 99.2454 1.89256C98.3941 2.11957 97.5637 2.39806 96.7544 2.72804C95.8674 3.08967 95.0056 3.51313 94.1691 3.99842L22.5977 45.5179C21.7668 45.9999 20.9765 46.5338 20.2267 47.1196C19.5416 47.655 18.8903 48.2337 18.2729 48.8558C17.6524 49.481 17.076 50.14 16.5435 50.8328C15.9844 51.5603 15.4739 52.3251 15.0119 53.1272C14.55 53.9292 14.1447 54.7544 13.796 55.603C13.4638 56.4113 13.183 57.2408 12.9535 58.0914C12.7253 58.9373 12.5515 59.7908 12.4323 60.6519C12.3017 61.5946 12.2364 62.5463 12.2364 63.5071L12.2364 146.704C12.2364 147.665 12.3017 148.617 12.4324 149.56C12.5517 150.421 12.7254 151.274 12.9535 152.119C13.1831 152.97 13.4641 153.8 13.7965 154.609C14.1451 155.457 14.5502 156.282 15.0119 157.083C15.4739 157.886 15.9845 158.65 16.5436 159.378C17.076 160.071 17.6525 160.73 18.2729 161.355C18.8899 161.977 19.5406 162.555 20.2252 163.09C20.9754 163.676 21.7662 164.21 22.5977 164.693L94.1691 206.212C95.0061 206.698 95.8684 207.122 96.7559 207.483C97.5648 207.813 98.3946 208.091 99.2454 208.318C100.102 208.546 100.965 208.719 101.836 208.836C102.751 208.959 103.674 209.02 104.605 209.02C105.536 209.02 106.459 208.959 107.373 208.836C108.244 208.719 109.108 208.546 109.964 208.318C110.815 208.091 111.645 207.813 112.454 207.483C113.341 207.122 114.204 206.698 115.041 206.212L186.612 164.693C187.443 164.211 188.234 163.677 188.984 163.09C189.669 162.555 190.32 161.977 190.937 161.355C191.556 160.731 192.132 160.072 192.664 159.38C193.224 158.652 193.735 157.887 194.198 157.083C194.659 156.282 195.064 155.457 195.413 154.609C195.746 153.8 196.027 152.97 196.256 152.119C196.484 151.274 196.658 150.421 196.777 149.56C196.908 148.617 196.973 147.665 196.973 146.704L196.973 63.5071C196.973 62.5464 196.908 61.5948 196.777 60.6522C196.658 59.7911 196.484 58.9374 196.256 58.0913C196.026 57.2395 195.745 56.4089 195.412 55.5994C195.064 54.7522 194.659 53.9281 194.198 53.1272C193.735 52.3241 193.224 51.5584 192.664 50.8301C192.132 50.1382 191.556 49.4801 190.937 48.8558C190.319 48.2336 189.668 47.6547 188.982 47.1193ZM195.195 63.5071C195.195 56.7263 191.585 50.4584 185.72 47.0558L114.148 5.53636C108.247 2.11265 100.963 2.11265 95.0612 5.53636L23.4898 47.0558C17.6245 50.4584 14.0144 56.7263 14.0144 63.5071L14.0144 146.704C14.0144 153.484 17.6245 159.752 23.4899 163.155L95.0612 204.674C100.963 208.098 108.247 208.098 114.148 204.674L185.72 163.155C191.585 159.752 195.195 153.484 195.195 146.704L195.195 63.5071Z" fill="url(#paint_radial_11)" fill-rule="evenodd" />
	<g id="Frame 19" clip-path="url(#clipPath_7)" customFrame="url(#clipPath_7)">
		<rect id="Frame 19" width="114.000000" height="135.000000" x="47.534943" y="37.258789" />
		<g id="Group">
			<path id="Vector" d="M142.35 87.1544L135.131 87.1544C136.992 85.3529 138.154 82.8342 138.154 80.0448C138.154 78.0012 137.535 76.0375 136.364 74.3634L126.965 60.9375L117.565 74.3634C116.395 76.0375 115.775 78.0031 115.775 80.0448C115.775 82.834 116.937 85.3516 118.798 87.1544L111.579 87.1544C109.266 87.1544 107.383 89.0369 107.383 91.3503L107.383 126.317L101.789 126.317L101.789 96.945C101.789 94.6315 99.9062 92.749 97.5927 92.749L93.2431 92.749C95.0613 90.9701 96.194 88.4943 96.194 85.7557L96.194 85.4997C96.194 83.5596 95.6246 81.6827 94.5494 80.0686L86.4034 67.8484L78.2574 80.0673C77.1822 81.6814 76.6127 83.5596 76.6127 85.4995L76.6127 85.7555C76.6127 88.4942 77.7454 90.9699 79.5637 92.7488L75.2141 92.7488C72.9006 92.7488 71.0181 94.6314 71.0181 96.9448L71.0181 126.317L59.8288 126.317L59.8288 133.31C59.8288 136.686 62.2359 139.512 65.4234 140.162L65.4234 141.702C65.4234 145.558 68.5604 148.695 72.4168 148.695L100.39 148.695C104.246 148.695 107.383 145.558 107.383 141.702L107.383 144.499C107.383 146.813 109.266 148.695 111.579 148.695L142.35 148.695C144.663 148.695 146.546 146.813 146.546 144.499L146.546 91.3501C146.546 89.0367 144.663 87.1542 142.35 87.1542L142.35 87.1544ZM118.573 80.0448C118.573 78.5787 119.017 77.1695 119.858 75.9674L126.965 65.8165L134.071 75.9694C134.912 77.1695 135.357 78.5794 135.357 80.0448C135.357 83.9654 132.168 87.1544 128.247 87.1544L125.681 87.1544C121.761 87.1544 118.572 83.9656 118.572 80.0448L118.573 80.0448ZM79.4101 85.7557L79.4101 85.4997C79.4101 84.1135 79.8172 82.7724 80.5852 81.6197L86.4033 72.8924L92.2214 81.6203C92.9895 82.773 93.3966 84.1143 93.3966 85.5003L93.3966 85.7557C93.3966 89.612 90.2596 92.749 86.4033 92.749C82.547 92.749 79.4101 89.612 79.4101 85.7557ZM75.2141 95.5463L87.802 95.5463L87.802 119.33C87.802 120.098 87.1739 120.723 86.4034 120.723C85.6329 120.723 85.006 120.099 85.006 119.331L85.006 105.335C85.006 104.214 84.5695 103.159 83.7765 102.367C82.9835 101.577 81.9301 101.142 80.8088 101.142C78.4953 101.142 76.6128 103.024 76.6128 105.338L76.6128 110.932C76.6128 111.704 75.9847 112.331 75.2141 112.331C74.4436 112.331 73.8155 111.704 73.8155 110.932L73.8155 96.9458C73.8155 96.1752 74.4436 95.5471 75.2141 95.5471L75.2141 95.5463ZM73.8154 114.87C74.2544 115.027 74.7221 115.128 75.2141 115.128C77.5275 115.128 79.4101 113.245 79.4101 110.932L79.4101 105.337C79.4101 104.566 80.0382 103.938 80.8087 103.938C81.1834 103.938 81.5362 104.084 81.8003 104.347C82.0632 104.609 82.2086 104.959 82.2086 105.334L82.2086 119.33C82.2086 121.639 84.09 123.519 86.4034 123.519C88.7167 123.519 90.5993 121.639 90.5993 119.329L90.5993 95.5453L97.5927 95.5453C98.3632 95.5453 98.9913 96.1735 98.9913 96.944L98.9913 126.316L73.8154 126.316L73.8154 114.87ZM62.6261 133.31L62.6261 129.114L110.181 129.114L110.181 133.31C110.181 135.624 108.298 137.506 105.985 137.506L66.8221 137.506C64.5086 137.506 62.6261 135.624 62.6261 133.31ZM100.39 145.898L72.4168 145.898C70.1033 145.898 68.2208 144.016 68.2208 141.702L68.2208 140.304L104.586 140.304L104.586 141.702C104.586 144.016 102.703 145.898 100.39 145.898ZM142.35 145.898L111.579 145.898C110.809 145.898 110.181 145.271 110.181 144.5L110.181 138.869C111.869 137.59 112.978 135.584 112.978 133.31L112.978 126.317L110.181 126.317L110.181 91.3503C110.181 90.5798 110.809 89.9517 111.579 89.9517L126.965 89.9517L126.965 102.54C126.965 104.853 128.847 106.736 131.161 106.736C133.474 106.736 135.357 104.853 135.357 102.54L135.357 96.945C135.357 96.1745 135.985 95.5463 136.755 95.5463C137.13 95.5463 137.483 95.6918 137.747 95.9547C138.01 96.2176 138.155 96.5672 138.155 96.9419L138.155 110.938C138.155 113.247 140.037 115.128 142.35 115.128C142.842 115.128 143.31 115.027 143.749 114.87L143.749 144.5C143.749 145.271 143.12 145.898 142.35 145.898ZM143.749 110.938C143.749 111.706 143.12 112.331 142.35 112.331C141.579 112.331 140.952 111.707 140.952 110.939L140.952 96.9432C140.952 95.8218 140.516 94.7672 139.723 93.9755C138.93 93.185 137.877 92.7498 136.755 92.7498C134.442 92.7498 132.559 94.6323 132.559 96.9458L132.559 102.54C132.559 103.311 131.931 103.939 131.161 103.939C130.39 103.939 129.762 103.311 129.762 102.54L129.762 89.9524L142.35 89.9524C143.12 89.9524 143.749 90.5806 143.749 91.3511L143.749 110.938Z" fill="url(#paint_linear_61)" fill-opacity="0.876811624" fill-rule="nonzero" />
			<path id="Vector" d="M133.958 124.918L131.782 124.918C132.263 124.092 132.559 123.145 132.559 122.121C132.559 120.331 131.699 118.753 130.389 117.729L131.134 114.004L128.392 113.455L127.761 116.608C127.497 116.568 127.238 116.526 126.965 116.526C126.692 116.526 126.432 116.568 126.169 116.606L125.538 113.454L122.795 114.003L123.541 117.728C122.231 118.753 121.37 120.331 121.37 122.121C121.37 123.145 121.667 124.092 122.148 124.918L119.972 124.918C117.658 124.918 115.776 126.801 115.776 129.114C115.776 131.428 117.658 133.31 119.972 133.31C120.946 133.31 121.888 133.145 122.769 132.84L122.769 135.776C122.769 138.237 124.137 140.451 126.34 141.554L126.965 141.867L127.59 141.554C129.793 140.452 131.161 138.238 131.161 135.777L131.161 132.841C132.042 133.145 132.983 133.31 133.958 133.31C136.272 133.31 138.154 131.428 138.154 129.114C138.154 126.801 136.272 124.918 133.958 124.918L133.958 124.918ZM129.762 122.121C129.762 123.664 128.508 124.918 126.965 124.918C125.422 124.918 124.167 123.664 124.167 122.121C124.167 120.578 125.422 119.324 126.965 119.324C128.508 119.324 129.762 120.578 129.762 122.121ZM118.573 129.114C118.573 128.343 119.201 127.716 119.971 127.716L124.917 127.716C123.898 129.419 122.042 130.513 119.971 130.513C119.201 130.513 118.573 129.886 118.573 129.114ZM126.965 138.658C126.174 138.04 125.695 137.12 125.603 136.108L128.325 136.108C128.235 137.12 127.755 138.039 126.965 138.658ZM128.363 133.31L125.566 133.31L125.566 131.202C126.09 130.748 126.562 130.236 126.965 129.664C127.367 130.237 127.839 130.749 128.363 131.202L128.363 133.31ZM133.958 130.513C131.889 130.513 130.034 129.419 129.012 127.716L133.958 127.716C134.728 127.716 135.357 128.343 135.357 129.114C135.357 129.886 134.728 130.513 133.958 130.513Z" fill="url(#paint_linear_62)" fill-opacity="0.876811624" fill-rule="nonzero" />
			<path id="Vector" d="M112.978 117.925L115.775 117.925L115.775 120.722L112.978 120.722L112.978 117.925Z" fill="url(#paint_linear_63)" fill-opacity="0.876811624" fill-rule="nonzero" />
			<path id="Vector" d="M112.978 112.33L115.775 112.33L115.775 115.128L112.978 115.128L112.978 112.33Z" fill="url(#paint_linear_64)" fill-opacity="0.876811624" fill-rule="nonzero" />
			<path id="Vector" d="M112.978 106.736L115.775 106.736L115.775 109.533L112.978 109.533L112.978 106.736Z" fill="url(#paint_linear_65)" fill-opacity="0.876811624" fill-rule="nonzero" />
		</g>
	</g>
	<g filter="url(#filter_12)">
		<path id="Polygon 7" d="M185.72 47.0558C191.585 50.4584 195.195 56.7263 195.195 63.5071L195.195 146.704C195.195 153.484 191.585 159.752 185.72 163.155L114.148 204.674C108.247 208.098 100.963 208.098 95.0612 204.674L23.4899 163.155C17.6245 159.752 14.0144 153.484 14.0144 146.704L14.0144 63.5071C14.0144 56.7263 17.6245 50.4584 23.4898 47.0558L95.0612 5.53636C100.963 2.11265 108.247 2.11265 114.148 5.53636L185.72 47.0558Z" opacity="0" fill="url(#paint_linear_66)" fill-opacity="0.649999976" fill-rule="evenodd" />
		<path id="Polygon 7" d="M188.982 47.1193C188.233 46.5336 187.443 45.9998 186.612 45.5179L115.041 3.99842C114.204 3.5131 113.342 3.08962 112.455 2.72798C111.646 2.39803 110.816 2.11955 109.964 1.89256C109.108 1.66423 108.244 1.4916 107.373 1.37468C106.458 1.25195 105.536 1.19059 104.605 1.19059C103.674 1.19059 102.751 1.25195 101.837 1.37468C100.966 1.4916 100.102 1.66423 99.2454 1.89256C98.3941 2.11957 97.5637 2.39806 96.7544 2.72804C95.8674 3.08967 95.0056 3.51313 94.1691 3.99842L22.5977 45.5179C21.7668 45.9999 20.9765 46.5338 20.2267 47.1196C19.5416 47.655 18.8903 48.2337 18.2729 48.8558C17.6524 49.481 17.076 50.14 16.5435 50.8328C15.9844 51.5603 15.4739 52.3251 15.0119 53.1272C14.55 53.9292 14.1447 54.7544 13.796 55.603C13.4638 56.4113 13.183 57.2408 12.9535 58.0914C12.7253 58.9373 12.5515 59.7908 12.4323 60.6519C12.3017 61.5946 12.2364 62.5463 12.2364 63.5071L12.2364 146.704C12.2364 147.665 12.3017 148.617 12.4324 149.56C12.5517 150.421 12.7254 151.274 12.9535 152.119C13.1831 152.97 13.4641 153.8 13.7965 154.609C14.1451 155.457 14.5502 156.282 15.0119 157.083C15.4739 157.886 15.9845 158.65 16.5436 159.378C17.076 160.071 17.6525 160.73 18.2729 161.355C18.8899 161.977 19.5406 162.555 20.2252 163.09C20.9754 163.676 21.7662 164.21 22.5977 164.693L94.1691 206.212C95.0061 206.698 95.8684 207.122 96.7559 207.483C97.5648 207.813 98.3946 208.091 99.2454 208.318C100.102 208.546 100.965 208.719 101.836 208.836C102.751 208.959 103.674 209.02 104.605 209.02C105.536 209.02 106.459 208.959 107.373 208.836C108.244 208.719 109.108 208.546 109.964 208.318C110.815 208.091 111.645 207.813 112.454 207.483C113.341 207.122 114.204 206.698 115.041 206.212L186.612 164.693C187.443 164.211 188.234 163.677 188.984 163.09C189.669 162.555 190.32 161.977 190.937 161.355C191.556 160.731 192.132 160.072 192.664 159.38C193.224 158.652 193.735 157.887 194.198 157.083C194.659 156.282 195.064 155.457 195.413 154.609C195.746 153.8 196.027 152.97 196.256 152.119C196.484 151.274 196.658 150.421 196.777 149.56C196.908 148.617 196.973 147.665 196.973 146.704L196.973 63.5071C196.973 62.5464 196.908 61.5948 196.777 60.6522C196.658 59.7911 196.484 58.9374 196.256 58.0913C196.026 57.2395 195.745 56.4089 195.412 55.5994C195.064 54.7522 194.659 53.9281 194.198 53.1272C193.735 52.3241 193.224 51.5584 192.664 50.8301C192.132 50.1382 191.556 49.4801 190.937 48.8558C190.319 48.2336 189.668 47.6547 188.982 47.1193ZM195.195 63.5071C195.195 56.7263 191.585 50.4584 185.72 47.0558L114.148 5.53636C108.247 2.11265 100.963 2.11265 95.0612 5.53636L23.4898 47.0558C17.6245 50.4584 14.0144 56.7263 14.0144 63.5071L14.0144 146.704C14.0144 153.484 17.6245 159.752 23.4899 163.155L95.0612 204.674C100.963 208.098 108.247 208.098 114.148 204.674L185.72 163.155C191.585 159.752 195.195 153.484 195.195 146.704L195.195 63.5071Z" opacity="0" fill="url(#paint_radial_12)" fill-rule="evenodd" />
		<path id="Polygon 7" d="M188.982 47.1193C188.233 46.5336 187.443 45.9998 186.612 45.5179L115.041 3.99842C114.204 3.5131 113.342 3.08962 112.455 2.72798C111.646 2.39803 110.816 2.11955 109.964 1.89256C109.108 1.66423 108.244 1.4916 107.373 1.37468C106.458 1.25195 105.536 1.19059 104.605 1.19059C103.674 1.19059 102.751 1.25195 101.837 1.37468C100.966 1.4916 100.102 1.66423 99.2454 1.89256C98.3941 2.11957 97.5637 2.39806 96.7544 2.72804C95.8674 3.08967 95.0056 3.51313 94.1691 3.99842L22.5977 45.5179C21.7668 45.9999 20.9765 46.5338 20.2267 47.1196C19.5416 47.655 18.8903 48.2337 18.2729 48.8558C17.6524 49.481 17.076 50.14 16.5435 50.8328C15.9844 51.5603 15.4739 52.3251 15.0119 53.1272C14.55 53.9292 14.1447 54.7544 13.796 55.603C13.4638 56.4113 13.183 57.2408 12.9535 58.0914C12.7253 58.9373 12.5515 59.7908 12.4323 60.6519C12.3017 61.5946 12.2364 62.5463 12.2364 63.5071L12.2364 146.704C12.2364 147.665 12.3017 148.617 12.4324 149.56C12.5517 150.421 12.7254 151.274 12.9535 152.119C13.1831 152.97 13.4641 153.8 13.7965 154.609C14.1451 155.457 14.5502 156.282 15.0119 157.083C15.4739 157.886 15.9845 158.65 16.5436 159.378C17.076 160.071 17.6525 160.73 18.2729 161.355C18.8899 161.977 19.5406 162.555 20.2252 163.09C20.9754 163.676 21.7662 164.21 22.5977 164.693L94.1691 206.212C95.0061 206.698 95.8684 207.122 96.7559 207.483C97.5648 207.813 98.3946 208.091 99.2454 208.318C100.102 208.546 100.965 208.719 101.836 208.836C102.751 208.959 103.674 209.02 104.605 209.02C105.536 209.02 106.459 208.959 107.373 208.836C108.244 208.719 109.108 208.546 109.964 208.318C110.815 208.091 111.645 207.813 112.454 207.483C113.341 207.122 114.204 206.698 115.041 206.212L186.612 164.693C187.443 164.211 188.234 163.677 188.984 163.09C189.669 162.555 190.32 161.977 190.937 161.355C191.556 160.731 192.132 160.072 192.664 159.38C193.224 158.652 193.735 157.887 194.198 157.083C194.659 156.282 195.064 155.457 195.413 154.609C195.746 153.8 196.027 152.97 196.256 152.119C196.484 151.274 196.658 150.421 196.777 149.56C196.908 148.617 196.973 147.665 196.973 146.704L196.973 63.5071C196.973 62.5464 196.908 61.5948 196.777 60.6522C196.658 59.7911 196.484 58.9374 196.256 58.0913C196.026 57.2395 195.745 56.4089 195.412 55.5994C195.064 54.7522 194.659 53.9281 194.198 53.1272C193.735 52.3241 193.224 51.5584 192.664 50.8301C192.132 50.1382 191.556 49.4801 190.937 48.8558C190.319 48.2336 189.668 47.6547 188.982 47.1193ZM195.195 63.5071C195.195 56.7263 191.585 50.4584 185.72 47.0558L114.148 5.53636C108.247 2.11265 100.963 2.11265 95.0612 5.53636L23.4898 47.0558C17.6245 50.4584 14.0144 56.7263 14.0144 63.5071L14.0144 146.704C14.0144 153.484 17.6245 159.752 23.4899 163.155L95.0612 204.674C100.963 208.098 108.247 208.098 114.148 204.674L185.72 163.155C191.585 159.752 195.195 153.484 195.195 146.704L195.195 63.5071Z" opacity="0" fill="url(#paint_radial_13)" fill-rule="evenodd" />
	</g>
	<path id="BEESWAX" d="M48.7349 113.543L48.7349 111.959C49.1029 111.943 49.4069 111.895 49.6469 111.815C49.9029 111.735 50.0949 111.551 50.2229 111.263C50.3669 110.975 50.4389 110.511 50.4389 109.871L50.4389 100.679C50.4389 100.247 50.4469 99.8308 50.4629 99.4308C50.4949 99.0308 50.5189 98.7268 50.5349 98.5188C50.2789 98.5348 49.9589 98.5508 49.5749 98.5668C49.1909 98.5668 48.9109 98.5748 48.7349 98.5908L48.7349 96.7428C49.8389 96.7268 50.9429 96.7188 52.0469 96.7188C53.1669 96.7188 54.2789 96.7108 55.3829 96.6948C57.3029 96.6788 58.8229 97.0388 59.9429 97.7748C61.0789 98.4948 61.6069 99.5908 61.5269 101.063C61.4949 101.527 61.3509 101.983 61.0949 102.431C60.8389 102.863 60.4549 103.255 59.9429 103.607C59.4469 103.959 58.8229 104.239 58.0709 104.447L58.0709 104.471C59.6709 104.727 60.8469 105.263 61.5989 106.079C62.3509 106.879 62.7269 107.775 62.7269 108.767C62.7269 109.807 62.4709 110.687 61.9589 111.407C61.4629 112.111 60.7749 112.647 59.8949 113.015C59.0149 113.367 58.0149 113.543 56.8949 113.543L48.7349 113.543ZM53.8229 111.839C54.1109 111.839 54.3829 111.839 54.6389 111.839C54.8949 111.839 55.1509 111.839 55.4069 111.839C55.6629 111.823 55.9109 111.815 56.1509 111.815C57.1269 111.767 57.8389 111.455 58.2869 110.879C58.7349 110.303 58.9589 109.575 58.9589 108.695C58.9589 107.959 58.8069 107.383 58.5029 106.967C58.1989 106.535 57.8069 106.231 57.3269 106.055C56.8629 105.879 56.3749 105.791 55.8629 105.791C55.4629 105.791 55.1189 105.791 54.8309 105.791C54.5429 105.791 54.2389 105.799 53.9189 105.815L53.9189 109.727C53.9189 110.159 53.9109 110.567 53.8949 110.951C53.8789 111.335 53.8549 111.631 53.8229 111.839ZM53.9189 104.111L55.1669 104.087C55.8389 104.071 56.3669 103.919 56.7509 103.631C57.1509 103.343 57.4309 102.959 57.5909 102.479C57.7669 101.983 57.8549 101.447 57.8549 100.871C57.8549 100.231 57.7269 99.7348 57.4709 99.3828C57.2149 99.0148 56.8949 98.7508 56.5109 98.5908C56.1269 98.4308 55.7269 98.3588 55.3109 98.3748C55.0549 98.3748 54.8229 98.4148 54.6149 98.4948C54.4069 98.5748 54.2389 98.7588 54.1109 99.0468C53.9829 99.3188 53.9189 99.7668 53.9189 100.391L53.9189 104.111ZM72.5043 107.759C72.5043 107.087 72.4003 106.607 72.1923 106.319C71.9843 106.015 71.6963 105.823 71.3283 105.743C70.9763 105.663 70.5843 105.631 70.1523 105.647L69.5283 105.671L69.5283 109.607C69.5283 110.039 69.5203 110.447 69.5043 110.831C69.4883 111.215 69.4643 111.511 69.4323 111.719L72.6483 111.719C73.1283 111.719 73.5923 111.615 74.0403 111.407C74.4883 111.183 74.8563 110.823 75.1443 110.327C75.4323 109.815 75.5763 109.127 75.5763 108.263L77.1363 108.263L77.0163 113.543L64.3443 113.543L64.3443 111.959C64.7123 111.943 65.0163 111.895 65.2563 111.815C65.5123 111.735 65.7043 111.551 65.8323 111.263C65.9763 110.975 66.0483 110.511 66.0483 109.871L66.0483 100.679C66.0483 100.247 66.0563 99.8308 66.0723 99.4308C66.1043 99.0308 66.1283 98.7268 66.1443 98.5188C65.8883 98.5348 65.5683 98.5508 65.1843 98.5668C64.8003 98.5668 64.5203 98.5748 64.3443 98.5908L64.3443 96.7428L76.3443 96.7428L76.4883 101.399L74.9043 101.399C74.9043 100.519 74.7523 99.8548 74.4483 99.4068C74.1443 98.9588 73.7683 98.6628 73.3203 98.5188C72.8723 98.3588 72.4323 98.2868 72.0003 98.3028L71.1363 98.3268C70.8003 98.3268 70.5123 98.3748 70.2723 98.4708C70.0323 98.5508 69.8483 98.7428 69.7203 99.0468C69.5923 99.3348 69.5283 99.7908 69.5283 100.415L69.5283 104.015L72.3363 104.015L72.2403 101.927L74.0883 101.927L74.0883 107.759L72.5043 107.759ZM87.4809 107.759C87.4809 107.087 87.3769 106.607 87.1689 106.319C86.9609 106.015 86.6729 105.823 86.3049 105.743C85.9529 105.663 85.5609 105.631 85.1289 105.647L84.5049 105.671L84.5049 109.607C84.5049 110.039 84.4969 110.447 84.4809 110.831C84.4649 111.215 84.4409 111.511 84.4089 111.719L87.6249 111.719C88.1049 111.719 88.5689 111.615 89.0169 111.407C89.4649 111.183 89.8329 110.823 90.1209 110.327C90.4089 109.815 90.5529 109.127 90.5529 108.263L92.1129 108.263L91.9929 113.543L79.3209 113.543L79.3209 111.959C79.6889 111.943 79.9929 111.895 80.2329 111.815C80.4889 111.735 80.6809 111.551 80.8089 111.263C80.9529 110.975 81.0249 110.511 81.0249 109.871L81.0249 100.679C81.0249 100.247 81.0329 99.8308 81.0489 99.4308C81.0809 99.0308 81.1049 98.7268 81.1209 98.5188C80.8649 98.5348 80.5449 98.5508 80.1609 98.5668C79.7769 98.5668 79.4969 98.5748 79.3209 98.5908L79.3209 96.7428L91.3209 96.7428L91.4649 101.399L89.8809 101.399C89.8809 100.519 89.7289 99.8548 89.4249 99.4068C89.1209 98.9588 88.7449 98.6628 88.2969 98.5188C87.8489 98.3588 87.4089 98.2868 86.9769 98.3028L86.1129 98.3268C85.7769 98.3268 85.4889 98.3748 85.2489 98.4708C85.0089 98.5508 84.8249 98.7428 84.6969 99.0468C84.5689 99.3348 84.5049 99.7908 84.5049 100.415L84.5049 104.015L87.3129 104.015L87.2169 101.927L89.0649 101.927L89.0649 107.759L87.4809 107.759ZM103.993 102.119C103.849 101.223 103.593 100.479 103.225 99.8868C102.857 99.2788 102.385 98.8228 101.809 98.5188C101.249 98.2148 100.593 98.0708 99.8414 98.0868C99.1534 98.0868 98.5454 98.2788 98.0174 98.6628C97.5054 99.0468 97.2494 99.5428 97.2494 100.151C97.2494 100.647 97.3854 101.079 97.6574 101.447C97.9454 101.815 98.3774 102.159 98.9534 102.479C99.5294 102.799 100.257 103.143 101.137 103.511C101.745 103.751 102.369 104.031 103.009 104.351C103.649 104.671 104.241 105.055 104.785 105.503C105.329 105.935 105.769 106.447 106.105 107.039C106.441 107.615 106.609 108.295 106.609 109.079C106.609 110.023 106.353 110.863 105.841 111.599C105.329 112.335 104.609 112.911 103.681 113.327C102.769 113.727 101.697 113.927 100.465 113.927C99.8254 113.927 99.1294 113.823 98.3774 113.615C97.6414 113.423 96.9454 113.135 96.2894 112.751L96.3614 113.759L94.5134 113.759L94.5134 108.143L96.0974 108.143C96.3214 109.487 96.8334 110.503 97.6334 111.191C98.4494 111.863 99.4174 112.199 100.537 112.199C101.113 112.199 101.617 112.095 102.049 111.887C102.481 111.679 102.817 111.407 103.057 111.071C103.297 110.719 103.417 110.343 103.417 109.943C103.417 109.383 103.217 108.919 102.817 108.551C102.433 108.183 101.945 107.871 101.353 107.615C100.777 107.359 100.185 107.111 99.5774 106.871C98.8094 106.551 98.0894 106.215 97.4174 105.863C96.7614 105.495 96.1854 105.079 95.6894 104.615C95.1934 104.151 94.8094 103.623 94.5374 103.031C94.2654 102.423 94.1294 101.727 94.1294 100.943C94.1294 100.447 94.2254 99.9348 94.4174 99.4068C94.6094 98.8628 94.9214 98.3668 95.3534 97.9188C95.7854 97.4548 96.3614 97.0788 97.0814 96.7908C97.8014 96.5028 98.6894 96.3588 99.7454 96.3588C100.385 96.3588 101.081 96.4548 101.833 96.6468C102.601 96.8388 103.257 97.1268 103.801 97.5108L103.705 96.5268L105.577 96.5268L105.577 102.119L103.993 102.119ZM113.806 113.687L109.534 100.751C109.374 100.287 109.246 99.8628 109.15 99.4788C109.07 99.0948 109.03 98.7748 109.03 98.5188C108.726 98.5348 108.454 98.5508 108.214 98.5668C107.99 98.5668 107.774 98.5748 107.566 98.5908L107.566 96.7428L114.646 96.7428L114.646 98.3268C114.054 98.3108 113.614 98.4228 113.326 98.6628C113.054 98.9028 113.022 99.3908 113.23 100.127C113.47 101.039 113.71 101.951 113.95 102.863C114.19 103.775 114.43 104.687 114.67 105.599C114.814 106.143 114.942 106.655 115.054 107.135C115.182 107.615 115.318 108.239 115.462 109.007L115.486 109.007C115.55 108.783 115.646 108.439 115.774 107.975C115.902 107.511 116.038 107.015 116.182 106.487C116.342 105.943 116.478 105.455 116.59 105.023C116.718 104.575 116.806 104.263 116.854 104.087C117.11 103.271 117.358 102.455 117.598 101.639C117.854 100.823 118.102 100.007 118.342 99.1908C118.598 98.3748 118.846 97.5588 119.086 96.7428L121.246 96.7428C121.47 97.4788 121.694 98.2148 121.918 98.9508C122.158 99.6868 122.39 100.423 122.614 101.159C122.838 101.895 123.062 102.631 123.286 103.367C123.526 104.103 123.758 104.839 123.982 105.575C124.158 106.119 124.31 106.687 124.438 107.279C124.582 107.855 124.718 108.439 124.846 109.031L124.87 109.031C125.014 108.519 125.158 107.991 125.302 107.447C125.462 106.887 125.622 106.311 125.782 105.719C125.894 105.303 126.006 104.887 126.118 104.471C126.23 104.055 126.342 103.639 126.454 103.223C126.566 102.791 126.678 102.367 126.79 101.951C126.902 101.535 127.014 101.119 127.126 100.703C127.222 100.319 127.35 99.9268 127.51 99.5268C127.67 99.1108 127.87 98.7748 128.11 98.5188C127.854 98.5348 127.526 98.5508 127.126 98.5668C126.726 98.5668 126.438 98.5748 126.262 98.5908L126.262 96.7428L131.662 96.7428L131.662 98.3268C131.31 98.3428 130.974 98.4388 130.654 98.6148C130.35 98.7748 130.07 99.0388 129.814 99.4068C129.558 99.7748 129.326 100.271 129.118 100.895C128.478 103.023 127.83 105.151 127.174 107.279C126.518 109.407 125.862 111.543 125.206 113.687L123.07 113.687L120.238 105.095C120.03 104.471 119.854 103.863 119.71 103.271C119.582 102.663 119.454 102.087 119.326 101.543C119.246 102.087 119.15 102.615 119.038 103.127C118.926 103.623 118.79 104.143 118.63 104.687L115.894 113.687L113.806 113.687ZM130.037 113.543L130.037 111.887C130.485 111.887 130.845 111.759 131.117 111.503C131.389 111.247 131.613 110.911 131.789 110.495C131.981 110.079 132.165 109.631 132.341 109.151L137.021 96.3108L138.701 96.3108L143.813 109.391C143.909 109.631 144.037 109.999 144.197 110.495C144.357 110.975 144.453 111.399 144.485 111.767C144.757 111.735 145.013 111.719 145.253 111.719C145.509 111.703 145.717 111.695 145.877 111.695L145.877 113.543L139.421 113.543L139.421 111.959C139.869 111.959 140.173 111.871 140.333 111.695C140.509 111.503 140.589 111.247 140.573 110.927C140.557 110.607 140.469 110.247 140.309 109.847L139.829 108.527L134.621 108.623L134.237 109.751C134.157 109.959 134.037 110.271 133.877 110.687C133.733 111.087 133.597 111.423 133.469 111.695C133.725 111.663 134.029 111.647 134.381 111.647C134.749 111.631 135.013 111.623 135.173 111.623L135.173 113.543L130.037 113.543ZM135.221 106.823L139.229 106.823L138.125 103.823C137.917 103.247 137.733 102.671 137.573 102.095C137.413 101.503 137.293 100.983 137.213 100.535L137.189 100.535C137.125 100.807 137.029 101.215 136.901 101.759C136.773 102.303 136.573 102.951 136.301 103.703L135.221 106.823ZM146.812 113.543L146.812 111.959C147.276 111.847 147.74 111.591 148.204 111.191C148.668 110.775 149.196 110.175 149.788 109.391L152.572 105.671C151.932 104.855 151.292 104.039 150.652 103.223C150.012 102.407 149.364 101.591 148.708 100.775C148.452 100.439 148.22 100.071 148.012 99.6708C147.804 99.2548 147.636 98.8708 147.508 98.5188C147.252 98.5348 147.028 98.5508 146.836 98.5668C146.66 98.5668 146.484 98.5748 146.308 98.5908L146.308 96.7428L153.604 96.7428L153.604 98.3268L153.364 98.3268C152.868 98.3268 152.524 98.3988 152.332 98.5428C152.14 98.6868 152.068 98.8868 152.116 99.1428C152.18 99.3828 152.332 99.6548 152.572 99.9588C152.94 100.407 153.3 100.855 153.652 101.303C154.004 101.751 154.356 102.207 154.708 102.671L156.532 100.151C156.868 99.6868 157.132 99.3508 157.324 99.1428C157.532 98.9188 157.74 98.7108 157.948 98.5188C157.692 98.5348 157.372 98.5508 156.988 98.5668C156.604 98.5668 156.324 98.5748 156.148 98.5908L156.148 96.7428L161.596 96.7428L161.596 98.3268C161.228 98.3748 160.86 98.5028 160.492 98.7108C160.14 98.9188 159.78 99.2148 159.412 99.5988C159.044 99.9668 158.644 100.447 158.212 101.039L155.908 104.183C156.42 104.823 156.924 105.463 157.42 106.103C157.916 106.743 158.412 107.383 158.908 108.023C159.42 108.663 159.924 109.303 160.42 109.943C160.692 110.279 160.94 110.599 161.164 110.903C161.388 111.207 161.556 111.495 161.668 111.767C161.94 111.735 162.132 111.719 162.244 111.719C162.356 111.703 162.492 111.695 162.652 111.695L162.652 113.543L155.476 113.543L155.476 111.959C156.068 111.959 156.452 111.887 156.628 111.743C156.804 111.599 156.844 111.407 156.748 111.167C156.668 110.911 156.508 110.631 156.268 110.327C155.868 109.815 155.46 109.303 155.044 108.791C154.644 108.263 154.236 107.743 153.82 107.231C153.468 107.711 153.116 108.199 152.764 108.695C152.412 109.175 152.06 109.655 151.708 110.135C151.372 110.583 151.116 110.919 150.94 111.143C150.764 111.367 150.58 111.575 150.388 111.767C150.66 111.751 150.972 111.735 151.324 111.719C151.676 111.703 151.932 111.695 152.092 111.695L152.092 113.543L146.812 113.543Z" opacity="0" fill="rgb(255,249,192)" fill-rule="nonzero" />
	<path id="BEESWAX" d="M48.2349 113.543L48.2349 111.48L48.7132 111.459Q49.1953 111.438 49.4888 111.34Q49.6659 111.285 49.766 111.06L49.7706 111.049L49.7757 111.039Q49.9389 110.713 49.9389 109.871L49.9389 100.679Q49.9389 100.021 49.9633 99.4108L49.9637 99.4011L50.0365 98.4794L50.5349 98.5188L50.5661 99.0178Q50.1769 99.0421 49.5958 99.0664L49.5853 99.0668L49.5749 99.0668Q49.0216 99.0668 48.7802 99.0887L48.2349 99.1383L48.2349 96.2464L52.0433 96.2188L55.3793 96.1948Q58.4106 96.1695 60.2175 97.3569Q61.1834 97.969 61.6414 98.9198Q62.0932 99.8576 62.0262 101.09Q61.9699 101.907 61.5291 102.679Q61.0849 103.428 60.2262 104.019Q59.4168 104.593 58.2042 104.929L58.0709 104.447L58.5709 104.447L58.5709 104.471L58.0709 104.471L58.1499 103.977Q60.7211 104.388 61.9666 105.74Q63.2269 107.081 63.2269 108.767Q63.2269 110.486 62.3664 111.697Q61.5407 112.869 60.0878 113.476Q58.6712 114.043 56.8949 114.043L48.2349 114.043L48.2349 113.543ZM49.2349 113.543L48.7349 113.543L48.7349 113.043L56.8949 113.043Q58.4787 113.043 59.702 112.553Q60.8892 112.057 61.5515 111.117Q62.2269 110.167 62.2269 108.767Q62.2269 107.477 61.2313 106.418Q60.2208 105.321 57.9919 104.965L57.5709 104.897L57.5709 104.066L57.9377 103.965Q58.9811 103.676 59.6597 103.195Q60.3369 102.729 60.6608 102.183Q60.988 101.61 61.0277 101.036Q61.0807 100.06 60.7405 99.3538Q60.4065 98.6606 59.6684 98.1926Q58.1153 97.172 55.3865 97.1948L52.0506 97.2188L48.7386 97.2428L48.7349 96.7428L49.2349 96.7428L49.2349 98.5908L48.7349 98.5908L48.6897 98.0928Q48.9763 98.0668 49.5749 98.0668L49.5749 98.5668L49.5541 98.0672Q50.1249 98.0434 50.5038 98.0198L51.0787 97.9838L50.9614 99.4701L50.4629 99.4308L50.9625 99.4508Q50.9389 100.041 50.9389 100.679L50.9389 109.871Q50.9389 110.949 50.6702 111.486L50.2229 111.263L50.6798 111.466Q50.396 112.105 49.8051 112.289Q49.3786 112.431 48.7567 112.458L48.7349 111.959L49.2349 111.959L49.2349 113.543ZM53.8229 111.339L54.6389 111.339L55.4069 111.339L55.4069 111.839L55.3758 111.34Q55.7753 111.315 56.1509 111.315L56.1509 111.815L56.1264 111.315Q57.3612 111.255 57.8923 110.572Q58.4589 109.843 58.4589 108.695Q58.4589 107.754 58.0992 107.262Q57.728 106.734 57.1548 106.524Q56.5393 106.291 55.8629 106.291L54.8309 106.291Q54.4115 106.291 53.9439 106.314L53.9189 105.815L54.4189 105.815L54.4189 109.727Q54.4189 110.385 54.3945 110.972Q54.3694 111.575 54.3171 111.915L53.8229 111.839L53.8229 111.339ZM53.8229 112.339L53.2401 112.339L53.3288 111.763Q53.3725 111.478 53.3954 110.93Q53.4189 110.364 53.4189 109.727L53.4189 105.339L53.894 105.315Q54.3865 105.291 54.8309 105.291L55.8629 105.291Q56.7226 105.291 57.4991 105.585Q58.3659 105.903 58.9066 106.672Q59.4589 107.428 59.4589 108.695Q59.4589 110.186 58.6816 111.186Q57.8687 112.231 56.1755 112.314L56.1632 112.315L56.1509 112.315Q55.8066 112.315 55.4381 112.338L55.4226 112.339L54.6389 112.339L53.8229 112.339ZM53.9093 103.611L55.1573 103.587Q56.003 103.567 56.4509 103.231Q56.9277 102.887 57.1166 102.321Q57.3549 101.649 57.3549 100.871Q57.3549 100.073 57.0666 99.6769Q56.7599 99.2362 56.3186 99.0523Q55.8442 98.8546 55.3302 98.8744L55.3206 98.8748L55.3109 98.8748Q55.0198 98.8748 54.7944 98.9615Q54.6757 99.0071 54.5678 99.2499Q54.4189 99.5666 54.4189 100.391L54.4189 104.111L53.9189 104.111L53.9093 103.611ZM53.4189 104.62L53.4189 100.391Q53.4189 99.343 53.654 98.8437Q53.9301 98.2225 54.4355 98.0281Q54.8341 97.8748 55.3109 97.8748L55.3109 98.3748L55.2917 97.8752Q56.0257 97.8469 56.7033 98.1292Q57.414 98.4254 57.8753 99.0887Q58.3549 99.7482 58.3549 100.871Q58.3549 101.821 58.0653 102.637Q57.7742 103.51 57.0509 104.031Q56.3469 104.559 55.1766 104.587L53.9286 104.611L53.4189 104.62ZM72.0043 107.759Q72.0043 107.308 71.9377 107.001Q71.8818 106.743 71.787 106.612L71.7833 106.606L71.7797 106.601Q71.5799 106.309 71.2221 106.231Q70.7534 106.125 70.1708 106.146L69.5475 106.17L69.5283 105.671L70.0283 105.671L70.0283 109.607Q70.0283 110.265 70.0039 110.852Q69.9787 111.455 69.9265 111.795L69.4323 111.719L69.4323 111.219L72.6483 111.219Q73.2579 111.219 73.8298 110.953L74.0403 111.407L73.8167 110.96Q74.355 110.69 74.7119 110.076Q75.0763 109.428 75.0763 108.263L75.0763 107.763L77.6478 107.763L77.5051 114.043L63.8443 114.043L63.8443 111.48L64.3226 111.459Q64.8046 111.438 65.0982 111.34Q65.2753 111.285 65.3754 111.06L65.38 111.049L65.3851 111.039Q65.5483 110.713 65.5483 109.871L65.5483 100.679Q65.5483 100.021 65.5727 99.4108L65.5731 99.4011L65.6459 98.4794L66.1443 98.5188L66.1755 99.0178Q65.7863 99.0421 65.2051 99.0664L65.1947 99.0668L65.1843 99.0668Q64.631 99.0668 64.3896 99.0887L63.8443 99.1383L63.8443 96.2428L76.8291 96.2428L77.004 101.899L74.4043 101.899L74.4043 101.399Q74.4043 100.232 74.0346 99.6875Q73.6753 99.1581 73.1673 98.9948L73.1597 98.9924L73.1521 98.9897Q72.5707 98.782 72.0188 98.8024L71.1433 98.8268L71.1363 98.8268Q70.7286 98.8268 70.458 98.935L70.4444 98.9405L70.4304 98.9451Q70.2853 98.9935 70.1811 99.2408Q70.0283 99.5849 70.0283 100.415L70.0283 104.015L69.5283 104.015L69.5283 103.515L72.3363 103.515L72.3363 104.015L71.8368 104.038L71.7168 101.427L74.5883 101.427L74.5883 108.259L72.0043 108.259L72.0043 107.759ZM73.0043 107.759L72.5043 107.759L72.5043 107.259L74.0883 107.259L74.0883 107.759L73.5883 107.759L73.5883 101.927L74.0883 101.927L74.0883 102.427L72.2403 102.427L72.2403 101.927L72.7398 101.904L72.8598 104.515L69.0283 104.515L69.0283 100.415Q69.0283 99.3727 69.2595 98.8528Q69.5394 98.1881 70.1142 97.9964L70.2723 98.4708L70.0866 98.0066Q70.536 97.8268 71.1363 97.8268L71.1363 98.3268L71.1224 97.827L71.9818 97.8031Q72.7259 97.7756 73.4885 98.0479L73.3203 98.5188L73.4733 98.0428Q74.3093 98.3115 74.8621 99.126Q75.4043 99.9252 75.4043 101.399L74.9043 101.399L74.9043 100.899L76.4883 100.899L76.4883 101.399L75.9886 101.414L75.8446 96.7582L76.3443 96.7428L76.3443 97.2428L64.3443 97.2428L64.3443 96.7428L64.8443 96.7428L64.8443 98.5908L64.3443 98.5908L64.299 98.0928Q64.5856 98.0668 65.1843 98.0668L65.1843 98.5668L65.1635 98.0672Q65.7343 98.0434 66.1131 98.0198L66.6881 97.9838L66.5708 99.4701L66.0723 99.4308L66.5719 99.4508Q66.5483 100.041 66.5483 100.679L66.5483 109.871Q66.5483 110.949 66.2795 111.486L65.8323 111.263L66.2892 111.466Q66.0054 112.105 65.4144 112.289Q64.988 112.431 64.366 112.458L64.3443 111.959L64.8443 111.959L64.8443 113.543L64.3443 113.543L64.3443 113.043L77.0163 113.043L77.0163 113.543L76.5164 113.531L76.6364 108.251L77.1363 108.263L77.1363 108.763L75.5763 108.763L75.5763 108.263L76.0763 108.263Q76.0763 109.69 75.5767 110.578Q75.0696 111.451 74.2639 111.854L74.2575 111.857L74.2509 111.86Q73.4787 112.219 72.6483 112.219L68.8495 112.219L68.9381 111.643Q68.9819 111.358 69.0048 110.81Q69.0283 110.244 69.0283 109.607L69.0283 105.19L70.1338 105.147Q70.8473 105.121 71.4345 105.254Q72.1807 105.416 72.605 106.036L72.1923 106.319L72.5977 106.026Q73.0043 106.589 73.0043 107.759ZM86.9809 107.759Q86.9809 107.308 86.9142 107.001Q86.8584 106.743 86.7635 106.612L86.7598 106.606L86.7562 106.601Q86.5565 106.309 86.1987 106.231Q85.7299 106.125 85.1474 106.146L84.5241 106.17L84.5049 105.671L85.0049 105.671L85.0049 109.607Q85.0049 110.265 84.9804 110.852Q84.9553 111.455 84.9031 111.795L84.4089 111.719L84.4089 111.219L87.6249 111.219Q88.2345 111.219 88.8063 110.953L89.0169 111.407L88.7933 110.96Q89.3316 110.69 89.6885 110.076Q90.0529 109.428 90.0529 108.263L90.0529 107.763L92.6244 107.763L92.4816 114.043L78.8209 114.043L78.8209 111.48L79.2992 111.459Q79.7812 111.438 80.0748 111.34Q80.2518 111.285 80.352 111.06L80.3566 111.049L80.3617 111.039Q80.5249 110.713 80.5249 109.871L80.5249 100.679Q80.5249 100.021 80.5493 99.4108L80.5497 99.4011L80.6224 98.4794L81.1209 98.5188L81.1521 99.0178Q80.7629 99.0421 80.1817 99.0664L80.1713 99.0668L80.1609 99.0668Q79.6076 99.0668 79.3661 99.0887L78.8209 99.1383L78.8209 96.2428L91.8057 96.2428L91.9806 101.899L89.3809 101.899L89.3809 101.399Q89.3809 100.232 89.0111 99.6875Q88.6519 99.1581 88.1439 98.9948L88.1363 98.9924L88.1287 98.9897Q87.5473 98.782 86.9954 98.8024L86.1198 98.8268L86.1129 98.8268Q85.7052 98.8268 85.4346 98.935L85.4209 98.9405L85.407 98.9451Q85.2618 98.9935 85.1577 99.2408Q85.0049 99.5849 85.0049 100.415L85.0049 104.015L84.5049 104.015L84.5049 103.515L87.3129 103.515L87.3129 104.015L86.8134 104.038L86.6934 101.427L89.5649 101.427L89.5649 108.259L86.9809 108.259L86.9809 107.759ZM87.9809 107.759L87.4809 107.759L87.4809 107.259L89.0649 107.259L89.0649 107.759L88.5649 107.759L88.5649 101.927L89.0649 101.927L89.0649 102.427L87.2169 102.427L87.2169 101.927L87.7164 101.904L87.8364 104.515L84.0049 104.515L84.0049 100.415Q84.0049 99.3727 84.2361 98.8528Q84.5159 98.1881 85.0908 97.9964L85.2489 98.4708L85.0632 98.0066Q85.5126 97.8268 86.1129 97.8268L86.1129 98.3268L86.099 97.827L86.9584 97.8031Q87.7025 97.7756 88.465 98.0479L88.2969 98.5188L88.4499 98.0428Q89.2859 98.3115 89.8386 99.126Q90.3809 99.9252 90.3809 101.399L89.8809 101.399L89.8809 100.899L91.4649 100.899L91.4649 101.399L90.9651 101.414L90.8211 96.7582L91.3209 96.7428L91.3209 97.2428L79.3209 97.2428L79.3209 96.7428L79.8209 96.7428L79.8209 98.5908L79.3209 98.5908L79.2756 98.0928Q79.5622 98.0668 80.1609 98.0668L80.1609 98.5668L80.1401 98.0672Q80.7108 98.0434 81.0897 98.0198L81.6647 97.9838L81.5473 99.4701L81.0489 99.4308L81.5485 99.4508Q81.5249 100.041 81.5249 100.679L81.5249 109.871Q81.5249 110.949 81.2561 111.486L80.8089 111.263L81.2658 111.466Q80.9819 112.105 80.391 112.289Q79.9646 112.431 79.3426 112.458L79.3209 111.959L79.8209 111.959L79.8209 113.543L79.3209 113.543L79.3209 113.043L91.9929 113.043L91.9929 113.543L91.493 113.531L91.613 108.251L92.1129 108.263L92.1129 108.763L90.5529 108.763L90.5529 108.263L91.0529 108.263Q91.0529 109.69 90.5533 110.578Q90.0462 111.451 89.2405 111.854L89.234 111.857L89.2274 111.86Q88.4553 112.219 87.6249 112.219L83.8261 112.219L83.9147 111.643Q83.9585 111.358 83.9813 110.81Q84.0049 110.244 84.0049 109.607L84.0049 105.19L85.1104 105.147Q85.8238 105.121 86.4111 105.254Q87.1573 105.416 87.5815 106.036L87.1689 106.319L87.5742 106.026Q87.9809 106.589 87.9809 107.759ZM103.5 102.198Q103.3 100.953 102.801 100.151Q102.317 99.3523 101.576 98.961Q100.847 98.5655 99.8521 98.5867Q98.972 98.5868 98.3115 99.0672Q98.0252 99.282 97.8858 99.5521Q97.7494 99.8162 97.7494 100.151Q97.7494 100.73 98.0595 101.15L97.6574 101.447L98.0512 101.139Q98.4208 101.611 99.1963 102.042Q100.036 102.508 101.33 103.049Q102.253 103.414 103.233 103.904Q104.244 104.409 105.103 105.117Q105.988 105.82 106.54 106.792Q107.109 107.768 107.109 109.079Q107.109 110.652 106.252 111.884Q105.405 113.102 103.886 113.783Q102.418 114.427 100.465 114.427Q99.4376 114.427 98.2441 114.097Q97.0804 113.793 96.0368 113.182L96.2894 112.751L96.7882 112.715L96.8984 114.259L94.0134 114.259L94.0134 107.643L96.521 107.643L96.5906 108.061Q96.8969 109.898 97.9595 110.812Q99.0368 111.699 100.537 111.699Q101.287 111.699 101.833 111.436Q102.365 111.18 102.651 110.78Q102.917 110.389 102.917 109.943Q102.917 109.322 102.479 108.919Q101.96 108.422 101.155 108.074Q100.296 107.692 99.3939 107.336Q98.2129 106.844 97.1854 106.306L97.179 106.302L97.1728 106.299Q96.136 105.717 95.3479 104.98Q94.5321 104.217 94.0831 103.24Q93.6294 102.226 93.6294 100.943Q93.6294 100.111 93.9475 99.2359Q94.2701 98.3219 94.9935 97.5717Q95.7118 96.8001 96.8958 96.3266Q98.0651 95.8588 99.7454 95.8588Q100.768 95.8588 101.957 96.1623Q103.197 96.4724 104.09 97.1023L103.801 97.5108L103.304 97.5593L103.154 96.0268L106.077 96.0268L106.077 102.619L103.567 102.619L103.5 102.198ZM104.487 102.039L103.993 102.119L103.993 101.619L105.577 101.619L105.577 102.119L105.077 102.119L105.077 96.5268L105.577 96.5268L105.577 97.0268L103.705 97.0268L103.705 96.5268L104.203 96.4782L104.405 98.5489L103.513 97.9193Q102.773 97.3972 101.71 97.1312Q100.643 96.8588 99.7454 96.8588Q98.2577 96.8588 97.2671 97.255Q96.2911 97.6454 95.7134 98.2659Q95.1408 98.8596 94.8873 99.5777Q94.6294 100.287 94.6294 100.943Q94.6294 102.012 94.9918 102.822Q95.3588 103.621 96.031 104.25Q96.7308 104.904 97.6621 105.427L97.4174 105.863L97.6494 105.42Q98.638 105.938 99.761 106.406Q100.683 106.77 101.552 107.156Q102.522 107.576 103.156 108.183Q103.917 108.883 103.917 109.943Q103.917 110.697 103.464 111.361Q103.03 111.97 102.266 112.337Q101.516 112.699 100.537 112.699Q98.6781 112.699 97.3074 111.57Q95.97 110.42 95.6042 108.225L96.0974 108.143L96.0974 108.643L94.5134 108.643L94.5134 108.143L95.0134 108.143L95.0134 113.759L94.5134 113.759L94.5134 113.259L96.3614 113.259L96.3614 113.759L95.8627 113.794L95.7231 111.84L96.542 112.319Q97.4664 112.86 98.5107 113.133Q99.5733 113.427 100.465 113.427Q102.209 113.427 103.477 112.871Q104.742 112.303 105.431 111.313Q106.109 110.338 106.109 109.079Q106.109 108.038 105.671 107.286Q105.215 106.482 104.468 105.889Q103.695 105.253 102.786 104.798Q101.845 104.328 100.945 103.972Q99.5989 103.409 98.7106 102.916Q97.7581 102.387 97.2637 101.755L97.2594 101.75L97.2554 101.744Q96.7494 101.06 96.7494 100.151Q96.7494 99.5734 96.9971 99.0935Q97.2417 98.6196 97.7234 98.2584Q98.6469 97.5868 99.8308 97.5869Q101.091 97.5601 102.043 98.0766Q103.029 98.5973 103.65 99.6228Q104.255 100.596 104.487 102.039ZM113.331 113.844L109.059 100.908Q108.814 100.197 108.665 99.6001L108.662 99.5904L108.66 99.5808Q108.53 98.9543 108.53 98.5188L109.03 98.5188L109.059 99.0179L108.228 99.0668L108.214 99.0668Q107.897 99.0668 107.604 99.0893L107.066 99.1307L107.066 96.2428L115.146 96.2428L115.146 98.8405L114.632 98.8266Q113.933 98.8077 113.646 99.0469L113.326 98.6628L113.657 99.0377Q113.607 99.0813 113.597 99.2415Q113.578 99.5217 113.711 99.9908L114.201 101.854L114.433 102.736L114.793 104.103L115.153 105.472Q115.371 106.294 115.541 107.021L115.054 107.135L115.537 107.006Q115.734 107.744 115.953 108.915L115.462 109.007L115.462 108.507L115.486 108.507L115.486 109.007L115.004 108.872L115.292 107.84L115.699 106.355Q115.94 105.538 116.106 104.897L116.372 103.951L117.119 101.493L117.863 99.0454L118.715 96.2428L121.616 96.2428L122.396 98.8052Q122.755 99.9055 123.092 101.013L123.764 103.221Q124.123 104.321 124.46 105.429Q124.729 106.261 124.926 107.173L124.438 107.279L124.923 107.158Q125.141 108.029 125.334 108.925L124.846 109.031L124.846 108.531L124.87 108.531L124.87 109.031L124.387 108.899L124.819 107.315L125.3 105.585L125.467 104.965L125.635 104.341L125.971 103.093L126.306 101.823L126.643 100.573Q126.793 99.9726 127.045 99.3411Q127.318 98.6321 127.745 98.1768L128.11 98.5188L128.141 99.0178Q127.751 99.0422 127.146 99.0664L127.136 99.0668L127.126 99.0668Q126.548 99.0668 126.307 99.0887L125.762 99.1383L125.762 96.2428L132.162 96.2428L132.162 98.8046L131.684 98.8263Q131.273 98.845 130.895 99.0529Q130.539 99.2404 130.224 99.6923Q129.881 100.185 129.592 101.053L129.118 100.895L129.596 101.04L127.652 107.424L125.575 114.187L122.708 114.187L119.763 105.251Q119.445 104.297 119.224 103.389L119.222 103.381L119.22 103.374Q119.03 102.468 118.839 101.657L119.326 101.543L119.82 101.616Q119.698 102.448 119.526 103.234Q119.354 103.997 119.109 104.828L116.264 114.187L113.444 114.187L113.331 113.844ZM114.28 113.53L113.806 113.687L113.806 113.187L115.894 113.187L115.894 113.687L115.415 113.541L118.15 104.546Q118.385 103.745 118.549 103.02Q118.714 102.269 118.831 101.47L119.812 101.428Q120.006 102.25 120.199 103.168L119.71 103.271L120.196 103.153Q120.407 104.02 120.713 104.938L123.545 113.53L123.07 113.687L123.07 113.187L125.206 113.187L125.206 113.687L124.728 113.54L126.695 107.133L128.641 100.743L128.643 100.737Q128.978 99.7324 129.403 99.1213Q129.857 98.4691 130.413 98.1767Q130.995 97.8566 131.639 97.8273L131.662 98.3268L131.162 98.3268L131.162 96.7428L131.662 96.7428L131.662 97.2428L126.262 97.2428L126.262 96.7428L126.762 96.7428L126.762 98.5908L126.262 98.5908L126.216 98.0928Q126.503 98.0668 127.126 98.0668L127.126 98.5668L127.106 98.0672Q127.7 98.0434 128.079 98.0198L129.337 97.9411L128.474 98.8608Q128.181 99.1734 127.974 99.7125Q127.747 100.281 127.609 100.833L127.273 102.078L126.937 103.353L126.601 104.601L126.433 105.225L126.263 105.853L125.784 107.578L125.252 109.531L124.442 109.531L124.357 109.136Q124.167 108.256 123.953 107.4L123.951 107.392L123.949 107.384Q123.762 106.521 123.503 105.72Q123.169 104.621 122.807 103.512L122.135 101.304Q121.801 100.206 121.439 99.0964L120.767 96.8884L121.246 96.7428L121.246 97.2428L119.086 97.2428L119.086 96.7428L119.564 96.8882L118.82 99.3362L118.076 101.784L117.335 104.223L117.074 105.148Q116.904 105.804 116.664 106.619L116.255 108.109L115.865 109.507L115.047 109.507L114.97 109.099Q114.758 107.965 114.571 107.264L114.569 107.256L114.567 107.248Q114.4 106.536 114.186 105.726L113.826 104.358L113.466 102.99L113.234 102.109L112.749 100.263Q112.351 98.856 112.995 98.2879L113 98.2831L113.006 98.2787Q113.583 97.7979 114.659 97.827L114.646 98.3268L114.146 98.3268L114.146 96.7428L114.646 96.7428L114.646 97.2428L107.566 97.2428L107.566 96.7428L108.066 96.7428L108.066 98.5908L107.566 98.5908L107.527 98.0923Q107.858 98.0668 108.214 98.0668L108.214 98.5668L108.184 98.0676L109.53 97.9885L109.53 98.5188Q109.53 98.8512 109.639 99.3768L109.15 99.4788L109.635 99.3575Q109.773 99.9124 110.008 100.594L114.28 113.53ZM129.537 113.543L129.537 111.387L130.037 111.387Q130.511 111.387 130.775 111.139Q131.106 110.827 131.329 110.3L131.332 110.292L131.335 110.285Q131.615 109.68 131.872 108.979L136.671 95.8108L139.043 95.8108L144.279 109.209Q144.428 109.581 144.673 110.341Q144.93 111.113 144.983 111.723L144.485 111.767L144.427 111.27Q144.864 111.219 145.253 111.219L145.253 111.719L145.222 111.22Q145.622 111.195 145.877 111.195L146.377 111.195L146.377 114.043L138.921 114.043L138.921 111.459L139.421 111.459Q139.686 111.459 139.846 111.413Q139.938 111.386 139.963 111.358Q140.087 111.223 140.074 110.952Q140.054 110.555 139.845 110.032L139.842 110.025L139.359 108.698L139.829 108.527L139.838 109.027L134.63 109.123L134.621 108.623L135.095 108.784L134.707 109.921L134.344 110.866Q134.124 111.478 133.922 111.908L133.469 111.695L133.407 111.199Q133.822 111.147 134.381 111.147L134.381 111.647L134.359 111.147Q134.922 111.123 135.173 111.123L135.673 111.123L135.673 114.043L129.537 114.043L129.537 113.543ZM130.537 113.543L130.037 113.543L130.037 113.043L135.173 113.043L135.173 113.543L134.673 113.543L134.673 111.623L135.173 111.623L135.173 112.123Q134.944 112.123 134.403 112.146L134.392 112.147L134.381 112.147Q133.884 112.147 133.531 112.191L132.63 112.304L133.017 111.482Q133.199 111.095 133.411 110.507L133.771 109.571L134.237 109.751L133.764 109.59L134.261 108.129L140.177 108.02L140.779 109.676L140.309 109.847L140.773 109.661Q141.044 110.339 141.073 110.902Q141.107 111.591 140.703 112.031Q140.314 112.459 139.421 112.459L139.421 111.959L139.921 111.959L139.921 113.543L139.421 113.543L139.421 113.043L145.877 113.043L145.877 113.543L145.377 113.543L145.377 111.695L145.877 111.695L145.877 112.195Q145.653 112.195 145.284 112.218L145.269 112.219L145.253 112.219Q144.923 112.219 144.544 112.263L144.032 112.324L143.987 111.81Q143.944 111.317 143.721 110.648Q143.487 109.921 143.348 109.573L138.236 96.4928L138.701 96.3108L138.701 96.8108L137.021 96.8108L137.021 96.3108L137.491 96.482L132.811 109.323Q132.54 110.062 132.243 110.704L131.789 110.495L132.25 110.69Q131.945 111.411 131.46 111.867Q130.907 112.387 130.037 112.387L130.037 111.887L130.537 111.887L130.537 113.543ZM135.221 106.323L139.229 106.323L139.229 106.823L138.76 106.995L137.656 103.995Q137.336 103.111 137.091 102.229Q136.845 101.316 136.721 100.623L137.213 100.535L137.213 101.035L137.189 101.035L137.189 100.535L137.676 100.649L137.388 101.873Q137.189 102.717 136.771 103.873L135.694 106.986L135.221 106.823L135.221 106.323ZM134.519 107.323L135.831 103.533Q136.229 102.432 136.414 101.644L136.793 100.035L137.632 100.035L137.705 100.447Q137.822 101.097 138.055 101.961Q138.29 102.807 138.594 103.65L139.946 107.323L135.221 107.323L134.519 107.323ZM146.312 113.543L146.312 111.565L146.695 111.473Q147.274 111.333 147.878 110.812Q148.531 110.227 149.389 109.089L152.172 105.371L152.572 105.671L152.179 105.979L150.259 103.531L148.317 101.086Q147.901 100.54 147.569 99.9015Q147.24 99.2447 147.039 98.6897L147.508 98.5188L147.54 99.0178Q147.161 99.0415 146.878 99.0651L146.857 99.0668L146.836 99.0668Q146.595 99.0668 146.354 99.0887L145.808 99.1383L145.808 96.2428L154.104 96.2428L154.104 98.8268L153.364 98.8268Q153.044 98.8268 152.837 98.8702Q152.688 98.9014 152.632 98.9428Q152.608 98.961 152.605 98.9702Q152.597 98.9923 152.608 99.0507L152.116 99.1428L152.6 99.014Q152.669 99.2741 152.965 99.649Q153.515 100.318 154.046 100.994Q154.577 101.67 155.107 102.369L154.708 102.671L154.303 102.378L156.127 99.8576Q156.649 99.1375 156.957 98.8037Q157.283 98.4524 157.609 98.1514L157.948 98.5188L157.98 99.0178Q157.59 99.0421 157.009 99.0664L156.999 99.0668L156.988 99.0668Q156.435 99.0668 156.194 99.0887L155.648 99.1383L155.648 96.2428L162.096 96.2428L162.096 98.7658L161.661 98.8226Q161.206 98.882 160.738 99.1461Q160.278 99.4183 159.773 99.9447Q159.241 100.477 158.616 101.334L156.312 104.478L155.908 104.183L156.299 103.87Q157.069 104.833 157.816 105.797L159.304 107.717Q160.07 108.674 160.816 109.637Q161.224 110.141 161.567 110.606Q161.939 111.112 162.131 111.576L161.668 111.767L161.61 111.27Q162.047 111.219 162.244 111.219L162.244 111.719L162.174 111.224Q162.377 111.195 162.652 111.195L163.152 111.195L163.152 114.043L154.976 114.043L154.976 111.459L155.476 111.459Q155.874 111.459 156.116 111.413Q156.215 111.395 156.277 111.371Q156.298 111.363 156.311 111.356L156.312 111.356Q156.316 111.352 156.318 111.35Q156.317 111.352 156.314 111.355Q156.305 111.37 156.301 111.389Q156.299 111.396 156.299 111.402L156.299 111.402Q156.297 111.384 156.284 111.352L156.277 111.334L156.271 111.316Q156.179 111.02 155.876 110.637Q155.277 109.87 154.656 109.106L154.651 109.099L154.646 109.093Q154.051 108.307 153.432 107.546L153.82 107.231L154.224 107.526Q153.698 108.244 153.172 108.984L152.64 109.71L152.112 110.43Q151.601 111.111 151.334 111.452Q151.051 111.811 150.742 112.12L150.388 111.767L150.363 111.267L151.299 111.219Q151.841 111.195 152.092 111.195L152.592 111.195L152.592 114.043L146.312 114.043L146.312 113.543ZM147.312 113.543L146.812 113.543L146.812 113.043L152.092 113.043L152.092 113.543L151.592 113.543L151.592 111.695L152.092 111.695L152.092 112.195Q151.864 112.195 151.35 112.218L149.115 112.333L150.035 111.413Q150.302 111.146 150.547 110.834Q150.808 110.502 151.305 109.839L151.833 109.119L152.357 108.405Q152.887 107.658 153.417 106.935L153.8 106.413L154.208 106.915Q154.838 107.69 155.443 108.489L155.044 108.791L155.432 108.475Q156.06 109.248 156.661 110.017Q157.078 110.545 157.226 111.018L156.748 111.167L157.213 110.981Q157.341 111.301 157.28 111.593Q157.214 111.91 156.945 112.13Q156.714 112.319 156.301 112.396Q155.967 112.459 155.476 112.459L155.476 111.959L155.976 111.959L155.976 113.543L155.476 113.543L155.476 113.043L162.652 113.043L162.652 113.543L162.152 113.543L162.152 111.695L162.652 111.695L162.652 112.195Q162.448 112.195 162.315 112.214L162.28 112.219L162.244 112.219Q162.106 112.219 161.727 112.263L161.35 112.308L161.206 111.957Q161.061 111.606 160.762 111.199Q160.433 110.753 160.025 110.249Q159.284 109.292 158.513 108.329L157.025 106.409Q156.283 105.451 155.518 104.495L155.279 104.196L157.809 100.744Q158.479 99.8247 159.051 99.2528Q159.651 98.6273 160.246 98.2755Q160.883 97.9156 161.532 97.831L161.596 98.3268L161.096 98.3268L161.096 96.7428L161.596 96.7428L161.596 97.2428L156.148 97.2428L156.148 96.7428L156.648 96.7428L156.648 98.5908L156.148 98.5908L156.103 98.0928Q156.39 98.0668 156.988 98.0668L156.988 98.5668L156.968 98.0672Q157.538 98.0434 157.917 98.0198L159.321 97.932L158.288 98.8862Q157.99 99.1612 157.692 99.4819Q157.424 99.7721 156.937 100.444L154.718 103.511L154.31 102.973Q153.785 102.281 153.259 101.612Q152.735 100.944 152.18 100.269Q151.756 99.7315 151.633 99.2716L151.628 99.2534L151.625 99.2349Q151.564 98.9093 151.664 98.6314Q151.769 98.3406 152.032 98.1428Q152.454 97.8268 153.364 97.8268L153.604 97.8268L153.604 98.3268L153.104 98.3268L153.104 96.7428L153.604 96.7428L153.604 97.2428L146.308 97.2428L146.308 96.7428L146.808 96.7428L146.808 98.5908L146.308 98.5908L146.263 98.0928Q146.55 98.0668 146.836 98.0668L146.836 98.5668L146.795 98.0685Q147.088 98.0441 147.477 98.0198L147.851 97.9964L147.978 98.3479Q148.161 98.8489 148.456 99.4401Q148.748 100.002 149.1 100.464L151.046 102.914L153.202 105.664L150.187 109.692Q149.27 110.907 148.531 111.569Q147.743 112.248 146.93 112.445L146.812 111.959L147.312 111.959L147.312 113.543Z" opacity="0" fill="rgb(0,0,0)" fill-rule="nonzero" />
</svg>
