<svg viewBox="0 0 137.309 132.256" xmlns="http://www.w3.org/2000/svg" xmlns:xlink="http://www.w3.org/1999/xlink" width="137.309418" height="132.256348" fill="none">
	<defs>
		<linearGradient id="paint_linear_0" x1="1.33499146" x2="1.33499146" y1="-1.63490236e-16" y2="5.33999634" gradientUnits="userSpaceOnUse">
			<stop stop-color="rgb(255,186.294,64.8125)" offset="0" stop-opacity="1" />
			<stop stop-color="rgb(105.4,68.1168,2.19583)" offset="1" stop-opacity="0.75" />
		</linearGradient>
		<linearGradient id="paint_linear_1" x1="0.603124201" x2="0.603124201" y1="-2.08189594e-16" y2="6.79998779" gradientUnits="userSpaceOnUse">
			<stop stop-color="rgb(255,186.294,64.8125)" offset="0" stop-opacity="1" />
			<stop stop-color="rgb(105.4,68.1168,2.19583)" offset="1" stop-opacity="0.75" />
		</linearGradient>
		<linearGradient id="paint_linear_2" x1="2.73500061" x2="2.73500061" y1="-2.20749346e-16" y2="7.21022034" gradientUnits="userSpaceOnUse">
			<stop stop-color="rgb(255,186.294,64.8125)" offset="0" stop-opacity="1" />
			<stop stop-color="rgb(105.4,68.1168,2.19583)" offset="1" stop-opacity="0.75" />
		</linearGradient>
		<linearGradient id="paint_linear_3" x1="18.8049927" x2="18.8049927" y1="-4.21732569e-16" y2="13.7748308" gradientUnits="userSpaceOnUse">
			<stop stop-color="rgb(255,186.294,64.8125)" offset="0" stop-opacity="1" />
			<stop stop-color="rgb(105.4,68.1168,2.19583)" offset="1" stop-opacity="0.75" />
		</linearGradient>
		<linearGradient id="paint_linear_4" x1="9.80000305" x2="9.80000305" y1="-5.7486215e-16" y2="18.7764225" gradientUnits="userSpaceOnUse">
			<stop stop-color="rgb(255,249,192)" offset="0.161458328" stop-opacity="1" />
			<stop stop-color="rgb(255,186.294,64.8125)" offset="0.65625" stop-opacity="1" />
		</linearGradient>
		<linearGradient id="paint_linear_5" x1="19.6967506" x2="19.6967506" y1="-3.36806373e-16" y2="11.0009308" gradientUnits="userSpaceOnUse">
			<stop stop-color="rgb(255,186.294,64.8125)" offset="0" stop-opacity="1" />
			<stop stop-color="rgb(105.4,68.1168,2.19583)" offset="1" stop-opacity="0.75" />
		</linearGradient>
		<linearGradient id="paint_linear_6" x1="16.2099915" x2="16.2099915" y1="-2.17861467e-16" y2="7.11589527" gradientUnits="userSpaceOnUse">
			<stop stop-color="rgb(255,186.294,64.8125)" offset="0" stop-opacity="1" />
			<stop stop-color="rgb(105.4,68.1168,2.19583)" offset="1" stop-opacity="0.75" />
		</linearGradient>
		<linearGradient id="paint_linear_7" x1="8.60935974" x2="8.60935974" y1="-2.8166916e-16" y2="9.20001221" gradientUnits="userSpaceOnUse">
			<stop stop-color="rgb(255,186.294,64.8125)" offset="0" stop-opacity="1" />
			<stop stop-color="rgb(105.4,68.1168,2.19583)" offset="1" stop-opacity="0.75" />
		</linearGradient>
		<linearGradient id="paint_linear_8" x1="7.60499573" x2="7.60499573" y1="-1.91963064e-16" y2="6.26998901" gradientUnits="userSpaceOnUse">
			<stop stop-color="rgb(255,186.294,64.8125)" offset="0" stop-opacity="1" />
			<stop stop-color="rgb(105.4,68.1168,2.19583)" offset="1" stop-opacity="0.75" />
		</linearGradient>
		<linearGradient id="paint_linear_9" x1="7.80500793" x2="7.80500793" y1="-7.89060557e-17" y2="2.57726717" gradientUnits="userSpaceOnUse">
			<stop stop-color="rgb(255,249,192)" offset="0.161458328" stop-opacity="1" />
			<stop stop-color="rgb(255,186.294,64.8125)" offset="0.65625" stop-opacity="1" />
		</linearGradient>
		<linearGradient id="paint_linear_10" x1="5.62998915" x2="5.62998915" y1="-4.8189822e-16" y2="15.7399902" gradientUnits="userSpaceOnUse">
			<stop stop-color="rgb(255,186.294,64.8125)" offset="0" stop-opacity="1" />
			<stop stop-color="rgb(105.4,68.1168,2.19583)" offset="1" stop-opacity="0.75" />
		</linearGradient>
		<linearGradient id="paint_linear_11" x1="3.40000153" x2="3.40000153" y1="-1.46957252e-16" y2="4.79998779" gradientUnits="userSpaceOnUse">
			<stop stop-color="rgb(255,186.294,64.8125)" offset="0" stop-opacity="1" />
			<stop stop-color="rgb(105.4,68.1168,2.19583)" offset="1" stop-opacity="0.75" />
		</linearGradient>
		<linearGradient id="paint_linear_12" x1="11.4109612" x2="11.4109612" y1="-1.79307888e-16" y2="5.85663986" gradientUnits="userSpaceOnUse">
			<stop stop-color="rgb(255,249,192)" offset="0.161458328" stop-opacity="1" />
			<stop stop-color="rgb(255,186.294,64.8125)" offset="0.65625" stop-opacity="1" />
		</linearGradient>
		<linearGradient id="paint_linear_13" x1="2.73500061" x2="2.73500061" y1="-1.59204461e-16" y2="5.20001221" gradientUnits="userSpaceOnUse">
			<stop stop-color="rgb(255,186.294,64.8125)" offset="0" stop-opacity="1" />
			<stop stop-color="rgb(105.4,68.1168,2.19583)" offset="1" stop-opacity="0.75" />
		</linearGradient>
		<linearGradient id="paint_linear_14" x1="12.1853304" x2="12.1853304" y1="-1.64465965e-16" y2="5.37186575" gradientUnits="userSpaceOnUse">
			<stop stop-color="rgb(255,249,192)" offset="0.161458328" stop-opacity="1" />
			<stop stop-color="rgb(255,186.294,64.8125)" offset="0.65625" stop-opacity="1" />
		</linearGradient>
		<linearGradient id="paint_linear_15" x1="1.38823509" x2="1.38823509" y1="-3.38921229e-16" y2="11.0700073" gradientUnits="userSpaceOnUse">
			<stop stop-color="rgb(255,186.294,64.8125)" offset="0" stop-opacity="1" />
			<stop stop-color="rgb(105.4,68.1168,2.19583)" offset="1" stop-opacity="0.75" />
		</linearGradient>
		<linearGradient id="paint_linear_16" x1="1.93614388" x2="1.93614388" y1="-2.57482108e-16" y2="8.41000366" gradientUnits="userSpaceOnUse">
			<stop stop-color="rgb(255,186.294,64.8125)" offset="0" stop-opacity="1" />
			<stop stop-color="rgb(105.4,68.1168,2.19583)" offset="1" stop-opacity="0.75" />
		</linearGradient>
		<linearGradient id="paint_linear_17" x1="10.8404036" x2="10.8404036" y1="-1.78091364e-16" y2="5.81690502" gradientUnits="userSpaceOnUse">
			<stop stop-color="rgb(255,249,192)" offset="0.161458328" stop-opacity="1" />
			<stop stop-color="rgb(255,186.294,64.8125)" offset="0.65625" stop-opacity="1" />
		</linearGradient>
		<linearGradient id="paint_linear_18" x1="1.2185452" x2="1.2185452" y1="-1.28464193e-16" y2="4.19595861" gradientUnits="userSpaceOnUse">
			<stop stop-color="rgb(255,186.294,64.8125)" offset="0" stop-opacity="1" />
			<stop stop-color="rgb(105.4,68.1168,2.19583)" offset="1" stop-opacity="0.75" />
		</linearGradient>
		<linearGradient id="paint_linear_19" x1="2.54001141" x2="2.54001141" y1="-1.95943311e-16" y2="6.3999939" gradientUnits="userSpaceOnUse">
			<stop stop-color="rgb(255,186.294,64.8125)" offset="0" stop-opacity="1" />
			<stop stop-color="rgb(105.4,68.1168,2.19583)" offset="1" stop-opacity="0.75" />
		</linearGradient>
		<linearGradient id="paint_linear_20" x1="1.41060162" x2="1.41060162" y1="-5.34752083e-17" y2="1.74663281" gradientUnits="userSpaceOnUse">
			<stop stop-color="rgb(255,186.294,64.8125)" offset="0" stop-opacity="1" />
			<stop stop-color="rgb(105.4,68.1168,2.19583)" offset="1" stop-opacity="0.75" />
		</linearGradient>
		<linearGradient id="paint_linear_21" x1="14.5" x2="14.5" y1="-1.3304373e-16" y2="4.34553766" gradientUnits="userSpaceOnUse">
			<stop stop-color="rgb(255,186.294,64.8125)" offset="0" stop-opacity="1" />
			<stop stop-color="rgb(105.4,68.1168,2.19583)" offset="1" stop-opacity="0.75" />
		</linearGradient>
		<linearGradient id="paint_linear_22" x1="5.40499878" x2="5.40499878" y1="-4.32913113e-16" y2="14.1400146" gradientUnits="userSpaceOnUse">
			<stop stop-color="rgb(255,186.294,64.8125)" offset="0" stop-opacity="1" />
			<stop stop-color="rgb(105.4,68.1168,2.19583)" offset="1" stop-opacity="0.75" />
		</linearGradient>
	</defs>
	<rect id="bee" width="106.000000" height="88.930000" x="0.000000" y="0.000000" fill="rgb(255,255,255)" fill-opacity="0" transform="matrix(0.839454,0.543431,-0.543431,0.839454,48.3273,0)" />
	<path id="Vector" d="M0.15224 8.39999C1.24224 5.79999 1.89225 2.75 2.82225 0C0.932253 1.48 -0.47776 5.26999 0.15224 8.39999Z" fill="rgb(50.15,32.2393,0)" fill-rule="evenodd" transform="matrix(0.839454,0.543431,-0.543431,0.839454,73.5342,16.318)" />
	<path id="Vector" d="M4.45216 0.140015C3.82216 0.340015 4.12217 0.03 3.52217 0C1.52217 2 -0.337835 5.34003 0.0521648 8.81003C0.951301 5.6654 2.44491 2.72228 4.45216 0.140015Z" fill="rgb(50.15,32.2393,0)" fill-rule="evenodd" transform="matrix(0.839454,0.543431,-0.543431,0.839454,75.056,18.0894)" />
	<path id="Vector" d="M1.87 2.81355C2.56248 1.97404 3.18777 1.08126 3.74002 0.143534C3.57002 0.143534 3.56 -0.0264497 3.34 0.00355033C1.93 1.53355 0.34 2.84355 0 5.47355C1.08 5.02355 1.29 3.69355 1.87 2.81355Z" fill="rgb(50.15,32.2393,0)" fill-rule="evenodd" transform="matrix(0.839454,0.543431,-0.543431,0.839454,75.1415,21.4761)" />
	<path id="Vector" d="M3.95335 29.24C4.95335 31.24 7.10335 32.29 8.76335 33.64C9.47804 34.3126 10.2364 34.9373 11.0334 35.51C18.2434 39.9 30.3133 36.51 37.7133 34.44C38.2356 35.3248 38.8169 36.1734 39.4533 36.98C33.6433 38.29 28.0833 39.84 23.5733 42.45C22.9616 42.2799 22.3151 42.2799 21.7033 42.45C19.5333 42.94 15.2233 46.45 14.6333 47.78C14.4407 48.4287 14.3496 49.1034 14.3633 49.78C13.8033 50.92 12.6733 51.48 11.9633 52.45C13.4033 53.79 14.7533 51.87 15.2933 50.72C19.0333 50.72 20.9133 47.72 23.5733 46.18C27.5733 46.03 30.7033 43.9 34.1133 42.71C30.7804 45.5658 27.7813 48.7897 25.1733 52.32C23.9433 54.04 22.6034 56.77 23.9734 58.46C22.6634 60.09 20.3333 61.84 20.2333 64.59C20.1633 66.49 21.3234 71.04 22.3734 72.07C23.1634 72.84 24.4333 72.75 24.6433 73.67C24.8533 74.59 23.6434 76.28 24.3734 77.14C26.3234 76.73 26.6734 73.83 25.9734 71.93C27.0934 68.61 25.5534 62.93 26.5034 58.99C27.009 59.0407 27.5187 58.9471 27.9734 58.72C30.8034 54.17 32.9733 48.23 36.6433 44.98C35.7776 48.9174 35.4646 52.9562 35.7133 56.98C36.0233 62.41 37.2434 67.78 40.3834 71.12C40.8934 71.67 41.6233 72 42.1233 72.59C44.6033 75.59 46.8934 80.59 52.6634 79.93C55.0634 79.64 55.7634 77.43 57.0634 75.93C58.5534 74.2 60.5533 72.66 61.7333 70.59C65.9533 63.19 64.2033 51.79 61.8633 44.04C65.9869 47.8451 69.1822 52.5458 71.2033 57.78C71.4804 58.8381 72.0324 59.8042 72.8033 60.58C73.9333 64.26 73.9233 69.08 76.8033 70.99C77.0133 72.24 76.2134 73.13 76.6634 74.19C78.5034 74.75 78.6634 71.91 78.4034 70.32C78.8804 69.9377 79.2616 69.4494 79.5168 68.8939C79.772 68.3383 79.8941 67.731 79.8734 67.12C79.8734 66.6 79.5034 66.12 79.4734 65.52C79.4734 65.15 79.6534 64.66 79.6034 64.32C79.2534 61.96 77.0334 60.52 76.0034 59.11C75.6634 51.84 69.7633 48.27 66.5233 43.9C69.3533 45.83 72.5234 47.38 75.0634 49.64C75.4934 49.84 75.6534 49.69 76.1334 49.64C77.8834 51.72 79.6333 53.79 83.2033 54.04C83.9133 54.61 85.2033 55.85 86.2733 54.84C86.4933 53.38 84.7133 53.39 84.1433 52.44C83.8733 52.01 83.9333 51.38 83.7433 50.98C83.189 49.9323 82.4661 48.9829 81.6034 48.17C80.0878 46.6334 78.1299 45.6089 76.0034 45.24C74.1134 42.76 71.0033 41 67.8633 39.5C65.0495 38.1528 62.0259 37.2971 58.9233 36.97C59.6633 36.19 60.1333 35.15 60.9233 34.43C66.4633 35.43 73.5734 37.48 80.5334 36.7C86.7534 36 91.3334 32.89 92.4134 27.09C94.8534 25.63 98.4133 19.29 95.4833 16.82C88.1533 16.97 82.9333 19.33 76.8033 20.82C71.4033 22.13 66.1233 23.26 60.8033 24.82C60.7433 24.27 60.3433 24.04 60.2733 23.49C61.5632 22.6255 62.7686 21.6412 63.8733 20.55C65.4933 19.01 67.4533 17.62 67.2133 14.41C67.0533 12.33 67.4433 9.85001 67.0833 7.48001C66.9533 6.64001 66.2533 5.95002 66.0133 5.08002C65.7733 4.21002 66.2033 3.31001 65.4833 2.67001C64.4333 2.67001 64.4134 4.24002 64.6833 5.08002C62.7934 6.84002 62.5433 12.32 64.1433 14.55C61.4847 15.8744 59.4317 18.1634 58.4033 20.95C57.7825 20.6744 57.2008 20.318 56.6733 19.89C59.0133 14.89 54.9634 10.01 51.6034 8.28C53.1834 6.54 54.9334 4.58002 57.4734 3.61002C59.3634 2.89002 62.1233 3.29 61.6133 0.809998C59.6833 -0.260002 59.0133 1.26 58.1433 1.87C56.9233 2.73 54.2633 4.11 52.8033 5.34C51.8833 6.12 50.9234 7.78001 50.1334 8.01001C48.9234 8.37001 47.7934 7.83001 46.6634 8.14001C45.6634 3.70001 42.9833 0.14 38.1233 0C37.8632 0.295736 37.7197 0.676129 37.7197 1.07001C37.7197 1.46389 37.8632 1.84428 38.1233 2.14001C38.8633 2.75001 39.3933 2.02001 40.1233 2.01001C43.8633 1.94001 44.4633 5.4 45.5933 8.41C43.2833 10.41 38.7433 12.48 39.3233 17.08C39.5557 18.4219 40.1584 19.6723 41.0634 20.69C40.4934 20.74 40.0634 21.64 39.7234 21.49C38.2281 18.2076 36.1513 15.2229 33.5933 12.68C34.3933 10.85 37.1533 8.61001 36.9233 6.14001C36.7418 5.50248 36.518 4.87777 36.2534 4.27002C36.0834 3.67002 36.1133 2.81001 35.4533 2.54001C35.1424 2.84698 34.9178 3.23034 34.8019 3.65161C34.6861 4.07288 34.6831 4.51722 34.7933 4.94C34.3233 5.08 34.1634 5.47001 33.8534 5.88C32.9334 7.11 30.3133 11.5 30.6533 13.62C30.7233 14.08 31.3433 14.62 31.5833 15.08C32.1011 16.4008 32.7723 17.6561 33.5833 18.82C34.9941 20.6052 36.6544 22.1779 38.5133 23.49C38.0733 23.98 37.9734 24.81 37.3134 25.09C26.7834 23.66 13.4034 20.67 2.09335 20.69C1.27335 20.69 0.193351 22.5 0.0933506 23.09C-0.536649 26.68 2.16335 27.77 3.95335 29.24Z" fill="rgb(50.15,32.2393,0)" fill-rule="evenodd" transform="matrix(0.839454,0.543431,-0.543431,0.839454,44.325,8.03503)" />
	<path id="Vector" d="M1.45999 0L1.06 0C0.609998 2.5 0.27 5.75 0 8C1.68 6.62 1.97999 2.7 1.45999 0Z" fill="rgb(50.15,32.2393,0)" fill-rule="evenodd" transform="matrix(0.839454,0.543431,-0.543431,0.839454,118.136,75.3895)" />
	<path id="Vector" d="M1.70999 0L1.34 0C0.909996 2 0.23 4.41001 0 6.14001C1.45 5.14001 2.33999 2.23 1.70999 0Z" fill="rgb(50.15,32.2393,0)" fill-rule="evenodd" transform="matrix(0.839454,0.543431,-0.543431,0.839454,119.709,77.6705)" />
	<path id="Vector" d="M1.73001 0C1.28001 1.59 0.55 2.91 0 4.41C0.404 4.23506 0.769417 3.98199 1.07526 3.66531C1.3811 3.34864 1.62133 2.9746 1.7821 2.56476C1.94288 2.15492 2.02106 1.71735 2.01212 1.27719C2.00317 0.837032 1.9073 0.402975 1.73001 0Z" fill="rgb(50.15,32.2393,0)" fill-rule="evenodd" transform="matrix(0.839454,0.543431,-0.543431,0.839454,120.362,80.0472)" />
	<path id="Vector" d="M0.270004 0C0.217202 0.154984 0.12399 0.293062 0 0.399994C0.445817 1.93792 1.26318 3.34253 2.38 4.48999C3.12 5.19999 4.55 6.32998 5.58 5.28998C3.4208 3.96599 1.60213 2.15419 0.270004 0Z" fill="rgb(50.15,32.2393,0)" fill-rule="evenodd" transform="matrix(0.839454,0.543431,-0.543431,0.839454,28.2876,32.9617)" />
	<path id="Vector" d="M3.87 4C3.08 2.25 1.35999 1.44 0.269989 0L0 0C0.35 2.28 2.04 3.21 3.87 4Z" fill="rgb(50.15,32.2393,0)" fill-rule="evenodd" transform="matrix(0.839454,0.543431,-0.543431,0.839454,26.5232,34.7856)" />
	<path id="Vector" d="M4.55431 3.60001C3.02431 2.42001 1.63431 1.1 0.024314 0C-0.295686 2.33 2.61431 3.97001 4.55431 3.60001Z" fill="rgb(50.15,32.2393,0)" fill-rule="evenodd" transform="matrix(0.839454,0.543431,-0.543431,0.839454,24.6222,36.6284)" />
	<path id="Vector" d="M2.66998 0C2.49998 2.51 0.8 3.48 0 5.34C0.28 3.51 0.939983 0.88 2.66998 0Z" fill="url(#paint_linear_0)" fill-rule="evenodd" transform="matrix(0.839454,0.543431,-0.543431,0.839454,68.623,31.067)" />
	<path id="Vector" d="M0.60272 0C1.60272 1.41 1.11274 4.99999 0.872739 6.79999C0.352739 4.83999 -0.64728 1.76 0.60272 0Z" fill="url(#paint_linear_1)" fill-rule="evenodd" transform="matrix(0.839454,0.543431,-0.543431,0.839454,95.1745,48.601)" />
	<path id="Vector" d="M5.47 7.21022C3.02 5.61022 1.58 3.00023 0 0.530228C0.22 0.310228 0.350018 -0.00977121 0.800018 0.000228792C2.60208 2.23542 4.16712 4.6517 5.47 7.21022Z" fill="url(#paint_linear_2)" fill-rule="evenodd" transform="matrix(0.839454,0.543431,-0.543431,0.839454,64.0539,37.3888)" />
	<path id="Vector" d="M37.61 0.116315C37.2714 1.83694 36.6889 3.50039 35.88 5.05632C32.48 10.5363 24.71 14.2463 15.33 13.7263C11.46 13.5063 7.47 12.6063 3.59 12.2563C2.99 12.2563 2.26 12.2563 1.59 12.1263C1.19 12.0563 0.269995 12.1263 0.119995 11.4563C0.179995 10.6863 1.07001 11.2963 1.32001 11.3263C6.28188 11.8466 11.2737 12.0237 16.26 11.8563C15.05 10.8563 12.87 11.2963 11.06 11.1863C7.71402 11.1129 4.3751 10.8458 1.06 10.3863C7.25264 9.9966 13.3832 8.92341 19.34 7.18629C14 7.74629 8.9 8.77632 2.53 9.05632C1.83 9.05632 0.46 9.45632 0 9.05632C0.25 8.50632 1.11001 8.3863 1.60001 8.2563C6.33001 6.9963 11.27 5.70631 16.27 4.51631C23.02 2.92631 29.27 1.15631 36.42 0.116315C36.8015 -0.0387715 37.2285 -0.0387715 37.61 0.116315Z" fill="url(#paint_linear_3)" fill-rule="evenodd" transform="matrix(0.839454,0.543431,-0.543431,0.839454,82.2924,54.9065)" />
	<path id="Vector" d="M19.6 4.86314C18.4202 5.24748 17.2619 5.69479 16.13 6.20314C17.08 8.91314 14.92 13.3631 18.8 13.2731C17.21 16.1831 14.91 19.1231 9.85999 18.7431C5.58999 18.4231 1.51001 17.0131 0.390015 13.5431C1.10001 12.9231 2.32 12.8031 3.19 12.3431C3.25704 10.1295 3.52819 7.92688 4 5.76313C3 5.08313 1.16 5.31313 0 4.82313C1.47 1.98313 4.65999 0.823133 8.39999 0.293133C9.08999 0.133133 8.54001 1.21313 9.07001 1.22313C9.60001 1.23313 9.64 0.553149 9.87 0.153149C14.46 -0.566851 18.49 1.29314 19.6 4.86314ZM11.46 1.39314C10.38 1.27314 10.78 3.09313 11.33 3.26313C11.86 2.96313 11.79 1.87314 11.46 1.39314ZM14.93 3.66313C15.14 3.01313 14.87 1.80315 13.86 1.93315C13.51 2.76315 14.26 3.92313 14.93 3.66313ZM3.59 4.33314C4.07 4.08314 4.10999 3.05312 3.98999 2.59312C3.17999 2.36312 3.07 4.11314 3.59 4.33314ZM7.73001 4.46315C8.73001 4.57315 8.68001 3.09312 8.26001 2.59312C7.30001 2.51312 7.61001 3.85315 7.73001 4.46315ZM4.92001 3.93315C5.12001 4.18315 5.22 4.52315 5.72 4.46315C6.22 4.40315 6.17 3.93315 6.12 3.40315C6.02592 3.28749 5.89642 3.20593 5.75146 3.17106C5.60651 3.1362 5.45413 3.14995 5.31775 3.21019C5.18137 3.27042 5.06854 3.37381 4.99667 3.50444C4.92481 3.63507 4.89789 3.78571 4.92001 3.93315ZM15.86 4.86314C16.62 4.86314 16.98 4.55314 16.93 3.80314C16.22 3.32314 15.57 4.31314 15.86 4.86314ZM10.53 5.66313C11.53 4.08313 9.28001 3.71314 9.73001 5.80314C10.13 5.89314 10.21 5.66313 10.53 5.66313ZM12.4 4.46315C11.84 5.08315 12.53 6.24314 13.46 6.20314C13.5258 6.01924 13.5497 5.82293 13.5299 5.62861C13.51 5.4343 13.447 5.2469 13.3454 5.08009C13.2438 4.91328 13.1061 4.77128 12.9426 4.66453C12.779 4.55779 12.5936 4.48899 12.4 4.46315ZM6.39999 7.27314C7.29999 7.27314 7.49001 6.49313 7.60001 5.66313C6.64001 5.18313 5.85001 6.65314 6.39001 7.27314L6.39999 7.27314ZM10.67 9.27314C11.53 9.27314 11.29 7.27314 10.94 6.86314L10.54 6.86314C10.13 7.35314 10.1 8.94314 10.66 9.27314L10.67 9.27314ZM13.07 10.6031C13.5788 10.5056 14.0298 10.2145 14.3282 9.79112C14.6267 9.36772 14.7492 8.84506 14.67 8.33314C13.52 8.48314 13.32 9.57313 13.06 10.6031L13.07 10.6031ZM8.92999 8.76313C7.92999 9.26313 8.32999 11.7631 9.85999 11.3031C10.0512 10.8402 10.0617 10.3224 9.8895 9.85206C9.71729 9.38174 9.3749 8.99317 8.92999 8.76313ZM5.06 10.6331C5.15 11.2431 6.56001 12.0331 6.92001 10.7631C6.67001 9.47313 4.83 9.16313 5.06 10.6031L5.06 10.6331ZM13.33 14.1031C14.33 14.0531 15.19 13.1031 14.53 12.2331C13.52 12.2231 13.31 13.0331 13.33 14.0731L13.33 14.1031ZM6.26001 14.6331C6.73001 14.0931 6.12 13.2231 6.12 12.3731C5 12.2731 5.00001 14.8431 6.26001 14.6031L6.26001 14.6331ZM10.39 15.3031C10.75 14.9431 10.66 14.1431 10.66 13.4331C9.47 11.9331 8.82001 15.3931 10.39 15.2731L10.39 15.3031ZM4.12 15.9731C4.12 14.9731 3.43001 14.6231 3.32001 13.7031L2.92001 13.7031C2.11001 14.6831 3.39 16.0831 4.12 15.9431L4.12 15.9731ZM14.12 17.0431C14.6607 17.0328 15.1785 16.8228 15.5736 16.4536C15.9687 16.0843 16.2132 15.5819 16.26 15.0431C15.15 14.7031 14 16.0931 14.13 17.0131L14.12 17.0431ZM10.78 17.7031C10.981 17.6452 11.1673 17.545 11.3264 17.4092C11.4856 17.2735 11.614 17.1053 11.7029 16.916C11.7919 16.7267 11.8395 16.5206 11.8424 16.3114C11.8454 16.1023 11.8036 15.8949 11.72 15.7031C10.74 15.6131 10.25 17.0431 10.79 17.6731L10.78 17.7031Z" fill="url(#paint_linear_4)" fill-rule="evenodd" transform="matrix(0.839454,0.543431,-0.543431,0.839454,66.3846,46.5776)" />
	<path id="Vector" d="M37.3876 4.82001C30.6476 5.15001 24.3076 3.93 17.5076 3.88C23.7076 5.51 32.2776 6.04 39.3876 5.88C39.4976 7.04 38.0376 6.72 37.3876 6.81C32.0976 7.51 24.7076 7.61001 18.9776 8.01001C25.0776 9.10001 32.8676 8.29999 38.9776 7.73999C35.0476 9.51999 29.8376 10.06 24.1676 10.55C17.5976 11.11 11.7676 11.6 6.81761 9.08002C5.75234 8.48533 4.72986 7.81704 3.75761 7.08002C2.75224 6.46172 1.81093 5.74484 0.947613 4.94C-0.522387 3.12 -0.462386 0.24 2.41761 0C3.942 0.070143 5.4593 0.250624 6.95761 0.540009C17.3776 1.38001 27.0676 4.05001 37.3876 4.82001ZM8.96762 2.38C8.36544 2.17894 7.73207 2.0875 7.09761 2.11002C7.10761 2.76002 8.81762 3.21 8.96762 2.38ZM9.63762 7.05002C10.8176 7.42002 12.3776 8.11999 13.9076 7.70999C12.8076 7.37999 10.6676 6.62 9.66761 7.09L9.63762 7.05002Z" fill="url(#paint_linear_5)" fill-rule="evenodd" transform="matrix(0.839454,0.543431,-0.543431,0.839454,34.0128,27.2689)" />
	<path id="Vector" d="M32.42 0C29.01 10.64 9.81 7 0 4C2.10459 4.04727 4.20169 4.26799 6.26999 4.65997C10.7992 5.49597 15.4091 5.81135 20.01 5.59998C25.34 5.19998 29.23 2.5 32.42 0Z" fill="url(#paint_linear_6)" fill-rule="evenodd" transform="matrix(0.839454,0.543431,-0.543431,0.839454,78.191,63.671)" />
	<path id="Vector" d="M0 0C5.66 1.06 11 3 14.94 6C15.94 6.78 17.73 7.66001 17.08 9.20001C15.6516 8.62463 14.3064 7.86124 13.08 6.93002C10.5166 5.16393 7.84462 3.56075 5.07999 2.13C3.59999 1.42 1.95997 1.13002 0.409973 0.400024C0.179973 0.290024 0.01 0.51 0 0Z" fill="url(#paint_linear_7)" fill-rule="evenodd" transform="matrix(0.839454,0.543431,-0.543431,0.839454,72.3771,71.6768)" />
	<path id="Vector" d="M15.21 0C10.21 2.17 5.89 4.99999 0 6.26999C1.08 4.08999 4.00001 3.32999 6.54001 2.39999C9.31867 1.24172 12.2312 0.435474 15.21 0Z" fill="url(#paint_linear_8)" fill-rule="evenodd" transform="matrix(0.839454,0.543431,-0.543431,0.839454,43.8197,53.6664)" />
	<path id="Vector" d="M15.61 0.719367C11.86 2.65937 5.1 3.03935 0 2.04935C1.4 -1.22065 6.26 1.55936 9.88 1.11936C12.05 0.849361 14.03 -0.990633 15.61 0.719367Z" fill="url(#paint_linear_9)" fill-rule="evenodd" transform="matrix(0.839454,0.543431,-0.543431,0.839454,57.5707,64.0939)" />
	<path id="Vector" d="M20.42 2.36728C16.15 5.89728 5.93 5.4573 0 3.6973C0.320213 2.70855 0.770847 1.7669 1.34 0.89728C6.17 2.59728 14.15 1.81729 18.15 0.0972924C19.41 -0.442708 19.84 1.39728 20.42 2.36728Z" fill="rgb(11,11,11)" fill-rule="evenodd" transform="matrix(0.839454,0.543431,-0.543431,0.839454,54.6044,64.4989)" />
	<path id="Vector" d="M10.1435 15.74C9.2935 15.47 9.23349 14.38 8.94349 13.74C6.75349 8.85999 3.9935 3.83999 0.143499 0.399994C0.0134986 0.399994 0.033484 0.240005 0.00348397 0.130005C-0.026516 0.0200049 0.143473 0 0.273473 0C0.403473 0 0.403493 0.130005 0.543492 0.130005C4.38561 3.26508 7.6367 7.06139 10.1435 11.34C10.7435 12.35 12.3235 15.09 10.1435 15.74Z" fill="url(#paint_linear_10)" fill-rule="evenodd" transform="matrix(0.839454,0.543431,-0.543431,0.839454,74.0171,78.9449)" />
	<path id="Vector" d="M6.8 0C5.02 2 2.8 4.23999 0 4.79999C1.46 2.44999 3.53 0.02 6.8 0Z" fill="url(#paint_linear_11)" fill-rule="evenodd" transform="matrix(0.839454,0.543431,-0.543431,0.839454,33.3181,53.8607)" />
	<path id="Vector" d="M22.8219 3.87C16.7619 6.71 5.82195 6.39999 0.00194527 3.60999C-0.0181195 2.70368 0.117163 1.80064 0.401939 0.940002C6.20194 3.4 17.2019 3.44 21.8819 0C22.4327 1.2205 22.7514 2.53284 22.8219 3.87Z" fill="url(#paint_linear_12)" fill-rule="evenodd" transform="matrix(0.839454,0.543431,-0.543431,0.839454,51.8128,67.0962)" />
	<path id="Vector" d="M0 0L0.259979 0C2.57998 0.94 4.85 2.41001 5.47 5.20001C2.8 4.30001 0.49 3.05 0 0Z" fill="url(#paint_linear_13)" fill-rule="evenodd" transform="matrix(0.839454,0.543431,-0.543431,0.839454,83.1943,89.3412)" />
	<path id="Vector" d="M0.27002 0C6.10002 2.85 17.36 3.33 23.48 0.410004C23.84 1.65 23.9 3.19001 24.15 4.54001C16.6 6.22001 7.15 5.11002 0 3.74002C0.0262816 2.48957 0.116418 1.24126 0.27002 0Z" fill="rgb(11,11,11)" fill-rule="evenodd" transform="matrix(0.839454,0.543431,-0.543431,0.839454,48.9409,70.8)" />
	<path id="Vector" d="M0.0231551 0C6.87316 1.86 17.2032 2.60999 24.3032 0.799988C24.3932 1.9115 24.3932 3.0285 24.3032 4.14001C17.4532 5.81001 6.86316 5.8 0.15316 4C0.13316 2.63 -0.0668449 1.46 0.0231551 0Z" fill="url(#paint_linear_14)" fill-rule="evenodd" transform="matrix(0.839454,0.543431,-0.543431,0.839454,46.2314,74.9429)" />
	<path id="Vector" d="M2.69263 0C1.78263 3.73 4.09262 9.30001 1.49262 11.07C-0.597384 7.75001 -0.747372 1.87 2.69263 0Z" fill="url(#paint_linear_15)" fill-rule="evenodd" transform="matrix(0.839454,0.543431,-0.543431,0.839454,30.3314,70.5226)" />
	<path id="Vector" d="M3.47 8.41C0.470001 8.17 1.13 3.11 0 0.529999C0.34789 0.253281 0.761158 0.0707612 1.20001 0C2.97001 1.92 4.67 4.67 3.47 8.41Z" fill="url(#paint_linear_16)" fill-rule="evenodd" transform="matrix(0.839454,0.543431,-0.543431,0.839454,73.8182,99.1508)" />
	<path id="Vector" d="M23.48 0C24.1 0.47 23.25 1.69 23.35 2.53C17.69 5.38 7.14 6.29998 0.529999 3.72998C0.0999988 2.78998 0.25 1.25 0 0.130005C7.76123 1.60763 15.7356 1.56347 23.48 0Z" fill="rgb(11,11,11)" fill-rule="evenodd" transform="matrix(0.839454,0.543431,-0.543431,0.839454,43.4343,79.8031)" />
	<path id="Vector" d="M21.61 0C22 1.11 20.67 2.78 20.28 4C17.8279 5.04765 15.2046 5.63736 12.54 5.73999C9.11001 5.92999 4.42999 5.85001 2.39999 4.54001C0.999994 3.63001 0.86 2.03999 0 0.799988C5.78 2.54999 16.28 2.76 21.61 0Z" fill="url(#paint_linear_17)" fill-rule="evenodd" transform="matrix(0.839454,0.543431,-0.543431,0.839454,41.8239,84.0021)" />
	<path id="Vector" d="M0 10.2547C2.16 8.83474 3.33 4.09472 1.34 1.58472C2.7 0.0947232 7.51999 -0.825276 9.07999 1.05472C8.46395 2.29342 8.22376 3.68529 8.38901 5.05881C8.55426 6.43234 9.11771 7.72751 10.01 8.78474C10.35 9.11474 11.16 9.18472 10.94 9.58472C7.51 8.62472 3 9.52474 0 10.2547Z" fill="rgb(11,11,11)" fill-rule="evenodd" transform="matrix(0.839454,0.543431,-0.543431,0.839454,75.0741,39.264)" />
	<path id="Vector" d="M0.800018 4.19596C0.556572 4.00509 0.358529 3.76256 0.220184 3.48588C0.0818397 3.20919 0.00662513 2.90523 0 2.59595C0.35 2.59595 0.759993 2.59594 0.929993 2.45594C1.62999 2.45594 2.42999 -0.434056 2.39999 0.055944C2.63999 2.21594 1.67002 3.15596 0.800018 4.19596Z" fill="url(#paint_linear_18)" fill-rule="evenodd" transform="matrix(0.839454,0.543431,-0.543431,0.839454,70.8347,42.6293)" />
	<path id="Vector" d="M4.94 0C5.54 1.52 4.07002 2.79998 3.21002 3.72998C2.19644 4.6857 1.12435 5.57744 0 6.39999C0.31 4.50999 2.19 3.09001 3.47 1.60001C3.96 1.04001 4.19 0.08 4.94 0Z" fill="url(#paint_linear_19)" fill-rule="evenodd" transform="matrix(0.839454,0.543431,-0.543431,0.839454,86.7459,53.6395)" />
	<path id="Vector" d="M0 0C0.54 0 1.57 1.30998 2.81 0.669983C2.81 1.04998 2.88001 1.53999 2.67001 1.73999C1.11001 1.83999 0.68 0.79 0 0Z" fill="url(#paint_linear_20)" fill-rule="evenodd" transform="matrix(0.839454,0.543431,-0.543431,0.839454,80.1165,50.1342)" />
	<path id="Vector" d="M0 1.20001C7.38 3.51001 20.59 1.2 28.69 0L29 0C24.44 1.38 17.72 3.82001 11.65 4.26001C7.5252 4.67209 3.38988 3.58591 0 1.20001Z" fill="url(#paint_linear_21)" fill-rule="evenodd" transform="matrix(0.839454,0.543431,-0.543431,0.839454,35.7567,40.5249)" />
	<path id="Vector" d="M10.81 0C8.9569 1.96571 7.30222 4.10942 5.87 6.39999C4.47 8.94999 3.63 11.82 2 14.14C1.32726 14.1091 0.658278 14.0221 0 13.88C0.29 10.28 2.84 7.43 4.94 5.34C6.77024 3.42579 8.73165 1.64147 10.81 0Z" fill="url(#paint_linear_22)" fill-rule="evenodd" transform="matrix(0.839454,0.543431,-0.543431,0.839454,41.8828,58.1305)" />
	<path id="Vector" d="M15.08 0C13.75 1.17 12.58 4.38998 10.81 5.59998C10.14 6.05998 9.22 5.89999 8.94 6.79999C7.89681 6.92719 6.83861 6.77152 5.87625 6.34927C4.91389 5.92703 4.08278 5.25377 3.47 4.39999C5.53 4.73999 8.61001 5.11999 10.54 4.39999C7.94001 3.39999 4.39999 4.45998 2.26999 3.19998C1.01999 2.45998 1.16 1.04998 0 0.259979C3.85 1.01998 11.28 1.48 15.08 0Z" fill="rgb(11,11,11)" fill-rule="evenodd" transform="matrix(0.839454,0.543431,-0.543431,0.839454,41.8451,91.3301)" />
</svg>
