<svg viewBox="0 0 209.21 210.211" xmlns="http://www.w3.org/2000/svg" xmlns:xlink="http://www.w3.org/1999/xlink" width="209.209656" height="210.210693" fill="none" customFrame="#000000">
	<defs>
		<radialGradient id="paint_radial_16" cx="0" cy="0" r="1" gradientUnits="userSpaceOnUse" gradientTransform="matrix(73.4558,107.752,-152.797,104.163,2.78946,3.73708)">
			<stop stop-color="rgb(255,225.25,148.75)" offset="0" stop-opacity="1" />
			<stop stop-color="rgb(242.25,187.189,89.8344)" offset="0.177083328" stop-opacity="0.876811624" />
			<stop stop-color="rgb(191,122,0)" offset="0.359375" stop-opacity="0.75" />
			<stop stop-color="rgb(191,122,0)" offset="1" stop-opacity="0" />
			<stop stop-color="rgb(15,18,24)" offset="1" stop-opacity="0" />
		</radialGradient>
		<radialGradient id="paint_radial_17" cx="0" cy="0" r="1" gradientUnits="userSpaceOnUse" gradientTransform="matrix(-88.0103,-50.3763,50.1364,-87.5912,192.911,155.277)">
			<stop stop-color="rgb(255,225,149)" offset="0" stop-opacity="1" />
			<stop stop-color="rgb(242,187,90)" offset="0.166666672" stop-opacity="0.800000012" />
			<stop stop-color="rgb(191,122,0)" offset="0.328125" stop-opacity="0.75" />
			<stop stop-color="rgb(11,11,11)" offset="1" stop-opacity="0" />
		</radialGradient>
		<clipPath id="clipPath_9">
			<rect width="135.000000" height="135.000000" x="37.209656" y="38.000000" fill="rgb(255,255,255)" />
		</clipPath>
		<linearGradient id="paint_linear_69" x1="104.942764" x2="104.942764" y1="67.2141113" y2="144.196289" gradientUnits="userSpaceOnUse">
			<stop stop-color="rgb(255,186.294,64.8125)" offset="0" stop-opacity="1" />
			<stop stop-color="rgb(255,251,189)" offset="1" stop-opacity="1" />
		</linearGradient>
	</defs>
	<rect id="Frame 7" width="209.209671" height="210.210678" x="0.000000" y="0.000000" />
	<path id="Polygon 6" d="M185.72 47.0558C191.585 50.4584 195.195 56.7263 195.195 63.5071L195.195 146.704C195.195 153.484 191.585 159.752 185.72 163.155L114.148 204.674C108.247 208.098 100.963 208.098 95.0612 204.674L23.4899 163.155C17.6245 159.752 14.0144 153.484 14.0144 146.704L14.0144 63.5071C14.0144 56.7263 17.6245 50.4584 23.4898 47.0558L95.0612 5.53636C100.963 2.11265 108.247 2.11265 114.148 5.53636L185.72 47.0558Z" fill="rgb(242.25,187.189,89.8344)" fill-opacity="0.100000001" fill-rule="evenodd" />
	<path id="Polygon 6" d="M188.982 47.1193C188.233 46.5336 187.443 45.9998 186.612 45.5179L115.041 3.99842C114.204 3.5131 113.342 3.08962 112.455 2.72798C111.646 2.39803 110.816 2.11955 109.964 1.89256C109.108 1.66423 108.244 1.4916 107.373 1.37468C106.458 1.25195 105.536 1.19059 104.605 1.19059C103.674 1.19059 102.751 1.25195 101.837 1.37468C100.966 1.4916 100.102 1.66423 99.2454 1.89256C98.3941 2.11957 97.5637 2.39806 96.7544 2.72804C95.8674 3.08967 95.0056 3.51313 94.1691 3.99842L22.5977 45.5179C21.7668 45.9999 20.9765 46.5338 20.2267 47.1196C19.5416 47.655 18.8903 48.2337 18.2729 48.8558C17.6524 49.481 17.076 50.14 16.5435 50.8328C15.9844 51.5603 15.4739 52.3251 15.0119 53.1272C14.55 53.9292 14.1447 54.7544 13.796 55.603C13.4638 56.4113 13.183 57.2408 12.9535 58.0914C12.7253 58.9373 12.5515 59.7908 12.4323 60.6519C12.3017 61.5946 12.2364 62.5463 12.2364 63.5071L12.2364 146.704C12.2364 147.665 12.3017 148.617 12.4324 149.56C12.5517 150.421 12.7254 151.274 12.9535 152.119C13.1831 152.97 13.4641 153.8 13.7965 154.609C14.1451 155.457 14.5502 156.282 15.0119 157.083C15.4739 157.886 15.9845 158.65 16.5436 159.378C17.076 160.071 17.6525 160.73 18.2729 161.355C18.8899 161.977 19.5406 162.555 20.2252 163.09C20.9754 163.676 21.7662 164.21 22.5977 164.693L94.1691 206.212C95.0061 206.698 95.8684 207.122 96.7559 207.483C97.5648 207.813 98.3946 208.091 99.2454 208.318C100.102 208.546 100.965 208.719 101.836 208.836C102.751 208.959 103.674 209.02 104.605 209.02C105.536 209.02 106.459 208.959 107.373 208.836C108.244 208.719 109.108 208.546 109.964 208.318C110.815 208.091 111.645 207.813 112.454 207.483C113.341 207.122 114.204 206.698 115.041 206.212L186.612 164.693C187.443 164.211 188.234 163.677 188.984 163.09C189.669 162.555 190.32 161.977 190.937 161.355C191.556 160.731 192.132 160.072 192.664 159.38C193.224 158.652 193.735 157.887 194.198 157.083C194.659 156.282 195.064 155.457 195.413 154.609C195.746 153.8 196.027 152.97 196.256 152.119C196.484 151.274 196.658 150.421 196.777 149.56C196.908 148.617 196.973 147.665 196.973 146.704L196.973 63.5071C196.973 62.5464 196.908 61.5948 196.777 60.6522C196.658 59.7911 196.484 58.9374 196.256 58.0913C196.026 57.2395 195.745 56.4089 195.412 55.5994C195.064 54.7522 194.659 53.9281 194.198 53.1272C193.735 52.3241 193.224 51.5584 192.664 50.8301C192.132 50.1382 191.556 49.4801 190.937 48.8558C190.319 48.2336 189.668 47.6547 188.982 47.1193ZM195.195 63.5071C195.195 56.7263 191.585 50.4584 185.72 47.0558L114.148 5.53636C108.247 2.11265 100.963 2.11265 95.0612 5.53636L23.4898 47.0558C17.6245 50.4584 14.0144 56.7263 14.0144 63.5071L14.0144 146.704C14.0144 153.484 17.6245 159.752 23.4899 163.155L95.0612 204.674C100.963 208.098 108.247 208.098 114.148 204.674L185.72 163.155C191.585 159.752 195.195 153.484 195.195 146.704L195.195 63.5071Z" fill="url(#paint_radial_16)" fill-rule="evenodd" />
	<path id="Polygon 6" d="M188.982 47.1193C188.233 46.5336 187.443 45.9998 186.612 45.5179L115.041 3.99842C114.204 3.5131 113.342 3.08962 112.455 2.72798C111.646 2.39803 110.816 2.11955 109.964 1.89256C109.108 1.66423 108.244 1.4916 107.373 1.37468C106.458 1.25195 105.536 1.19059 104.605 1.19059C103.674 1.19059 102.751 1.25195 101.837 1.37468C100.966 1.4916 100.102 1.66423 99.2454 1.89256C98.3941 2.11957 97.5637 2.39806 96.7544 2.72804C95.8674 3.08967 95.0056 3.51313 94.1691 3.99842L22.5977 45.5179C21.7668 45.9999 20.9765 46.5338 20.2267 47.1196C19.5416 47.655 18.8903 48.2337 18.2729 48.8558C17.6524 49.481 17.076 50.14 16.5435 50.8328C15.9844 51.5603 15.4739 52.3251 15.0119 53.1272C14.55 53.9292 14.1447 54.7544 13.796 55.603C13.4638 56.4113 13.183 57.2408 12.9535 58.0914C12.7253 58.9373 12.5515 59.7908 12.4323 60.6519C12.3017 61.5946 12.2364 62.5463 12.2364 63.5071L12.2364 146.704C12.2364 147.665 12.3017 148.617 12.4324 149.56C12.5517 150.421 12.7254 151.274 12.9535 152.119C13.1831 152.97 13.4641 153.8 13.7965 154.609C14.1451 155.457 14.5502 156.282 15.0119 157.083C15.4739 157.886 15.9845 158.65 16.5436 159.378C17.076 160.071 17.6525 160.73 18.2729 161.355C18.8899 161.977 19.5406 162.555 20.2252 163.09C20.9754 163.676 21.7662 164.21 22.5977 164.693L94.1691 206.212C95.0061 206.698 95.8684 207.122 96.7559 207.483C97.5648 207.813 98.3946 208.091 99.2454 208.318C100.102 208.546 100.965 208.719 101.836 208.836C102.751 208.959 103.674 209.02 104.605 209.02C105.536 209.02 106.459 208.959 107.373 208.836C108.244 208.719 109.108 208.546 109.964 208.318C110.815 208.091 111.645 207.813 112.454 207.483C113.341 207.122 114.204 206.698 115.041 206.212L186.612 164.693C187.443 164.211 188.234 163.677 188.984 163.09C189.669 162.555 190.32 161.977 190.937 161.355C191.556 160.731 192.132 160.072 192.664 159.38C193.224 158.652 193.735 157.887 194.198 157.083C194.659 156.282 195.064 155.457 195.413 154.609C195.746 153.8 196.027 152.97 196.256 152.119C196.484 151.274 196.658 150.421 196.777 149.56C196.908 148.617 196.973 147.665 196.973 146.704L196.973 63.5071C196.973 62.5464 196.908 61.5948 196.777 60.6522C196.658 59.7911 196.484 58.9374 196.256 58.0913C196.026 57.2395 195.745 56.4089 195.412 55.5994C195.064 54.7522 194.659 53.9281 194.198 53.1272C193.735 52.3241 193.224 51.5584 192.664 50.8301C192.132 50.1382 191.556 49.4801 190.937 48.8558C190.319 48.2336 189.668 47.6547 188.982 47.1193ZM195.195 63.5071C195.195 56.7263 191.585 50.4584 185.72 47.0558L114.148 5.53636C108.247 2.11265 100.963 2.11265 95.0612 5.53636L23.4898 47.0558C17.6245 50.4584 14.0144 56.7263 14.0144 63.5071L14.0144 146.704C14.0144 153.484 17.6245 159.752 23.4899 163.155L95.0612 204.674C100.963 208.098 108.247 208.098 114.148 204.674L185.72 163.155C191.585 159.752 195.195 153.484 195.195 146.704L195.195 63.5071Z" fill="url(#paint_radial_17)" fill-rule="evenodd" />
	<g id="Frame 24" clip-path="url(#clipPath_9)" customFrame="url(#clipPath_9)">
		<rect id="Frame 24" width="135.000000" height="135.000000" x="37.209656" y="38.000000" />
		<path id="Vector" d="M96.0741 67.6682L89.5172 79.1359C85.0965 79.1178 80.642 79.0972 76.2349 79.0804C75.987 79.1378 75.7672 79.3045 75.6467 79.5281L68.0245 92.7024C67.8703 92.9502 67.8484 93.2756 67.9683 93.5416L73.9089 106.017L67.4639 117.037C67.3071 117.307 67.3071 117.661 67.4639 117.931L75.086 131.106C75.229 131.355 75.4994 131.528 75.7866 131.553L89.7695 132.728L96.0741 143.72C96.2245 144.004 96.5374 144.193 96.8589 144.196L112.102 144.196C112.389 144.196 112.67 144.041 112.831 143.805L120.509 132.729L134.099 131.638C134.386 131.613 134.657 131.44 134.8 131.19L142.422 118.016C142.578 117.745 142.578 117.391 142.422 117.121L135.949 106.016L141.917 93.4573C142.037 93.1913 142.015 92.866 141.861 92.6181L134.239 79.4438C134.081 79.171 133.77 78.9936 133.454 78.9961L120.789 79.0804L112.831 67.5845C112.663 67.3585 112.384 67.2186 112.102 67.2211L96.8585 67.2211C96.5051 67.1612 96.2778 67.5002 96.0736 67.6682L96.0741 67.6682ZM97.3629 69.0107L111.654 69.0107L118.995 79.6117C118.849 79.7485 116.44 84.2623 115.128 86.4927C111.259 88.4282 106.775 91.3785 103.808 94.4083C102.981 93.235 102.12 92.5045 101.034 91.8907L102.043 88.1149L100.333 87.6391L99.2688 91.5548C98.7974 91.5735 98.311 91.6821 97.8396 91.8907L90.9743 80.1707L97.3629 69.0107ZM132.95 80.7863L140.095 93.1214L134.435 105.009L117.594 104.869C117.048 104.381 116.477 103.974 115.857 103.667C114.2 102.878 112.555 102.901 110.925 103.136C110.438 102.575 109.943 102.032 109.384 101.43C110.5 101.302 111.594 101.172 112.859 101.066C114.714 100.91 116.376 100.813 117.539 100.143C119.341 99.1044 121.116 97.0689 123.255 95.8363C123.378 95.7689 123.484 95.6721 123.563 95.5566C125.325 92.8772 125.754 90.0781 124.965 87.9207C124.175 85.7634 121.981 84.3778 119.276 84.76C118.839 84.8555 118.378 85.0628 117.988 85.2077L120.538 80.8725C124.676 80.845 128.814 80.815 132.951 80.7882L132.95 80.7863ZM76.9344 80.8706L89.32 80.9261L96.3814 92.9815C96.2597 93.1251 96.171 93.2731 96.073 93.4292L92.0936 92.3665L91.6453 94.1005L95.456 95.1358C95.3574 96.3914 95.7845 97.7496 96.2409 98.7441C92.0636 99.7944 87.6797 102.004 83.7434 104.646C83.7003 104.634 79.9638 104.622 75.1965 104.59L69.7886 93.2063L76.9344 80.8706ZM123.282 88.5344C123.813 89.9862 123.548 92.1822 122.077 94.4644C119.737 95.8925 117.869 97.8969 116.641 98.6042C116.261 98.8233 114.539 99.1218 112.718 99.2754C111.225 99.4009 109.622 99.4989 108.263 99.695C107.99 98.6179 107.634 97.6801 107.058 96.8977C106.594 96.2689 105.974 95.7894 105.236 95.4153C109.024 91.7045 115.827 87.8121 119.611 86.5207C121.184 86.2628 122.826 87.3536 123.282 88.5344ZM103.443 96.6179C104.366 96.8533 105.065 97.444 105.601 97.9604C105.924 98.3981 106.168 98.9888 106.386 99.7224C105.116 99.7886 103.792 100.308 102.576 101.009C101.351 101.715 100.24 102.624 99.549 103.694C99.022 103.13 98.6474 102.6 98.4282 102.1C98.0898 101.018 98.1391 100.356 98.372 99.4426C98.7591 98.4667 99.5684 97.6019 100.333 97.1492C101.448 96.5778 102.342 96.4275 103.443 96.6179ZM96.3821 100.478C96.344 101.313 96.4576 102.106 96.7742 102.827C97.1682 103.725 97.7901 104.53 98.5957 105.317C97.8083 106.367 97.094 107.588 96.4102 108.701C95.5586 110.087 94.6607 111.279 94.2804 111.499C93.7703 111.793 92.3797 112.112 90.8899 112.45C89.4682 112.772 87.9259 113.149 86.6308 113.848C84.1675 114.318 82.2805 113.604 81.3627 112.534C80.4567 111.477 80.3312 110.08 81.5026 108.506C85.974 105.008 91.4387 101.798 96.3821 100.478ZM75.7586 106.38L81.2789 106.407C80.8562 106.703 80.509 107.01 80.1581 107.302C78.4748 109.449 78.5759 112.024 80.0183 113.707C81.4606 115.39 84.04 116.19 87.0515 115.581C87.1489 115.569 87.2439 115.54 87.3319 115.497C88.3147 114.93 89.8183 114.513 91.2832 114.182C92.7474 113.851 94.1467 113.63 95.1781 113.036C96.3402 112.366 97.0832 111.066 97.9523 109.652C98.5136 108.739 99.045 107.953 99.6058 107.134C99.8412 107.893 100.071 108.577 100.306 109.26C99.0819 110.586 98.3388 112.146 98.2326 113.819C98.2033 114.28 98.2308 114.745 98.2888 115.218L89.0976 130.854L76.4042 129.791L69.2585 117.484L75.7598 106.38L75.7586 106.38ZM113.729 106.66L116.895 106.687C117.461 107.284 118.006 108.007 118.52 108.897C118.725 109.354 119.357 109.559 119.79 109.306C120.224 109.055 120.359 108.405 120.061 108.001C119.792 107.536 119.512 107.093 119.221 106.687L134.325 106.799L140.629 117.567L133.484 129.874L120.762 130.909L114.457 120.168C115.6 115.894 116.074 112.88 115.186 109.903C114.785 108.786 114.284 107.702 113.729 106.658L113.729 106.66ZM112.44 108.142C112.881 108.92 113.23 109.674 113.449 110.407C113.65 111.081 113.749 111.77 113.786 112.505C112.344 112.208 110.695 112.38 109.526 113.037C108.315 113.735 107.444 114.917 106.948 116.449C106.332 116.052 105.775 115.617 105.295 115.107C104.77 114.548 104.289 113.893 103.837 113.12C104.332 111.57 105.631 110.101 107.284 109.148C109.048 108.242 110.667 107.923 112.44 108.141L112.44 108.142ZM101.764 112.897C102.351 114.276 103.096 115.357 104.005 116.337C106.037 118.498 108.727 119.577 112.692 120.672C114.805 124.328 116.967 127.986 119.109 131.636L111.628 142.405L97.3924 142.405L90.9753 131.216L98.9333 117.678C99.1887 118.324 99.5022 118.972 99.8862 119.637C100.09 120.094 100.723 120.298 101.156 120.046C101.59 119.794 101.725 119.145 101.427 118.741C100.769 117.603 100.365 116.549 100.167 115.581C100.699 114.686 101.232 113.788 101.764 112.896L101.764 112.897Z" fill="url(#paint_linear_69)" fill-opacity="0.876811624" fill-rule="nonzero" />
	</g>
</svg>
