<svg viewBox="0 0 44.6125 51" xmlns="http://www.w3.org/2000/svg" xmlns:xlink="http://www.w3.org/1999/xlink" width="44.612457" height="51.000000" fill="none" customFrame="#000000">
	<defs>
		<radialGradient id="paint_radial_32" cx="0" cy="0" r="1" gradientUnits="userSpaceOnUse" gradientTransform="matrix(17.8214,26.1422,-37.0707,25.2715,-2.29196,0.906662)">
			<stop stop-color="rgb(255,225.25,148.75)" offset="0" stop-opacity="1" />
			<stop stop-color="rgb(242.25,187.189,89.8344)" offset="0.177083328" stop-opacity="0.876811624" />
			<stop stop-color="rgb(191,122,0)" offset="0.359375" stop-opacity="0.75" />
			<stop stop-color="rgb(191,122,0)" offset="1" stop-opacity="0" />
			<stop stop-color="rgb(15,18,24)" offset="1" stop-opacity="0" />
		</radialGradient>
		<radialGradient id="paint_radial_33" cx="0" cy="0" r="1" gradientUnits="userSpaceOnUse" gradientTransform="matrix(-25.2441,-14.9855,14.9142,-25.1239,122.327,37.0112)">
			<stop stop-color="rgb(255,225,149)" offset="0" stop-opacity="1" />
			<stop stop-color="rgb(242,187,90)" offset="0.166666672" stop-opacity="0.800000012" />
			<stop stop-color="rgb(191,122,0)" offset="0.328125" stop-opacity="0.75" />
			<stop stop-color="rgb(11,11,11)" offset="1" stop-opacity="0" />
		</radialGradient>
		<clipPath id="clipPath_23">
			<rect width="18.907928" height="22.930891" x="12.751694" y="13.924805" fill="rgb(255,255,255)" />
		</clipPath>
		<linearGradient id="paint_linear_154" x1="22.2056141" x2="22.2056141" y1="14.0195312" y2="35.634716" gradientUnits="userSpaceOnUse">
			<stop stop-color="rgb(255,186.294,64.8125)" offset="0" stop-opacity="1" />
			<stop stop-color="rgb(255,251,189)" offset="1" stop-opacity="1" />
		</linearGradient>
	</defs>
	<rect id="16" width="43.749729" height="51.000000" x="0.431366" y="0.000000" />
	<path id="Polygon 19" d="M24.7307 1.35916L41.8986 11.4133C43.3124 12.2412 44.1811 13.7567 44.1811 15.395L44.1811 35.6049C44.1811 37.2433 43.3124 38.7588 41.8986 39.5867L24.7307 49.6408C23.2964 50.4808 21.5212 50.4845 20.0834 49.6504L2.73024 39.5836C1.30724 38.7581 0.431366 37.2374 0.431366 35.5923L0.431366 15.4077C0.431366 13.7626 1.30724 12.2419 2.73024 11.4164L20.0834 1.34958C21.5212 0.51553 23.2964 0.519189 24.7307 1.35916Z" fill="rgb(242.25,187.189,89.8344)" fill-opacity="0.100000001" fill-rule="nonzero" />
	<path id="Polygon 19" d="M44.5652 36.2955C44.5967 36.0675 44.6125 35.8373 44.6125 35.6049L44.6125 15.395C44.6125 15.1626 44.5967 14.9324 44.5652 14.7043C44.5365 14.4965 44.4947 14.2905 44.4399 14.0863C44.3847 13.8809 44.3172 13.6807 44.2374 13.4855C44.1534 13.28 44.0556 13.0801 43.9443 12.8858C43.8333 12.6921 43.7106 12.5074 43.5763 12.3316C43.4478 12.1634 43.3086 12.0033 43.1588 11.8514C43.01 11.7005 42.8529 11.5601 42.6877 11.43C42.5071 11.2879 42.3168 11.1583 42.1166 11.0411L24.9487 0.986931C24.7453 0.867794 24.5356 0.763779 24.3197 0.674885C24.123 0.593887 23.9211 0.525443 23.7141 0.469554C23.5058 0.413324 23.2956 0.370699 23.0836 0.341676C22.8608 0.311193 22.6361 0.295717 22.4093 0.295249C22.1824 0.294782 21.9575 0.309335 21.7347 0.33891C21.5225 0.367058 21.3122 0.408812 21.1037 0.464173C20.8964 0.519227 20.6942 0.586865 20.4971 0.667088C20.2809 0.755073 20.0709 0.858196 19.867 0.976457L2.51379 11.0433C2.31214 11.1602 2.12033 11.2898 1.93838 11.432C1.77222 11.5619 1.61428 11.7022 1.46455 11.8531C1.31395 12.0048 1.17403 12.1648 1.04481 12.3329C0.909234 12.5094 0.785425 12.6949 0.673383 12.8894C0.561356 13.0839 0.463052 13.284 0.378471 13.4898C0.297834 13.686 0.22967 13.8873 0.17398 14.0938C0.118615 14.299 0.0764649 14.5061 0.0475281 14.7149C0.0158441 14.9437 2.08616e-06 15.1746 2.08616e-06 15.4077L2.08616e-06 35.5923C2.11596e-06 35.8254 0.0158404 36.0563 0.0475171 36.285C0.0764542 36.4939 0.118608 36.701 0.17398 36.9062C0.229648 37.1126 0.297781 37.3138 0.378377 37.51C0.462979 37.7158 0.561314 37.916 0.673383 38.1106C0.785504 38.3053 0.909409 38.4909 1.0451 38.6674C1.17424 38.8355 1.31406 38.9953 1.46455 39.1469C1.61411 39.2976 1.77186 39.4378 1.93782 39.5675C2.11994 39.7099 2.31193 39.8396 2.51379 39.9567L19.867 50.0235C20.0709 50.1418 20.281 50.245 20.4972 50.333C20.6943 50.4132 20.8964 50.4808 21.1037 50.5358C21.312 50.5911 21.522 50.6328 21.7339 50.661C21.957 50.6906 22.1821 50.7052 22.4093 50.7048C22.636 50.7043 22.8607 50.6888 23.0833 50.6584C23.2954 50.6293 23.5057 50.5867 23.7141 50.5304C23.9214 50.4745 24.1235 50.4059 24.3204 50.3248C24.5361 50.236 24.7455 50.1321 24.9487 50.0131L42.1166 39.9589C42.3166 39.8418 42.5068 39.7123 42.6872 39.5704C42.8526 39.4402 43.0098 39.2996 43.1588 39.1486C43.3083 38.997 43.4472 38.8373 43.5755 38.6694C43.7101 38.4933 43.833 38.3082 43.9443 38.1142C44.0557 37.9199 44.1534 37.7199 44.2374 37.5144C44.3172 37.3192 44.3847 37.119 44.4399 36.9137C44.4947 36.7095 44.5365 36.5034 44.5652 36.2955ZM41.8986 11.4133L24.7307 1.35916C23.2964 0.519189 21.5212 0.51553 20.0834 1.34958L2.73024 11.4164C1.30724 12.2419 0.431366 13.7626 0.431366 15.4077L0.431366 35.5923C0.431366 37.2374 1.30724 38.7581 2.73024 39.5836L20.0834 49.6504C21.5212 50.4845 23.2964 50.4808 24.7307 49.6408L41.8986 39.5867C43.3124 38.7588 44.1811 37.2433 44.1811 35.6049L44.1811 15.395C44.1811 13.7567 43.3124 12.2412 41.8986 11.4133Z" fill="url(#paint_radial_32)" fill-rule="evenodd" />
	<path id="Polygon 19" d="M44.5652 36.2955C44.5967 36.0675 44.6125 35.8373 44.6125 35.6049L44.6125 15.395C44.6125 15.1626 44.5967 14.9324 44.5652 14.7043C44.5365 14.4965 44.4947 14.2905 44.4399 14.0863C44.3847 13.8809 44.3172 13.6807 44.2374 13.4855C44.1534 13.28 44.0556 13.0801 43.9443 12.8858C43.8333 12.6921 43.7106 12.5074 43.5763 12.3316C43.4478 12.1634 43.3086 12.0033 43.1588 11.8514C43.01 11.7005 42.8529 11.5601 42.6877 11.43C42.5071 11.2879 42.3168 11.1583 42.1166 11.0411L24.9487 0.986931C24.7453 0.867794 24.5356 0.763779 24.3197 0.674885C24.123 0.593887 23.9211 0.525443 23.7141 0.469554C23.5058 0.413324 23.2956 0.370699 23.0836 0.341676C22.8608 0.311193 22.6361 0.295717 22.4093 0.295249C22.1824 0.294782 21.9575 0.309335 21.7347 0.33891C21.5225 0.367058 21.3122 0.408812 21.1037 0.464173C20.8964 0.519227 20.6942 0.586865 20.4971 0.667088C20.2809 0.755073 20.0709 0.858196 19.867 0.976457L2.51379 11.0433C2.31214 11.1602 2.12033 11.2898 1.93838 11.432C1.77222 11.5619 1.61428 11.7022 1.46455 11.8531C1.31395 12.0048 1.17403 12.1648 1.04481 12.3329C0.909234 12.5094 0.785425 12.6949 0.673383 12.8894C0.561356 13.0839 0.463052 13.284 0.378471 13.4898C0.297834 13.686 0.22967 13.8873 0.17398 14.0938C0.118615 14.299 0.0764649 14.5061 0.0475281 14.7149C0.0158441 14.9437 2.08616e-06 15.1746 2.08616e-06 15.4077L2.08616e-06 35.5923C2.11596e-06 35.8254 0.0158404 36.0563 0.0475171 36.285C0.0764542 36.4939 0.118608 36.701 0.17398 36.9062C0.229648 37.1126 0.297781 37.3138 0.378377 37.51C0.462979 37.7158 0.561314 37.916 0.673383 38.1106C0.785504 38.3053 0.909409 38.4909 1.0451 38.6674C1.17424 38.8355 1.31406 38.9953 1.46455 39.1469C1.61411 39.2976 1.77186 39.4378 1.93782 39.5675C2.11994 39.7099 2.31193 39.8396 2.51379 39.9567L19.867 50.0235C20.0709 50.1418 20.281 50.245 20.4972 50.333C20.6943 50.4132 20.8964 50.4808 21.1037 50.5358C21.312 50.5911 21.522 50.6328 21.7339 50.661C21.957 50.6906 22.1821 50.7052 22.4093 50.7048C22.636 50.7043 22.8607 50.6888 23.0833 50.6584C23.2954 50.6293 23.5057 50.5867 23.7141 50.5304C23.9214 50.4745 24.1235 50.4059 24.3204 50.3248C24.5361 50.236 24.7455 50.1321 24.9487 50.0131L42.1166 39.9589C42.3166 39.8418 42.5068 39.7123 42.6872 39.5704C42.8526 39.4402 43.0098 39.2996 43.1588 39.1486C43.3083 38.997 43.4472 38.8373 43.5755 38.6694C43.7101 38.4933 43.833 38.3082 43.9443 38.1142C44.0557 37.9199 44.1534 37.7199 44.2374 37.5144C44.3172 37.3192 44.3847 37.119 44.4399 36.9137C44.4947 36.7095 44.5365 36.5034 44.5652 36.2955ZM41.8986 11.4133L24.7307 1.35916C23.2964 0.519189 21.5212 0.51553 20.0834 1.34958L2.73024 11.4164C1.30724 12.2419 0.431366 13.7626 0.431366 15.4077L0.431366 35.5923C0.431366 37.2374 1.30724 38.7581 2.73024 39.5836L20.0834 49.6504C21.5212 50.4845 23.2964 50.4808 24.7307 49.6408L41.8986 39.5867C43.3124 38.7588 44.1811 37.2433 44.1811 35.6049L44.1811 15.395C44.1811 13.7567 43.3124 12.2412 41.8986 11.4133Z" fill="url(#paint_radial_33)" fill-rule="evenodd" />
	<g id="ps:youtube" clip-path="url(#clipPath_23)" customFrame="url(#clipPath_23)">
		<rect id="ps:youtube" width="18.907928" height="22.930891" x="12.751694" y="13.924805" fill="rgb(255,255,255)" fill-opacity="0" />
		<path id="Vector" d="M28.7544 29.855L27.5234 29.855L27.5234 29.1502C27.5234 28.7742 27.7204 28.5863 28.1143 28.5863L28.1636 28.5863C28.5575 28.5863 28.7544 28.7742 28.7544 29.1502L28.7544 29.855ZM24.0767 28.3513C23.6828 28.3513 23.4858 28.508 23.4858 28.8212L23.4858 32.1575C23.4858 32.4708 23.6828 32.6274 24.0767 32.6274C24.4706 32.6274 24.6676 32.4708 24.6676 32.1575L24.6676 28.8212C24.6676 28.508 24.4706 28.3513 24.0767 28.3513ZM31.6595 26.4718L31.6595 32.8623C31.6595 33.6455 31.3559 34.3033 30.7486 34.8359C30.1413 35.3684 29.4109 35.6347 28.5575 35.6347L15.8538 35.6347C15.0003 35.6347 14.2699 35.3684 13.6626 34.8359C13.0553 34.3033 12.7517 33.6455 12.7517 32.8623L12.7517 26.4718C12.7517 25.7199 13.0553 25.0699 13.6626 24.5217C14.2699 23.9735 15.0003 23.6994 15.8538 23.6994L28.5575 23.6994C29.4109 23.6994 30.1413 23.9735 30.7486 24.5217C31.3559 25.0699 31.6595 25.7199 31.6595 26.4718ZM16.6908 33.5672L16.6908 26.8477L18.2665 26.8477L18.2665 25.8609L14.0812 25.8139L14.0812 26.8007L15.3614 26.8007L15.3614 33.5672L16.6908 33.5672ZM21.4178 27.8345L20.0883 27.8345L20.0883 32.2985C20.0227 32.4551 19.9078 32.5569 19.7437 32.6039C19.5795 32.6509 19.4482 32.5647 19.3497 32.3454L19.3497 31.4526L19.3005 27.8345L18.0203 27.8345L18.0203 32.5334C18.0859 33.066 18.2008 33.3792 18.365 33.4732C18.6604 33.6612 19.0297 33.669 19.4728 33.4967C19.916 33.3244 20.2196 33.0973 20.3838 32.8153L20.3838 33.5672L21.4178 33.5672L21.4178 27.8345ZM25.6031 31.9695L25.6031 28.9622C25.6031 28.367 25.4062 27.9598 25.0122 27.7405C24.6183 27.5212 24.1259 27.6308 23.5351 28.0694L23.5351 25.8609L22.2056 25.8609L22.2056 33.5202L23.2889 33.5202L23.3874 33.0033C24.0767 33.5672 24.6265 33.7238 25.0369 33.4732C25.4472 33.2226 25.6359 32.7214 25.6031 31.9695ZM29.7392 31.5466L28.7544 31.5466L28.7544 32.2045C28.7544 32.5491 28.5739 32.7214 28.2128 32.7214L28.0158 32.7214C27.6548 32.7214 27.4742 32.5491 27.4742 32.2045L27.4742 30.8418L29.7392 30.8418L29.7392 30.043C29.7392 29.2285 29.7228 28.7116 29.69 28.4923C29.5915 27.9911 29.2386 27.6778 28.6313 27.5525C28.024 27.4272 27.5234 27.5055 27.1295 27.7875C26.8669 28.0067 26.6864 28.2417 26.5879 28.4923C26.4894 28.8056 26.4402 29.2285 26.4402 29.761L26.4402 31.5466C26.4402 32.7057 26.8997 33.3792 27.8189 33.5672C28.6067 33.7238 29.1812 33.4732 29.5422 32.8153C29.772 32.4708 29.8377 32.0478 29.7392 31.5466ZM24.6676 21.8668C24.7332 22.0234 24.8481 22.1487 25.0122 22.2427C25.1436 22.3367 25.3241 22.3837 25.5539 22.3837C25.7508 22.3837 25.915 22.3367 26.0463 22.2427C26.1776 22.1487 26.2925 22.0078 26.3909 21.8198L26.3909 22.2897L27.8681 22.2897L27.8681 16.322L26.6864 16.322L26.6864 20.974C26.6864 21.2872 26.5222 21.4439 26.194 21.4439C25.8986 21.4439 25.7508 21.2872 25.7508 20.974L25.7508 16.322L24.5199 16.322L24.5199 20.3631C24.5199 20.927 24.5363 21.2716 24.5691 21.3969C24.5691 21.5222 24.6019 21.6788 24.6676 21.8668ZM20.236 18.5305C20.236 17.9667 20.2853 17.5124 20.3838 17.1678C20.4822 16.8859 20.6628 16.6353 20.9254 16.416C21.188 16.228 21.5163 16.1341 21.9102 16.1341C22.2713 16.1341 22.5667 16.1967 22.7965 16.322C23.0263 16.416 23.2068 16.5726 23.3381 16.7919C23.4694 16.9485 23.5679 17.1522 23.6336 17.4028C23.6664 17.5594 23.6828 17.8883 23.6828 18.3896L23.6828 19.8932C23.6828 20.5197 23.6664 20.927 23.6336 21.115C23.6007 21.3342 23.5022 21.5692 23.3381 21.8198C23.2396 21.9764 23.0591 22.1487 22.7965 22.3367C22.5339 22.4307 22.2713 22.4776 22.0087 22.4776C21.6804 22.4776 21.385 22.4307 21.1224 22.3367C20.8926 22.2427 20.712 22.1017 20.5807 21.9138C20.4494 21.6632 20.3674 21.4439 20.3345 21.2559C20.2689 20.9427 20.236 20.5511 20.236 20.0812L20.236 18.5305ZM21.3685 20.88C21.3685 21.0366 21.426 21.1776 21.5409 21.3029C21.6558 21.4282 21.7953 21.4909 21.9594 21.4909C22.3533 21.4909 22.5503 21.2872 22.5503 20.88L22.5503 17.7317C22.5503 17.3245 22.3533 17.1208 21.9594 17.1208C21.5655 17.1208 21.3685 17.3245 21.3685 17.7317L21.3685 20.88ZM17.3309 22.4776L18.7096 22.4776L18.7096 17.9197L20.3345 14.0195L18.8574 14.0195L17.971 16.9329L17.0847 14.0195L15.6076 14.0195L17.3309 17.9197L17.3309 22.4776Z" fill="url(#paint_linear_154)" fill-opacity="0.876811624" fill-rule="nonzero" />
	</g>
</svg>
